M48
; DRILL file {KiCad 8.0.6} date 2024-11-17T18:19:48+0100
; FORMAT={-:-/ absolute / inch / decimal}
; #@! TF.CreationDate,2024-11-17T18:19:48+01:00
; #@! TF.GenerationSoftware,Kicad,Pcbnew,8.0.6
; #@! TF.FileFunction,Plated,1,2,PTH
FMAT,2
INCH
; #@! TA.AperFunction,Plated,PTH,ComponentDrill
T1C0.0197
; #@! TA.AperFunction,Plated,PTH,ComponentDrill
T2C0.0315
; #@! TA.AperFunction,Plated,PTH,ComponentDrill
T3C0.0354
; #@! TA.AperFunction,Plated,PTH,ComponentDrill
T4C0.0394
; #@! TA.AperFunction,Plated,PTH,ComponentDrill
T5C0.0433
%
G90
G05
T2
X6.7913Y-2.9232
X6.7913Y-3.0413
X6.7913Y-3.2909
X6.7913Y-3.6909
X7.4803Y-3.2941
X7.4803Y-3.6941
X8.189Y-2.9232
X8.189Y-3.0413
X8.189Y-3.2941
X8.189Y-3.6941
T3
X7.4803Y-3.0506
X7.4803Y-3.1506
T4
X6.2992Y-2.6508
X6.2992Y-2.8008
X8.4941Y-2.1654
X8.6441Y-2.1654
X8.6614Y-2.6567
X8.6614Y-2.8067
T5
X6.1992Y-3.2087
X6.2992Y-3.2087
X6.3992Y-3.2087
X8.56Y-3.21
X8.66Y-3.21
X8.76Y-3.21
T1
G00X7.185Y-2.1319
M15
G01X7.185Y-2.1988
M16
G05
G00X7.7756Y-2.1319
M15
G01X7.7756Y-2.1988
M16
G05
M30
