%TF.GenerationSoftware,KiCad,Pcbnew,8.0.6*%
%TF.CreationDate,2024-11-17T18:19:46+01:00*%
%TF.ProjectId,MakerBot,4d616b65-7242-46f7-942e-6b696361645f,rev?*%
%TF.SameCoordinates,Original*%
%TF.FileFunction,Soldermask,Bot*%
%TF.FilePolarity,Negative*%
%FSLAX46Y46*%
G04 Gerber Fmt 4.6, Leading zero omitted, Abs format (unit mm)*
G04 Created by KiCad (PCBNEW 8.0.6) date 2024-11-17 18:19:46*
%MOMM*%
%LPD*%
G01*
G04 APERTURE LIST*
%ADD10C,0.150000*%
%ADD11C,0.000000*%
%ADD12C,1.600000*%
%ADD13O,1.600000X1.600000*%
%ADD14C,2.200000*%
%ADD15O,1.500000X3.400000*%
%ADD16R,1.700000X1.700000*%
%ADD17O,1.700000X1.700000*%
%ADD18R,1.905000X2.000000*%
%ADD19O,1.905000X2.000000*%
%ADD20R,1.800000X1.800000*%
%ADD21C,1.800000*%
G04 APERTURE END LIST*
D10*
G36*
X228711528Y-67462499D02*
G01*
X228709845Y-67423395D01*
X228703800Y-67380078D01*
X228693358Y-67338227D01*
X228678521Y-67297842D01*
X228676357Y-67292896D01*
X228657037Y-67254611D01*
X228634249Y-67218695D01*
X228607993Y-67185149D01*
X228578269Y-67153971D01*
X228545516Y-67125627D01*
X228510369Y-67100580D01*
X228472829Y-67078830D01*
X228432895Y-67060377D01*
X228391020Y-67045674D01*
X228347655Y-67035171D01*
X228308488Y-67029428D01*
X228268180Y-67026901D01*
X228256454Y-67026769D01*
X228216202Y-67028350D01*
X228176996Y-67033090D01*
X228133472Y-67042377D01*
X228091316Y-67055792D01*
X228080990Y-67059791D01*
X228041106Y-67078060D01*
X228003712Y-67099652D01*
X227968810Y-67124564D01*
X227936399Y-67152799D01*
X227906809Y-67183976D01*
X227880565Y-67217523D01*
X227857667Y-67253439D01*
X227838115Y-67291724D01*
X227822472Y-67332000D01*
X227811297Y-67373887D01*
X227804593Y-67417387D01*
X227802393Y-67456772D01*
X227802358Y-67462499D01*
X227803848Y-67501932D01*
X227809086Y-67544104D01*
X227818095Y-67583958D01*
X227826196Y-67609240D01*
X227841736Y-67646034D01*
X227861759Y-67682117D01*
X227886263Y-67717488D01*
X227901814Y-67736832D01*
X227920376Y-67748556D01*
X227940502Y-67745820D01*
X227954570Y-67732534D01*
X227968053Y-67721201D01*
X227971374Y-67700489D01*
X227961214Y-67677628D01*
X227937351Y-67646614D01*
X227916637Y-67610673D01*
X227904745Y-67582275D01*
X227893433Y-67541343D01*
X227887651Y-67499622D01*
X227886182Y-67462499D01*
X227888516Y-67422354D01*
X227895518Y-67383694D01*
X227908772Y-67342478D01*
X227915687Y-67326504D01*
X227936245Y-67288406D01*
X227961040Y-67253247D01*
X227990070Y-67221026D01*
X227996385Y-67214934D01*
X228026433Y-67189519D01*
X228058985Y-67167350D01*
X228094041Y-67148427D01*
X228114598Y-67139317D01*
X228152931Y-67126093D01*
X228192531Y-67117197D01*
X228233398Y-67112629D01*
X228256650Y-67111961D01*
X228299260Y-67114125D01*
X228340263Y-67120617D01*
X228379659Y-67131436D01*
X228400851Y-67139317D01*
X228437298Y-67156437D01*
X228471241Y-67176803D01*
X228502680Y-67200414D01*
X228519064Y-67214934D01*
X228546020Y-67243272D01*
X228571909Y-67277550D01*
X228593525Y-67314766D01*
X228599176Y-67326504D01*
X228614426Y-67366988D01*
X228624028Y-67409303D01*
X228627840Y-67448952D01*
X228628094Y-67462499D01*
X228625693Y-67504029D01*
X228618490Y-67543989D01*
X228607773Y-67578954D01*
X228591702Y-67616032D01*
X228571428Y-67651771D01*
X228549350Y-67683099D01*
X228540558Y-67711626D01*
X228553845Y-67738005D01*
X228582958Y-67749338D01*
X228599371Y-67746407D01*
X228614612Y-67736832D01*
X228641956Y-67703672D01*
X228664415Y-67668379D01*
X228681990Y-67630954D01*
X228689644Y-67609240D01*
X228700222Y-67569114D01*
X228707339Y-67528092D01*
X228710993Y-67486174D01*
X228711528Y-67462499D01*
G37*
G36*
X228711528Y-68325360D02*
G01*
X228709845Y-68286256D01*
X228703800Y-68242939D01*
X228693358Y-68201088D01*
X228678521Y-68160703D01*
X228676357Y-68155758D01*
X228657037Y-68117473D01*
X228634249Y-68081557D01*
X228607993Y-68048010D01*
X228578269Y-68016832D01*
X228545516Y-67988488D01*
X228510369Y-67963441D01*
X228472829Y-67941691D01*
X228432895Y-67923238D01*
X228391020Y-67908535D01*
X228347655Y-67898033D01*
X228308488Y-67892289D01*
X228268180Y-67889762D01*
X228256454Y-67889631D01*
X228216202Y-67891211D01*
X228176996Y-67895951D01*
X228133472Y-67905238D01*
X228091316Y-67918654D01*
X228080990Y-67922652D01*
X228041106Y-67940922D01*
X228003712Y-67962513D01*
X227968810Y-67987425D01*
X227936399Y-68015660D01*
X227906809Y-68046838D01*
X227880565Y-68080384D01*
X227857667Y-68116300D01*
X227838115Y-68154585D01*
X227822472Y-68194861D01*
X227811297Y-68236749D01*
X227804593Y-68280248D01*
X227802393Y-68319633D01*
X227802358Y-68325360D01*
X227803848Y-68364793D01*
X227809086Y-68406965D01*
X227818095Y-68446820D01*
X227826196Y-68472101D01*
X227841736Y-68508895D01*
X227861759Y-68544978D01*
X227886263Y-68580350D01*
X227901814Y-68599693D01*
X227920376Y-68611417D01*
X227940502Y-68608682D01*
X227954570Y-68595395D01*
X227968053Y-68584062D01*
X227971374Y-68563350D01*
X227961214Y-68540489D01*
X227937351Y-68509475D01*
X227916637Y-68473534D01*
X227904745Y-68445137D01*
X227893433Y-68404204D01*
X227887651Y-68362483D01*
X227886182Y-68325360D01*
X227888516Y-68285215D01*
X227895518Y-68246555D01*
X227908772Y-68205339D01*
X227915687Y-68189365D01*
X227936245Y-68151267D01*
X227961040Y-68116108D01*
X227990070Y-68083887D01*
X227996385Y-68077795D01*
X228026433Y-68052380D01*
X228058985Y-68030211D01*
X228094041Y-68011288D01*
X228114598Y-68002178D01*
X228152931Y-67988954D01*
X228192531Y-67980058D01*
X228233398Y-67975490D01*
X228256650Y-67974823D01*
X228299260Y-67976986D01*
X228340263Y-67983478D01*
X228379659Y-67994297D01*
X228400851Y-68002178D01*
X228437298Y-68019298D01*
X228471241Y-68039664D01*
X228502680Y-68063275D01*
X228519064Y-68077795D01*
X228546020Y-68106133D01*
X228571909Y-68140411D01*
X228593525Y-68177627D01*
X228599176Y-68189365D01*
X228614426Y-68229849D01*
X228624028Y-68272164D01*
X228627840Y-68311814D01*
X228628094Y-68325360D01*
X228625693Y-68366890D01*
X228618490Y-68406850D01*
X228607773Y-68441815D01*
X228591702Y-68478893D01*
X228571428Y-68514632D01*
X228549350Y-68545960D01*
X228540558Y-68574488D01*
X228553845Y-68600866D01*
X228582958Y-68612199D01*
X228599371Y-68609268D01*
X228614612Y-68599693D01*
X228641956Y-68566533D01*
X228664415Y-68531241D01*
X228681990Y-68493815D01*
X228689644Y-68472101D01*
X228700222Y-68431975D01*
X228707339Y-68390954D01*
X228710993Y-68349035D01*
X228711528Y-68325360D01*
G37*
G36*
X228436413Y-68768319D02*
G01*
X228424103Y-68738033D01*
X228393426Y-68725723D01*
X228361772Y-68738033D01*
X228349267Y-68768319D01*
X228349267Y-69031515D01*
X228361772Y-69062778D01*
X228393426Y-69075088D01*
X228424103Y-69062778D01*
X228436413Y-69031515D01*
X228436413Y-68768319D01*
G37*
G36*
X228687103Y-69246644D02*
G01*
X228699023Y-69282010D01*
X228699023Y-69567677D01*
X228698212Y-69591737D01*
X228692665Y-69632907D01*
X228681863Y-69671325D01*
X228665805Y-69706993D01*
X228661554Y-69714534D01*
X228637321Y-69749125D01*
X228608126Y-69778525D01*
X228573970Y-69802736D01*
X228559035Y-69810888D01*
X228519238Y-69826511D01*
X228480420Y-69834765D01*
X228438757Y-69837516D01*
X228412743Y-69836395D01*
X228369595Y-69828727D01*
X228331176Y-69813795D01*
X228297487Y-69791598D01*
X228280948Y-69776538D01*
X228255530Y-69745848D01*
X228235707Y-69710552D01*
X228221479Y-69670649D01*
X228205477Y-69698718D01*
X228178467Y-69731141D01*
X228148011Y-69755841D01*
X228116408Y-69772946D01*
X228078603Y-69784444D01*
X228037613Y-69788277D01*
X227997534Y-69785167D01*
X227957062Y-69774560D01*
X227920376Y-69756428D01*
X227890827Y-69734327D01*
X227863127Y-69704948D01*
X227840460Y-69670259D01*
X227838657Y-69666851D01*
X227822600Y-69627705D01*
X227814013Y-69589474D01*
X227811151Y-69548723D01*
X227895952Y-69548723D01*
X227898796Y-69584662D01*
X227909996Y-69623508D01*
X227931905Y-69659512D01*
X227960459Y-69684431D01*
X227996956Y-69699006D01*
X228037027Y-69703280D01*
X228078079Y-69699006D01*
X228116227Y-69684431D01*
X228147034Y-69659512D01*
X228169394Y-69626762D01*
X228182473Y-69588424D01*
X228184477Y-69567677D01*
X228271304Y-69567677D01*
X228271815Y-69584168D01*
X228277920Y-69624232D01*
X228292212Y-69662834D01*
X228294867Y-69667941D01*
X228319016Y-69701773D01*
X228350635Y-69727705D01*
X228362678Y-69734516D01*
X228399800Y-69747445D01*
X228438757Y-69751347D01*
X228455309Y-69750770D01*
X228494948Y-69743867D01*
X228532156Y-69727705D01*
X228539363Y-69723150D01*
X228570713Y-69695639D01*
X228592923Y-69662834D01*
X228599059Y-69649588D01*
X228610706Y-69609303D01*
X228614221Y-69567677D01*
X228614221Y-69320112D01*
X228271304Y-69320112D01*
X228271304Y-69567677D01*
X228184477Y-69567677D01*
X228186308Y-69548723D01*
X228186308Y-69320112D01*
X227895952Y-69320112D01*
X227895952Y-69548723D01*
X227811151Y-69548723D01*
X227811151Y-69276539D01*
X227823656Y-69245081D01*
X227855505Y-69232771D01*
X228654668Y-69232771D01*
X228687103Y-69246644D01*
G37*
G36*
X228699023Y-70205834D02*
G01*
X228686126Y-70174962D01*
X228654863Y-70162261D01*
X228371737Y-70162261D01*
X227880711Y-69857642D01*
X227847690Y-69849044D01*
X227821507Y-69863113D01*
X227811151Y-69891054D01*
X227816817Y-69912938D01*
X227832840Y-69928179D01*
X228327383Y-70230454D01*
X228327383Y-70183559D01*
X227834989Y-70484662D01*
X227816817Y-70502052D01*
X227811151Y-70525109D01*
X227822093Y-70551291D01*
X227848862Y-70563601D01*
X227880711Y-70555395D01*
X228371737Y-70249603D01*
X228654863Y-70249603D01*
X228686126Y-70236707D01*
X228699023Y-70205834D01*
G37*
G36*
X228436413Y-70541717D02*
G01*
X228424103Y-70511431D01*
X228393426Y-70499121D01*
X228361772Y-70511431D01*
X228349267Y-70541717D01*
X228349267Y-70804913D01*
X228361772Y-70836176D01*
X228393426Y-70848486D01*
X228424103Y-70836176D01*
X228436413Y-70804913D01*
X228436413Y-70541717D01*
G37*
G36*
X228711528Y-71275032D02*
G01*
X228709889Y-71235530D01*
X228704226Y-71193596D01*
X228694517Y-71153724D01*
X228690816Y-71142164D01*
X228676051Y-71105646D01*
X228655886Y-71069134D01*
X228631611Y-71036455D01*
X228603874Y-71008187D01*
X228570402Y-70983036D01*
X228543098Y-70968067D01*
X228510076Y-70967481D01*
X228489169Y-70996204D01*
X228492686Y-71026881D01*
X228516133Y-71049938D01*
X228548721Y-71072203D01*
X228574361Y-71099177D01*
X228595965Y-71132290D01*
X228612417Y-71170813D01*
X228614221Y-71176358D01*
X228623705Y-71217364D01*
X228627756Y-71258455D01*
X228628094Y-71275032D01*
X228625739Y-71314276D01*
X228617798Y-71353454D01*
X228608164Y-71380349D01*
X228587284Y-71416750D01*
X228559523Y-71445596D01*
X228550327Y-71452450D01*
X228513809Y-71470482D01*
X228474207Y-71478184D01*
X228457515Y-71478828D01*
X228416154Y-71473905D01*
X228378533Y-71459136D01*
X228344652Y-71434521D01*
X228338325Y-71428416D01*
X228313063Y-71395547D01*
X228295434Y-71358751D01*
X228283736Y-71320705D01*
X228275516Y-71277199D01*
X228274626Y-71270538D01*
X228268388Y-71230964D01*
X228257654Y-71187165D01*
X228243375Y-71147391D01*
X228225551Y-71111644D01*
X228200277Y-71075025D01*
X228192170Y-71065569D01*
X228161656Y-71036790D01*
X228128243Y-71015080D01*
X228091932Y-71000438D01*
X228052722Y-70992864D01*
X228029016Y-70991710D01*
X227987540Y-70995259D01*
X227949576Y-71005907D01*
X227911870Y-71025818D01*
X227908653Y-71028053D01*
X227878947Y-71053459D01*
X227853820Y-71084245D01*
X227833273Y-71120412D01*
X227829713Y-71128291D01*
X227816207Y-71165730D01*
X227807120Y-71206168D01*
X227802454Y-71249605D01*
X227801772Y-71275032D01*
X227804104Y-71316031D01*
X227811967Y-71357755D01*
X227821507Y-71386993D01*
X227838039Y-71422988D01*
X227859856Y-71457890D01*
X227873286Y-71474920D01*
X227902351Y-71505054D01*
X227933810Y-71529802D01*
X227943237Y-71535883D01*
X227978018Y-71543308D01*
X228003810Y-71523573D01*
X228006154Y-71489379D01*
X227984661Y-71463197D01*
X227953566Y-71438910D01*
X227936008Y-71421187D01*
X227913160Y-71389430D01*
X227899665Y-71360028D01*
X227889553Y-71320608D01*
X227886235Y-71280104D01*
X227886182Y-71273859D01*
X227888564Y-71231776D01*
X227896936Y-71189630D01*
X227911336Y-71152985D01*
X227924284Y-71131612D01*
X227951372Y-71103276D01*
X227989015Y-71084228D01*
X228030368Y-71077932D01*
X228034877Y-71077879D01*
X228074219Y-71083559D01*
X228106001Y-71098005D01*
X228135994Y-71124725D01*
X228158551Y-71158924D01*
X228161493Y-71164634D01*
X228177256Y-71203991D01*
X228187831Y-71243631D01*
X228195358Y-71284625D01*
X228196078Y-71289491D01*
X228203610Y-71331502D01*
X228213385Y-71369973D01*
X228228073Y-71411466D01*
X228245991Y-71447862D01*
X228270975Y-71483882D01*
X228283028Y-71497195D01*
X228314019Y-71523614D01*
X228348862Y-71543544D01*
X228387558Y-71556985D01*
X228430105Y-71563938D01*
X228456147Y-71564997D01*
X228496624Y-71562411D01*
X228537199Y-71553692D01*
X228565177Y-71543113D01*
X228601399Y-71522492D01*
X228632590Y-71495872D01*
X228645289Y-71481564D01*
X228668969Y-71447078D01*
X228686362Y-71411239D01*
X228694528Y-71388556D01*
X228704887Y-71347679D01*
X228710183Y-71308422D01*
X228711528Y-71275032D01*
G37*
G36*
X228699023Y-71699037D02*
G01*
X228681370Y-71664165D01*
X228677529Y-71661913D01*
X228637893Y-71658718D01*
X228635324Y-71659763D01*
X227841828Y-71989003D01*
X227813068Y-72017579D01*
X227811151Y-72031598D01*
X227829875Y-72066832D01*
X227841828Y-72073022D01*
X228636496Y-72403434D01*
X228676132Y-72402220D01*
X228678701Y-72400698D01*
X228698943Y-72367245D01*
X228699023Y-72364355D01*
X228692184Y-72340126D01*
X228671667Y-72322736D01*
X227913342Y-72014795D01*
X227913342Y-72049575D01*
X228671667Y-71739289D01*
X228692184Y-71723071D01*
X228699023Y-71699037D01*
G37*
G36*
X228487215Y-71772896D02*
G01*
X228411402Y-71806504D01*
X228411402Y-72261187D01*
X228487215Y-72294795D01*
X228487215Y-71772896D01*
G37*
G36*
X228474514Y-72779372D02*
G01*
X228486434Y-72809072D01*
X228486434Y-73210021D01*
X228654668Y-73210021D01*
X228686517Y-73222331D01*
X228699023Y-73251445D01*
X228686517Y-73282708D01*
X228654668Y-73295018D01*
X228486434Y-73295018D01*
X228486434Y-73383532D01*
X228474514Y-73413818D01*
X228447941Y-73426127D01*
X228416482Y-73413818D01*
X228407299Y-73383532D01*
X228407299Y-73295018D01*
X227856482Y-73295018D01*
X227824242Y-73283294D01*
X227811151Y-73253594D01*
X227816231Y-73231906D01*
X227829323Y-73217837D01*
X227839683Y-73210021D01*
X227974548Y-73210021D01*
X228407299Y-73210021D01*
X228407299Y-72881662D01*
X227974548Y-73210021D01*
X227839683Y-73210021D01*
X228417264Y-72774292D01*
X228446768Y-72765890D01*
X228474514Y-72779372D01*
G37*
G36*
X228711528Y-73595144D02*
G01*
X228698887Y-73556615D01*
X228692379Y-73549226D01*
X228657384Y-73531180D01*
X228645875Y-73530273D01*
X228607397Y-73542199D01*
X228598590Y-73549812D01*
X228579926Y-73585691D01*
X228579246Y-73595144D01*
X228591410Y-73632386D01*
X228599176Y-73641061D01*
X228634424Y-73659294D01*
X228645875Y-73660210D01*
X228684106Y-73647956D01*
X228691793Y-73641647D01*
X228710583Y-73606919D01*
X228711528Y-73595144D01*
G37*
G36*
X228288749Y-73727709D02*
G01*
X228329792Y-73729657D01*
X228368869Y-73733102D01*
X228413167Y-73739213D01*
X228454635Y-73747482D01*
X228493272Y-73757907D01*
X228505477Y-73761877D01*
X228545380Y-73777514D01*
X228580907Y-73795862D01*
X228616151Y-73820152D01*
X228645680Y-73847984D01*
X228663808Y-73871090D01*
X228683968Y-73908866D01*
X228695689Y-73950383D01*
X228699023Y-73990426D01*
X228697133Y-74021379D01*
X228688738Y-74059787D01*
X228671264Y-74099083D01*
X228645289Y-74134236D01*
X228638371Y-74141478D01*
X228607157Y-74168247D01*
X228570276Y-74191499D01*
X228533357Y-74208959D01*
X228492100Y-74223727D01*
X228466674Y-74230963D01*
X228426246Y-74240007D01*
X228383070Y-74246881D01*
X228337146Y-74251584D01*
X228296777Y-74253845D01*
X228254501Y-74254599D01*
X228229319Y-74254328D01*
X228188763Y-74252670D01*
X228142424Y-74248690D01*
X228098628Y-74242540D01*
X228057373Y-74234219D01*
X228018660Y-74223727D01*
X228006359Y-74219782D01*
X227966144Y-74204245D01*
X227930341Y-74186016D01*
X227894829Y-74161885D01*
X227865080Y-74134236D01*
X227846752Y-74111261D01*
X227826371Y-74073345D01*
X227814521Y-74031288D01*
X227811151Y-73990426D01*
X227899665Y-73990426D01*
X227903343Y-74022152D01*
X227919692Y-74059549D01*
X227946168Y-74088905D01*
X227961517Y-74100696D01*
X227997107Y-74121388D01*
X228034719Y-74136715D01*
X228072588Y-74147719D01*
X228087769Y-74151210D01*
X228130163Y-74158843D01*
X228169542Y-74163518D01*
X228211053Y-74166323D01*
X228254696Y-74167258D01*
X228273841Y-74167090D01*
X228316963Y-74165388D01*
X228357915Y-74161854D01*
X228396699Y-74156487D01*
X228438367Y-74148109D01*
X228453157Y-74144377D01*
X228493880Y-74131037D01*
X228532711Y-74112444D01*
X228564787Y-74089882D01*
X228586983Y-74066215D01*
X228605278Y-74029419D01*
X228610704Y-73990426D01*
X228607834Y-73962021D01*
X228592768Y-73924267D01*
X228564787Y-73892338D01*
X228549607Y-73880716D01*
X228514268Y-73860276D01*
X228476786Y-73845077D01*
X228438953Y-73834111D01*
X228423754Y-73830619D01*
X228381124Y-73822986D01*
X228341319Y-73818311D01*
X228299176Y-73815506D01*
X228254696Y-73814571D01*
X228242007Y-73814648D01*
X228198929Y-73816117D01*
X228157927Y-73819456D01*
X228113609Y-73825562D01*
X228072002Y-73834111D01*
X228062075Y-73836628D01*
X228020744Y-73849807D01*
X227981237Y-73868003D01*
X227945582Y-73892338D01*
X227925493Y-73912977D01*
X227906122Y-73948789D01*
X227899665Y-73990426D01*
X227811151Y-73990426D01*
X227812453Y-73965053D01*
X227821361Y-73922289D01*
X227838708Y-73883266D01*
X227864494Y-73847984D01*
X227871343Y-73840694D01*
X227902374Y-73813748D01*
X227939218Y-73790343D01*
X227976225Y-73772769D01*
X228017683Y-73757907D01*
X228043182Y-73750717D01*
X228083628Y-73741730D01*
X228126713Y-73734899D01*
X228172435Y-73730226D01*
X228212552Y-73727979D01*
X228254501Y-73727230D01*
X228288749Y-73727709D01*
G37*
D11*
%TO.C,weee-symbol_mask_3mm*%
G36*
X224993851Y-71126635D02*
G01*
X224878034Y-71126635D01*
X224878034Y-70758258D01*
X224993851Y-70758258D01*
X224993851Y-71126635D01*
G37*
G36*
X225954050Y-71219130D02*
G01*
X225894517Y-71278663D01*
X225835005Y-71219130D01*
X225894517Y-71159612D01*
X225954050Y-71219130D01*
G37*
G36*
X227125024Y-71734671D02*
G01*
X226698348Y-71734671D01*
X226698348Y-69986092D01*
X227125024Y-69986092D01*
X227125024Y-71734671D01*
G37*
G36*
X225259003Y-70807233D02*
G01*
X226237261Y-69843198D01*
X226275156Y-69883049D01*
X225298859Y-70845169D01*
X226267616Y-71766987D01*
X226229701Y-71806857D01*
X225259670Y-70883806D01*
X224203376Y-71924730D01*
X224125023Y-71924730D01*
X225219799Y-70845871D01*
X224138985Y-69817405D01*
X224218786Y-69817405D01*
X225259003Y-70807233D01*
G37*
G36*
X226065636Y-70641795D02*
G01*
X225980916Y-70641795D01*
X225980916Y-71068160D01*
X226068453Y-71219130D01*
X226017506Y-71342118D01*
X225894517Y-71393066D01*
X225724557Y-71256158D01*
X224873236Y-71332515D01*
X224873236Y-71336566D01*
X224873236Y-71471729D01*
X224670474Y-71471729D01*
X224670474Y-71350708D01*
X224572850Y-71359462D01*
X224581663Y-71396079D01*
X224501215Y-71476527D01*
X224420787Y-71396079D01*
X224445910Y-71346653D01*
X224715593Y-71346653D01*
X224715593Y-71426610D01*
X224828116Y-71426610D01*
X224828116Y-71336566D01*
X224715593Y-71346653D01*
X224445910Y-71346653D01*
X224453804Y-71331122D01*
X224376334Y-71211294D01*
X224348741Y-71053295D01*
X224323810Y-71053295D01*
X224323810Y-70768345D01*
X224341928Y-70768345D01*
X224396954Y-70768345D01*
X224449162Y-70768345D01*
X224449162Y-71008176D01*
X224449162Y-71053295D01*
X224403907Y-71053295D01*
X224428031Y-71192770D01*
X224513162Y-71307705D01*
X224513162Y-70603824D01*
X224568308Y-70603824D01*
X224568308Y-71304727D01*
X224670474Y-71295562D01*
X224670474Y-71271373D01*
X224873236Y-71271373D01*
X224873236Y-71277389D01*
X225721499Y-71201288D01*
X225777613Y-71090379D01*
X225894517Y-71045209D01*
X225925770Y-71048011D01*
X225925770Y-70562876D01*
X224568308Y-70448061D01*
X224568308Y-70500856D01*
X224568308Y-70603824D01*
X224513162Y-70603824D01*
X224420807Y-70603824D01*
X224396954Y-70768345D01*
X224341928Y-70768345D01*
X224364448Y-70603824D01*
X224353599Y-70603824D01*
X224353599Y-70500856D01*
X224393745Y-70500856D01*
X224454491Y-70500856D01*
X224513162Y-70500856D01*
X224513162Y-70437273D01*
X224454491Y-70500856D01*
X224393745Y-70500856D01*
X224513162Y-70380207D01*
X224513162Y-70310762D01*
X224568308Y-70310762D01*
X224568308Y-70392740D01*
X225954892Y-70510041D01*
X225980270Y-70532310D01*
X226065636Y-70532310D01*
X226065636Y-70562876D01*
X226065636Y-70641795D01*
G37*
%TO.C,ce-symbol_mask_3mm*%
G36*
X225763334Y-64052037D02*
G01*
X225994144Y-64108875D01*
X226209365Y-64199830D01*
X226405909Y-64321814D01*
X226580688Y-64471740D01*
X226730613Y-64646519D01*
X226852598Y-64843063D01*
X226943553Y-65058284D01*
X227000391Y-65289094D01*
X227020023Y-65532405D01*
X227012523Y-65682405D01*
X226562523Y-65682405D01*
X226570023Y-65532405D01*
X226542293Y-65291643D01*
X226463303Y-65070632D01*
X226339356Y-64875675D01*
X226176753Y-64713072D01*
X225981795Y-64589124D01*
X225760785Y-64510135D01*
X225520023Y-64482405D01*
X225279261Y-64510135D01*
X225058250Y-64589124D01*
X224863293Y-64713072D01*
X224700690Y-64875675D01*
X224576742Y-65070632D01*
X224497753Y-65291643D01*
X224470023Y-65532405D01*
X224477523Y-65682405D01*
X224027523Y-65682405D01*
X224020023Y-65532405D01*
X224039655Y-65289094D01*
X224096493Y-65058284D01*
X224187448Y-64843063D01*
X224309432Y-64646519D01*
X224459358Y-64471740D01*
X224634137Y-64321814D01*
X224830681Y-64199830D01*
X225045902Y-64108875D01*
X225276712Y-64052037D01*
X225520023Y-64032405D01*
X225763334Y-64052037D01*
G37*
G36*
X225763334Y-66602037D02*
G01*
X225994144Y-66658875D01*
X226209365Y-66749830D01*
X226405909Y-66871814D01*
X226580688Y-67021740D01*
X226730613Y-67196519D01*
X226852598Y-67393063D01*
X226943553Y-67608284D01*
X227000391Y-67839094D01*
X227020023Y-68082405D01*
X227012523Y-68232405D01*
X226562523Y-68232405D01*
X226570023Y-68082405D01*
X226542398Y-67842517D01*
X226463236Y-67620771D01*
X226338228Y-67424242D01*
X226173063Y-67260005D01*
X225973431Y-67135134D01*
X225745023Y-67056705D01*
X225745023Y-67932405D01*
X225295023Y-67932405D01*
X225295023Y-67056705D01*
X225066615Y-67135134D01*
X224866983Y-67260005D01*
X224701818Y-67424242D01*
X224576810Y-67620771D01*
X224497648Y-67842517D01*
X224470023Y-68082405D01*
X224477523Y-68232405D01*
X224027523Y-68232405D01*
X224020023Y-68082405D01*
X224039655Y-67839094D01*
X224096493Y-67608284D01*
X224187448Y-67393063D01*
X224309432Y-67196519D01*
X224459358Y-67021740D01*
X224634137Y-66871814D01*
X224830681Y-66749830D01*
X225045902Y-66658875D01*
X225276712Y-66602037D01*
X225520023Y-66582405D01*
X225763334Y-66602037D01*
G37*
%TO.C,rohs-symbol_mask_3mm*%
G36*
X226627074Y-75272921D02*
G01*
X226491117Y-75273830D01*
X226355056Y-75274843D01*
X226355056Y-75487922D01*
X226491117Y-75488935D01*
X226627074Y-75489948D01*
X226627074Y-75562187D01*
X226060180Y-75562187D01*
X226060180Y-75489844D01*
X226292247Y-75489844D01*
X226292247Y-75273025D01*
X226060180Y-75273025D01*
X226060180Y-75200656D01*
X226343679Y-75200656D01*
X226627074Y-75200656D01*
X226627074Y-75272921D01*
G37*
G36*
X226623723Y-74984746D02*
G01*
X226457427Y-75090571D01*
X226280662Y-75065504D01*
X226214216Y-75004825D01*
X226219259Y-74912403D01*
X226249725Y-74912403D01*
X226332224Y-75013059D01*
X226500339Y-75011319D01*
X226568837Y-74960900D01*
X226578084Y-74886713D01*
X226525509Y-74822501D01*
X226298013Y-74825644D01*
X226249725Y-74912403D01*
X226219259Y-74912403D01*
X226225177Y-74803928D01*
X226434100Y-74733716D01*
X226585773Y-74784940D01*
X226627594Y-74849983D01*
X226626539Y-74886713D01*
X226623723Y-74984746D01*
G37*
G36*
X226317703Y-75711859D02*
G01*
X226370070Y-75837582D01*
X226415320Y-75941588D01*
X226523483Y-75950706D01*
X226576376Y-75860008D01*
X226546004Y-75717236D01*
X226526133Y-75676350D01*
X226603229Y-75676350D01*
X226613697Y-75707703D01*
X226628996Y-75763810D01*
X226629204Y-75905067D01*
X226547640Y-76015957D01*
X226473064Y-76028244D01*
X226400696Y-76017593D01*
X226301260Y-75857661D01*
X226252270Y-75752355D01*
X226175460Y-75745030D01*
X226112813Y-75827120D01*
X226137094Y-75968473D01*
X226150887Y-75996891D01*
X226115975Y-75999722D01*
X226079765Y-75999722D01*
X226071947Y-75975980D01*
X226052153Y-75855141D01*
X226100754Y-75717859D01*
X226211440Y-75670187D01*
X226317703Y-75711859D01*
G37*
G36*
X226383656Y-74374004D02*
G01*
X226432152Y-74500947D01*
X226539510Y-74556146D01*
X226627074Y-74597447D01*
X226627074Y-74675478D01*
X226550056Y-74637112D01*
X226367213Y-74515156D01*
X226358095Y-74495882D01*
X226353420Y-74514351D01*
X226196448Y-74610825D01*
X226082804Y-74532508D01*
X226061193Y-74370263D01*
X226060684Y-74340729D01*
X226121067Y-74340729D01*
X226121067Y-74391875D01*
X226125223Y-74462477D01*
X226170680Y-74523364D01*
X226225671Y-74532897D01*
X226281675Y-74522351D01*
X226322379Y-74457022D01*
X226326535Y-74387615D01*
X226326535Y-74340729D01*
X226121067Y-74340729D01*
X226060684Y-74340729D01*
X226059374Y-74264620D01*
X226343263Y-74264620D01*
X226627074Y-74264620D01*
X226627074Y-74340729D01*
X226383552Y-74340729D01*
X226383656Y-74374004D01*
G37*
G36*
X225648931Y-74602097D02*
G01*
X225791902Y-74754315D01*
X225894042Y-74843710D01*
X226044049Y-74945886D01*
X226067790Y-74989603D01*
X225986512Y-75031216D01*
X225802018Y-75127958D01*
X225619152Y-75241560D01*
X225417877Y-75384435D01*
X225270351Y-75505498D01*
X225134690Y-75651907D01*
X225003486Y-75690143D01*
X224726481Y-75684504D01*
X224541949Y-75694571D01*
X224525189Y-75652708D01*
X224574682Y-75587172D01*
X224708843Y-75457686D01*
X224845982Y-75362414D01*
X225028241Y-75253231D01*
X225210922Y-75157968D01*
X225391616Y-75071998D01*
X225593941Y-74968823D01*
X225573939Y-74928015D01*
X225473407Y-74880895D01*
X225306987Y-74807591D01*
X225260308Y-74787694D01*
X225260308Y-74771251D01*
X225343924Y-74642074D01*
X225509805Y-74453671D01*
X225648931Y-74602097D01*
G37*
G36*
X224525189Y-75652708D02*
G01*
X224508336Y-75675025D01*
X224523766Y-75649153D01*
X224525189Y-75652708D01*
G37*
G36*
X227124977Y-75118884D02*
G01*
X227119026Y-75272940D01*
X227096768Y-75421346D01*
X227026600Y-75662574D01*
X226918161Y-75886474D01*
X226775084Y-76088705D01*
X226601000Y-76264929D01*
X226399543Y-76410804D01*
X226174343Y-76521991D01*
X225949038Y-76590330D01*
X225716715Y-76622595D01*
X225482035Y-76618506D01*
X225249658Y-76577786D01*
X225020215Y-76498131D01*
X224809520Y-76384068D01*
X224620923Y-76239131D01*
X224457774Y-76066856D01*
X224323424Y-75870777D01*
X224221223Y-75654429D01*
X224154521Y-75421346D01*
X224126780Y-75196086D01*
X224127534Y-75167370D01*
X224249731Y-75167370D01*
X224274575Y-75392820D01*
X224336948Y-75615463D01*
X224395014Y-75745257D01*
X224463580Y-75869636D01*
X224604492Y-76055283D01*
X224770574Y-76212658D01*
X224959490Y-76339895D01*
X225168900Y-76435128D01*
X225377305Y-76491865D01*
X225590235Y-76515397D01*
X225803364Y-76506240D01*
X226012367Y-76464909D01*
X226212919Y-76391922D01*
X226400696Y-76287793D01*
X226595377Y-76132145D01*
X226757560Y-75947247D01*
X226884218Y-75738116D01*
X226972321Y-75509772D01*
X227018841Y-75267232D01*
X227022607Y-75029502D01*
X226980647Y-74778248D01*
X226896920Y-74544077D01*
X226772764Y-74329870D01*
X226609515Y-74138508D01*
X226469194Y-74017357D01*
X226288579Y-73902506D01*
X226093061Y-73816732D01*
X225888895Y-73762768D01*
X225662898Y-73740430D01*
X225440008Y-73754211D01*
X225224059Y-73802920D01*
X225018881Y-73885368D01*
X224828306Y-74000364D01*
X224656164Y-74146716D01*
X224507199Y-74322468D01*
X224391150Y-74516659D01*
X224308941Y-74725040D01*
X224261494Y-74943359D01*
X224249731Y-75167370D01*
X224127534Y-75167370D01*
X224132675Y-74971690D01*
X224171864Y-74751536D01*
X224244007Y-74539002D01*
X224362970Y-74314568D01*
X224515674Y-74115770D01*
X224697810Y-73946005D01*
X224905069Y-73808668D01*
X225133141Y-73707155D01*
X225377719Y-73644865D01*
X225630151Y-73627409D01*
X225817670Y-73636033D01*
X226051273Y-73685985D01*
X226266138Y-73767755D01*
X226467271Y-73883322D01*
X226661395Y-74039872D01*
X226825675Y-74224426D01*
X226957172Y-74433063D01*
X227052947Y-74661867D01*
X227096982Y-74829586D01*
X227123055Y-75021891D01*
X227123206Y-75029502D01*
X227124977Y-75118884D01*
G37*
%TD*%
D12*
%TO.C,reistor_led1*%
X190000000Y-93830000D03*
D13*
X190000000Y-83670000D03*
%TD*%
D14*
%TO.C,REF\u002A\u002A*%
X154250000Y-95750000D03*
%TD*%
%TO.C,REF\u002A\u002A*%
X226000000Y-96000000D03*
%TD*%
D15*
%TO.C,push_button*%
X182500000Y-55000000D03*
X197500000Y-55000000D03*
%TD*%
D16*
%TO.C,motor2*%
X220000000Y-67480000D03*
D17*
X220000000Y-71290000D03*
%TD*%
D12*
%TO.C,resistor2*%
X208000000Y-93830000D03*
D13*
X208000000Y-83670000D03*
%TD*%
D16*
%TO.C,motor1*%
X160000000Y-67330000D03*
D17*
X160000000Y-71140000D03*
%TD*%
D18*
%TO.C,transistor2*%
X222504000Y-81534000D03*
D19*
X219964000Y-81534000D03*
X217424000Y-81534000D03*
%TD*%
D12*
%TO.C,resistor1*%
X172500000Y-93750000D03*
D13*
X172500000Y-83590000D03*
%TD*%
D14*
%TO.C,REF\u002A\u002A*%
X226000000Y-54250000D03*
%TD*%
%TO.C,REF\u002A\u002A*%
X154250000Y-54250000D03*
%TD*%
D16*
%TO.C,battery*%
X215750000Y-55000000D03*
D17*
X219560000Y-55000000D03*
%TD*%
D20*
%TO.C,led1*%
X190000000Y-80025000D03*
D21*
X190000000Y-77485000D03*
%TD*%
D18*
%TO.C,transistor1*%
X162540000Y-81500000D03*
D19*
X160000000Y-81500000D03*
X157460000Y-81500000D03*
%TD*%
D12*
%TO.C,light_sensor1*%
X172500000Y-74250000D03*
X172500000Y-77250000D03*
%TD*%
%TO.C,light_sensor2*%
X208000000Y-74250000D03*
X208000000Y-77250000D03*
%TD*%
M02*
