%TF.GenerationSoftware,KiCad,Pcbnew,8.0.6*%
%TF.CreationDate,2024-11-17T18:19:46+01:00*%
%TF.ProjectId,MakerBot,4d616b65-7242-46f7-942e-6b696361645f,rev?*%
%TF.SameCoordinates,Original*%
%TF.FileFunction,Copper,L2,Bot*%
%TF.FilePolarity,Positive*%
%FSLAX46Y46*%
G04 Gerber Fmt 4.6, Leading zero omitted, Abs format (unit mm)*
G04 Created by KiCad (PCBNEW 8.0.6) date 2024-11-17 18:19:46*
%MOMM*%
%LPD*%
G01*
G04 APERTURE LIST*
%TA.AperFunction,ComponentPad*%
%ADD10C,1.600000*%
%TD*%
%TA.AperFunction,ComponentPad*%
%ADD11O,1.600000X1.600000*%
%TD*%
%TA.AperFunction,ComponentPad*%
%ADD12O,1.500000X3.400000*%
%TD*%
%TA.AperFunction,ComponentPad*%
%ADD13R,1.700000X1.700000*%
%TD*%
%TA.AperFunction,ComponentPad*%
%ADD14O,1.700000X1.700000*%
%TD*%
%TA.AperFunction,ComponentPad*%
%ADD15R,1.905000X2.000000*%
%TD*%
%TA.AperFunction,ComponentPad*%
%ADD16O,1.905000X2.000000*%
%TD*%
%TA.AperFunction,ComponentPad*%
%ADD17R,1.800000X1.800000*%
%TD*%
%TA.AperFunction,ComponentPad*%
%ADD18C,1.800000*%
%TD*%
%TA.AperFunction,Conductor*%
%ADD19C,1.000000*%
%TD*%
%TA.AperFunction,Conductor*%
%ADD20C,0.250000*%
%TD*%
G04 APERTURE END LIST*
D10*
%TO.P,reistor_led1,1*%
%TO.N,GND*%
X190000000Y-93830000D03*
D11*
%TO.P,reistor_led1,2*%
%TO.N,Net-(led1-K)*%
X190000000Y-83670000D03*
%TD*%
D12*
%TO.P,push_button,1*%
%TO.N,VCC*%
X182500000Y-55000000D03*
%TO.P,push_button,2*%
%TO.N,+6V*%
X197500000Y-55000000D03*
%TD*%
D13*
%TO.P,motor2,1,+*%
%TO.N,VCC*%
X220000000Y-67480000D03*
D14*
%TO.P,motor2,2,-*%
%TO.N,Net-(motor2--)*%
X220000000Y-71290000D03*
%TD*%
D10*
%TO.P,resistor2,1*%
%TO.N,GND*%
X208000000Y-93830000D03*
D11*
%TO.P,resistor2,2*%
%TO.N,Net-(transistor2-G)*%
X208000000Y-83670000D03*
%TD*%
D13*
%TO.P,motor1,1,+*%
%TO.N,VCC*%
X160000000Y-67330000D03*
D14*
%TO.P,motor1,2,-*%
%TO.N,Net-(motor1--)*%
X160000000Y-71140000D03*
%TD*%
D15*
%TO.P,transistor2,1,G*%
%TO.N,Net-(transistor2-G)*%
X222504000Y-81534000D03*
D16*
%TO.P,transistor2,2,D*%
%TO.N,Net-(motor2--)*%
X219964000Y-81534000D03*
%TO.P,transistor2,3,S*%
%TO.N,GND*%
X217424000Y-81534000D03*
%TD*%
D10*
%TO.P,resistor1,1*%
%TO.N,GND*%
X172500000Y-93750000D03*
D11*
%TO.P,resistor1,2*%
%TO.N,Net-(transistor1-G)*%
X172500000Y-83590000D03*
%TD*%
D13*
%TO.P,battery,1,+*%
%TO.N,+6V*%
X215750000Y-55000000D03*
D14*
%TO.P,battery,2,-*%
%TO.N,GND*%
X219560000Y-55000000D03*
%TD*%
D17*
%TO.P,led1,1,K*%
%TO.N,Net-(led1-K)*%
X190000000Y-80025000D03*
D18*
%TO.P,led1,2,A*%
%TO.N,VCC*%
X190000000Y-77485000D03*
%TD*%
D15*
%TO.P,transistor1,1,G*%
%TO.N,Net-(transistor1-G)*%
X162540000Y-81500000D03*
D16*
%TO.P,transistor1,2,D*%
%TO.N,Net-(motor1--)*%
X160000000Y-81500000D03*
%TO.P,transistor1,3,S*%
%TO.N,GND*%
X157460000Y-81500000D03*
%TD*%
D10*
%TO.P,light_sensor1,1*%
%TO.N,VCC*%
X172500000Y-74250000D03*
%TO.P,light_sensor1,2*%
%TO.N,Net-(transistor1-G)*%
X172500000Y-77250000D03*
%TD*%
%TO.P,light_sensor2,1*%
%TO.N,VCC*%
X208000000Y-74250000D03*
%TO.P,light_sensor2,2*%
%TO.N,Net-(transistor2-G)*%
X208000000Y-77250000D03*
%TD*%
D19*
%TO.N,+6V*%
X197500000Y-55000000D02*
X215750000Y-55000000D01*
D20*
X197810000Y-54190000D02*
X197750000Y-54250000D01*
D19*
%TO.N,Net-(transistor2-G)*%
X208000000Y-83670000D02*
X208000000Y-80500000D01*
X208000000Y-80500000D02*
X208000000Y-77250000D01*
X208500000Y-80500000D02*
X208000000Y-80500000D01*
X222504000Y-84246000D02*
X220750000Y-86000000D01*
X220750000Y-86000000D02*
X214000000Y-86000000D01*
X214000000Y-86000000D02*
X208500000Y-80500000D01*
X222504000Y-81695000D02*
X222504000Y-84246000D01*
%TO.N,Net-(transistor1-G)*%
X170340000Y-83590000D02*
X168250000Y-81500000D01*
X172500000Y-77250000D02*
X172500000Y-77750000D01*
X172500000Y-83590000D02*
X170340000Y-83590000D01*
X168250000Y-81500000D02*
X172500000Y-77250000D01*
X162540000Y-81500000D02*
X168250000Y-81500000D01*
%TO.N,Net-(motor1--)*%
X160000000Y-80750000D02*
X160000000Y-71140000D01*
%TO.N,Net-(motor2--)*%
X220000000Y-81695000D02*
X220000000Y-71290000D01*
%TO.N,Net-(led1-K)*%
X190000000Y-83670000D02*
X190000000Y-80025000D01*
%TD*%
%TA.AperFunction,Conductor*%
%TO.N,VCC*%
G36*
X225002702Y-50100617D02*
G01*
X225421634Y-50118908D01*
X225432369Y-50119848D01*
X225845430Y-50174228D01*
X225856056Y-50176101D01*
X226262816Y-50266278D01*
X226273228Y-50269067D01*
X226670582Y-50394353D01*
X226680717Y-50398042D01*
X227065625Y-50557477D01*
X227075416Y-50562043D01*
X227176472Y-50614649D01*
X227444942Y-50754406D01*
X227454310Y-50759814D01*
X227805675Y-50983658D01*
X227814536Y-50989863D01*
X228145045Y-51243471D01*
X228153332Y-51250425D01*
X228460478Y-51531872D01*
X228468127Y-51539521D01*
X228749574Y-51846667D01*
X228756528Y-51854954D01*
X229010136Y-52185463D01*
X229016341Y-52194324D01*
X229240185Y-52545689D01*
X229245593Y-52555057D01*
X229437953Y-52924576D01*
X229442525Y-52934380D01*
X229601951Y-53319267D01*
X229605650Y-53329430D01*
X229680525Y-53566903D01*
X229730926Y-53726752D01*
X229733726Y-53737202D01*
X229823895Y-54143930D01*
X229825773Y-54154583D01*
X229880149Y-54567610D01*
X229881092Y-54578386D01*
X229899382Y-54997297D01*
X229899500Y-55002706D01*
X229899500Y-94997293D01*
X229899382Y-95002702D01*
X229881092Y-95421613D01*
X229880149Y-95432389D01*
X229825773Y-95845416D01*
X229823895Y-95856069D01*
X229733726Y-96262797D01*
X229730926Y-96273247D01*
X229605651Y-96670567D01*
X229601951Y-96680732D01*
X229442525Y-97065619D01*
X229437953Y-97075423D01*
X229245593Y-97444942D01*
X229240185Y-97454310D01*
X229016341Y-97805675D01*
X229010136Y-97814536D01*
X228756528Y-98145045D01*
X228749574Y-98153332D01*
X228468127Y-98460478D01*
X228460478Y-98468127D01*
X228153332Y-98749574D01*
X228145045Y-98756528D01*
X227814536Y-99010136D01*
X227805675Y-99016341D01*
X227454310Y-99240185D01*
X227444942Y-99245593D01*
X227075423Y-99437953D01*
X227065619Y-99442525D01*
X226680732Y-99601951D01*
X226670567Y-99605651D01*
X226273247Y-99730926D01*
X226262797Y-99733726D01*
X225856069Y-99823895D01*
X225845416Y-99825773D01*
X225432389Y-99880149D01*
X225421613Y-99881092D01*
X225002703Y-99899382D01*
X224997294Y-99899500D01*
X155002706Y-99899500D01*
X154997297Y-99899382D01*
X154578386Y-99881092D01*
X154567610Y-99880149D01*
X154154583Y-99825773D01*
X154143930Y-99823895D01*
X153836064Y-99755643D01*
X153737199Y-99733725D01*
X153726756Y-99730927D01*
X153329430Y-99605650D01*
X153319267Y-99601951D01*
X152934380Y-99442525D01*
X152924576Y-99437953D01*
X152555057Y-99245593D01*
X152545689Y-99240185D01*
X152194324Y-99016341D01*
X152185463Y-99010136D01*
X151854954Y-98756528D01*
X151846667Y-98749574D01*
X151539521Y-98468127D01*
X151531872Y-98460478D01*
X151250425Y-98153332D01*
X151243471Y-98145045D01*
X150989863Y-97814536D01*
X150983658Y-97805675D01*
X150759814Y-97454310D01*
X150754406Y-97444942D01*
X150562043Y-97075416D01*
X150557474Y-97065619D01*
X150398042Y-96680717D01*
X150394353Y-96670582D01*
X150269067Y-96273228D01*
X150266278Y-96262816D01*
X150176101Y-95856056D01*
X150174228Y-95845430D01*
X150147672Y-95643713D01*
X152899500Y-95643713D01*
X152899500Y-95856286D01*
X152929800Y-96047596D01*
X152932754Y-96066243D01*
X152998336Y-96268084D01*
X152998444Y-96268414D01*
X153094951Y-96457820D01*
X153219890Y-96629786D01*
X153370213Y-96780109D01*
X153542179Y-96905048D01*
X153542181Y-96905049D01*
X153542184Y-96905051D01*
X153731588Y-97001557D01*
X153933757Y-97067246D01*
X154143713Y-97100500D01*
X154143714Y-97100500D01*
X154356286Y-97100500D01*
X154356287Y-97100500D01*
X154566243Y-97067246D01*
X154768412Y-97001557D01*
X154957816Y-96905051D01*
X155025800Y-96855658D01*
X155129786Y-96780109D01*
X155129788Y-96780106D01*
X155129792Y-96780104D01*
X155280104Y-96629792D01*
X155280106Y-96629788D01*
X155280109Y-96629786D01*
X155405048Y-96457820D01*
X155405047Y-96457820D01*
X155405051Y-96457816D01*
X155501557Y-96268412D01*
X155567246Y-96066243D01*
X155594572Y-95893713D01*
X224649500Y-95893713D01*
X224649500Y-96106286D01*
X224675178Y-96268414D01*
X224682754Y-96316243D01*
X224728755Y-96457820D01*
X224748444Y-96518414D01*
X224844951Y-96707820D01*
X224969890Y-96879786D01*
X225120213Y-97030109D01*
X225292179Y-97155048D01*
X225292181Y-97155049D01*
X225292184Y-97155051D01*
X225481588Y-97251557D01*
X225683757Y-97317246D01*
X225893713Y-97350500D01*
X225893714Y-97350500D01*
X226106286Y-97350500D01*
X226106287Y-97350500D01*
X226316243Y-97317246D01*
X226518412Y-97251557D01*
X226707816Y-97155051D01*
X226782900Y-97100500D01*
X226879786Y-97030109D01*
X226879788Y-97030106D01*
X226879792Y-97030104D01*
X227030104Y-96879792D01*
X227030106Y-96879788D01*
X227030109Y-96879786D01*
X227155048Y-96707820D01*
X227155047Y-96707820D01*
X227155051Y-96707816D01*
X227251557Y-96518412D01*
X227317246Y-96316243D01*
X227350500Y-96106287D01*
X227350500Y-95893713D01*
X227317246Y-95683757D01*
X227251557Y-95481588D01*
X227155051Y-95292184D01*
X227155049Y-95292181D01*
X227155048Y-95292179D01*
X227030109Y-95120213D01*
X226879786Y-94969890D01*
X226707820Y-94844951D01*
X226518414Y-94748444D01*
X226518413Y-94748443D01*
X226518412Y-94748443D01*
X226316243Y-94682754D01*
X226316241Y-94682753D01*
X226316240Y-94682753D01*
X226154957Y-94657208D01*
X226106287Y-94649500D01*
X225893713Y-94649500D01*
X225845042Y-94657208D01*
X225683760Y-94682753D01*
X225481585Y-94748444D01*
X225292179Y-94844951D01*
X225120213Y-94969890D01*
X224969890Y-95120213D01*
X224844951Y-95292179D01*
X224748444Y-95481585D01*
X224682753Y-95683760D01*
X224649500Y-95893713D01*
X155594572Y-95893713D01*
X155600500Y-95856287D01*
X155600500Y-95643713D01*
X155567246Y-95433757D01*
X155501557Y-95231588D01*
X155405051Y-95042184D01*
X155405049Y-95042181D01*
X155405048Y-95042179D01*
X155280109Y-94870213D01*
X155129786Y-94719890D01*
X154957820Y-94594951D01*
X154768414Y-94498444D01*
X154768413Y-94498443D01*
X154768412Y-94498443D01*
X154566243Y-94432754D01*
X154566241Y-94432753D01*
X154566240Y-94432753D01*
X154402030Y-94406745D01*
X154356287Y-94399500D01*
X154143713Y-94399500D01*
X154097970Y-94406745D01*
X153933760Y-94432753D01*
X153731585Y-94498444D01*
X153542179Y-94594951D01*
X153370213Y-94719890D01*
X153219890Y-94870213D01*
X153094951Y-95042179D01*
X152998444Y-95231585D01*
X152932753Y-95433760D01*
X152899500Y-95643713D01*
X150147672Y-95643713D01*
X150119848Y-95432369D01*
X150118908Y-95421632D01*
X150100618Y-95002701D01*
X150100500Y-94997293D01*
X150100500Y-93749998D01*
X171186502Y-93749998D01*
X171186502Y-93750001D01*
X171206456Y-93978081D01*
X171206457Y-93978089D01*
X171265714Y-94199238D01*
X171265718Y-94199249D01*
X171303020Y-94279243D01*
X171362477Y-94406749D01*
X171493802Y-94594300D01*
X171655700Y-94756198D01*
X171843251Y-94887523D01*
X171968091Y-94945736D01*
X172050750Y-94984281D01*
X172050752Y-94984281D01*
X172050757Y-94984284D01*
X172271913Y-95043543D01*
X172434832Y-95057796D01*
X172499998Y-95063498D01*
X172500000Y-95063498D01*
X172500002Y-95063498D01*
X172557021Y-95058509D01*
X172728087Y-95043543D01*
X172949243Y-94984284D01*
X173156749Y-94887523D01*
X173344300Y-94756198D01*
X173506198Y-94594300D01*
X173637523Y-94406749D01*
X173734284Y-94199243D01*
X173793543Y-93978087D01*
X173806499Y-93829998D01*
X188686502Y-93829998D01*
X188686502Y-93830001D01*
X188706456Y-94058081D01*
X188706457Y-94058089D01*
X188765714Y-94279238D01*
X188765718Y-94279249D01*
X188837298Y-94432753D01*
X188862477Y-94486749D01*
X188993802Y-94674300D01*
X189155700Y-94836198D01*
X189343251Y-94967523D01*
X189412899Y-95000000D01*
X189550750Y-95064281D01*
X189550752Y-95064281D01*
X189550757Y-95064284D01*
X189771913Y-95123543D01*
X189934832Y-95137796D01*
X189999998Y-95143498D01*
X190000000Y-95143498D01*
X190000002Y-95143498D01*
X190057021Y-95138509D01*
X190228087Y-95123543D01*
X190449243Y-95064284D01*
X190656749Y-94967523D01*
X190844300Y-94836198D01*
X191006198Y-94674300D01*
X191137523Y-94486749D01*
X191234284Y-94279243D01*
X191293543Y-94058087D01*
X191313498Y-93830000D01*
X191313498Y-93829998D01*
X206686502Y-93829998D01*
X206686502Y-93830001D01*
X206706456Y-94058081D01*
X206706457Y-94058089D01*
X206765714Y-94279238D01*
X206765718Y-94279249D01*
X206837298Y-94432753D01*
X206862477Y-94486749D01*
X206993802Y-94674300D01*
X207155700Y-94836198D01*
X207343251Y-94967523D01*
X207412899Y-95000000D01*
X207550750Y-95064281D01*
X207550752Y-95064281D01*
X207550757Y-95064284D01*
X207771913Y-95123543D01*
X207934832Y-95137796D01*
X207999998Y-95143498D01*
X208000000Y-95143498D01*
X208000002Y-95143498D01*
X208057021Y-95138509D01*
X208228087Y-95123543D01*
X208449243Y-95064284D01*
X208656749Y-94967523D01*
X208844300Y-94836198D01*
X209006198Y-94674300D01*
X209137523Y-94486749D01*
X209234284Y-94279243D01*
X209293543Y-94058087D01*
X209313498Y-93830000D01*
X209293543Y-93601913D01*
X209234284Y-93380757D01*
X209196981Y-93300761D01*
X209137524Y-93173254D01*
X209137523Y-93173252D01*
X209137523Y-93173251D01*
X209006198Y-92985700D01*
X208844300Y-92823802D01*
X208656749Y-92692477D01*
X208656745Y-92692475D01*
X208449249Y-92595718D01*
X208449238Y-92595714D01*
X208228089Y-92536457D01*
X208228081Y-92536456D01*
X208000002Y-92516502D01*
X207999998Y-92516502D01*
X207771918Y-92536456D01*
X207771910Y-92536457D01*
X207550761Y-92595714D01*
X207550750Y-92595718D01*
X207343254Y-92692475D01*
X207343252Y-92692476D01*
X207343251Y-92692477D01*
X207155700Y-92823802D01*
X207155698Y-92823803D01*
X207155695Y-92823806D01*
X206993806Y-92985695D01*
X206862476Y-93173252D01*
X206862475Y-93173254D01*
X206765718Y-93380750D01*
X206765714Y-93380761D01*
X206706457Y-93601910D01*
X206706456Y-93601918D01*
X206686502Y-93829998D01*
X191313498Y-93829998D01*
X191293543Y-93601913D01*
X191234284Y-93380757D01*
X191196981Y-93300761D01*
X191137524Y-93173254D01*
X191137523Y-93173252D01*
X191137523Y-93173251D01*
X191006198Y-92985700D01*
X190844300Y-92823802D01*
X190656749Y-92692477D01*
X190656745Y-92692475D01*
X190449249Y-92595718D01*
X190449238Y-92595714D01*
X190228089Y-92536457D01*
X190228081Y-92536456D01*
X190000002Y-92516502D01*
X189999998Y-92516502D01*
X189771918Y-92536456D01*
X189771910Y-92536457D01*
X189550761Y-92595714D01*
X189550750Y-92595718D01*
X189343254Y-92692475D01*
X189343252Y-92692476D01*
X189343251Y-92692477D01*
X189155700Y-92823802D01*
X189155698Y-92823803D01*
X189155695Y-92823806D01*
X188993806Y-92985695D01*
X188862476Y-93173252D01*
X188862475Y-93173254D01*
X188765718Y-93380750D01*
X188765714Y-93380761D01*
X188706457Y-93601910D01*
X188706456Y-93601918D01*
X188686502Y-93829998D01*
X173806499Y-93829998D01*
X173813498Y-93750000D01*
X173793543Y-93521913D01*
X173734284Y-93300757D01*
X173637523Y-93093251D01*
X173506198Y-92905700D01*
X173344300Y-92743802D01*
X173156749Y-92612477D01*
X173156745Y-92612475D01*
X172949249Y-92515718D01*
X172949238Y-92515714D01*
X172728089Y-92456457D01*
X172728081Y-92456456D01*
X172500002Y-92436502D01*
X172499998Y-92436502D01*
X172271918Y-92456456D01*
X172271910Y-92456457D01*
X172050761Y-92515714D01*
X172050750Y-92515718D01*
X171843254Y-92612475D01*
X171843252Y-92612476D01*
X171843251Y-92612477D01*
X171655700Y-92743802D01*
X171655698Y-92743803D01*
X171655695Y-92743806D01*
X171493806Y-92905695D01*
X171362476Y-93093252D01*
X171362475Y-93093254D01*
X171265718Y-93300750D01*
X171265714Y-93300761D01*
X171206457Y-93521910D01*
X171206456Y-93521918D01*
X171186502Y-93749998D01*
X150100500Y-93749998D01*
X150100500Y-81337511D01*
X155999000Y-81337511D01*
X155999000Y-81662488D01*
X156034973Y-81889618D01*
X156106039Y-82108333D01*
X156191726Y-82276502D01*
X156210440Y-82313231D01*
X156345611Y-82499278D01*
X156508222Y-82661889D01*
X156694269Y-82797060D01*
X156791078Y-82846386D01*
X156899166Y-82901460D01*
X156899168Y-82901460D01*
X156899171Y-82901462D01*
X156997007Y-82933251D01*
X157117881Y-82972526D01*
X157345012Y-83008500D01*
X157345017Y-83008500D01*
X157574988Y-83008500D01*
X157802118Y-82972526D01*
X157868712Y-82950888D01*
X158020829Y-82901462D01*
X158225731Y-82797060D01*
X158411778Y-82661889D01*
X158574389Y-82499278D01*
X158629683Y-82423172D01*
X158685012Y-82380508D01*
X158754625Y-82374529D01*
X158816420Y-82407135D01*
X158830314Y-82423169D01*
X158885611Y-82499278D01*
X159048222Y-82661889D01*
X159234269Y-82797060D01*
X159331078Y-82846386D01*
X159439166Y-82901460D01*
X159439168Y-82901460D01*
X159439171Y-82901462D01*
X159537007Y-82933251D01*
X159657881Y-82972526D01*
X159885012Y-83008500D01*
X159885017Y-83008500D01*
X160114988Y-83008500D01*
X160342118Y-82972526D01*
X160408712Y-82950888D01*
X160560829Y-82901462D01*
X160765731Y-82797060D01*
X160940428Y-82670134D01*
X161006231Y-82646656D01*
X161074285Y-82662481D01*
X161122980Y-82712587D01*
X161129491Y-82727117D01*
X161136610Y-82746203D01*
X161147775Y-82761117D01*
X161224239Y-82863261D01*
X161341296Y-82950889D01*
X161478299Y-83001989D01*
X161505550Y-83004918D01*
X161538845Y-83008499D01*
X161538862Y-83008500D01*
X163541138Y-83008500D01*
X163541154Y-83008499D01*
X163568192Y-83005591D01*
X163601701Y-83001989D01*
X163738704Y-82950889D01*
X163855761Y-82863261D01*
X163943389Y-82746204D01*
X163994489Y-82609201D01*
X163994489Y-82609195D01*
X163995720Y-82603992D01*
X164030290Y-82543274D01*
X164092198Y-82510884D01*
X164116398Y-82508500D01*
X167780904Y-82508500D01*
X167847943Y-82528185D01*
X167868585Y-82544819D01*
X169556647Y-84232881D01*
X169650511Y-84326745D01*
X169697120Y-84373354D01*
X169862289Y-84483717D01*
X169862295Y-84483720D01*
X169862296Y-84483721D01*
X170045831Y-84559744D01*
X170229073Y-84596193D01*
X170240666Y-84598499D01*
X170240670Y-84598500D01*
X170240671Y-84598500D01*
X171619890Y-84598500D01*
X171686929Y-84618185D01*
X171691015Y-84620925D01*
X171843251Y-84727523D01*
X171968091Y-84785736D01*
X172050750Y-84824281D01*
X172050752Y-84824281D01*
X172050757Y-84824284D01*
X172271913Y-84883543D01*
X172434832Y-84897796D01*
X172499998Y-84903498D01*
X172500000Y-84903498D01*
X172500002Y-84903498D01*
X172557021Y-84898509D01*
X172728087Y-84883543D01*
X172949243Y-84824284D01*
X173156749Y-84727523D01*
X173344300Y-84596198D01*
X173506198Y-84434300D01*
X173637523Y-84246749D01*
X173734284Y-84039243D01*
X173793543Y-83818087D01*
X173813498Y-83590000D01*
X173793543Y-83361913D01*
X173734284Y-83140757D01*
X173637523Y-82933251D01*
X173506198Y-82745700D01*
X173344300Y-82583802D01*
X173156749Y-82452477D01*
X173118699Y-82434734D01*
X172949249Y-82355718D01*
X172949238Y-82355714D01*
X172728089Y-82296457D01*
X172728081Y-82296456D01*
X172500002Y-82276502D01*
X172499998Y-82276502D01*
X172271918Y-82296456D01*
X172271910Y-82296457D01*
X172050761Y-82355714D01*
X172050750Y-82355718D01*
X171843254Y-82452475D01*
X171843252Y-82452476D01*
X171691014Y-82559075D01*
X171624807Y-82581402D01*
X171619890Y-82581500D01*
X170809096Y-82581500D01*
X170742057Y-82561815D01*
X170721415Y-82545181D01*
X169763915Y-81587681D01*
X169730430Y-81526358D01*
X169735414Y-81456666D01*
X169763915Y-81412319D01*
X171048809Y-80127426D01*
X172099890Y-79076345D01*
X188591500Y-79076345D01*
X188591500Y-80973654D01*
X188598011Y-81034202D01*
X188598011Y-81034204D01*
X188626425Y-81110382D01*
X188649111Y-81171204D01*
X188736739Y-81288261D01*
X188853796Y-81375889D01*
X188910835Y-81397163D01*
X188966767Y-81439033D01*
X188991184Y-81504498D01*
X188991500Y-81513344D01*
X188991500Y-82789890D01*
X188971815Y-82856929D01*
X188969087Y-82860995D01*
X188906144Y-82950888D01*
X188862476Y-83013252D01*
X188862475Y-83013254D01*
X188765718Y-83220750D01*
X188765714Y-83220761D01*
X188706457Y-83441910D01*
X188706456Y-83441918D01*
X188686502Y-83669998D01*
X188686502Y-83670001D01*
X188706456Y-83898081D01*
X188706457Y-83898089D01*
X188765714Y-84119238D01*
X188765718Y-84119249D01*
X188862475Y-84326745D01*
X188862477Y-84326749D01*
X188993802Y-84514300D01*
X189155700Y-84676198D01*
X189343251Y-84807523D01*
X189468091Y-84865736D01*
X189550750Y-84904281D01*
X189550752Y-84904281D01*
X189550757Y-84904284D01*
X189771913Y-84963543D01*
X189934832Y-84977796D01*
X189999998Y-84983498D01*
X190000000Y-84983498D01*
X190000002Y-84983498D01*
X190057021Y-84978509D01*
X190228087Y-84963543D01*
X190449243Y-84904284D01*
X190656749Y-84807523D01*
X190844300Y-84676198D01*
X191006198Y-84514300D01*
X191137523Y-84326749D01*
X191234284Y-84119243D01*
X191293543Y-83898087D01*
X191313498Y-83670000D01*
X191293543Y-83441913D01*
X191234284Y-83220757D01*
X191196981Y-83140761D01*
X191166264Y-83074887D01*
X191137523Y-83013251D01*
X191030924Y-82861012D01*
X191008598Y-82794807D01*
X191008500Y-82789890D01*
X191008500Y-81513344D01*
X191028185Y-81446305D01*
X191080989Y-81400550D01*
X191089144Y-81397171D01*
X191146204Y-81375889D01*
X191263261Y-81288261D01*
X191350889Y-81171204D01*
X191401989Y-81034201D01*
X191405591Y-81000692D01*
X191408499Y-80973654D01*
X191408500Y-80973637D01*
X191408500Y-79076362D01*
X191408499Y-79076345D01*
X191405157Y-79045270D01*
X191401989Y-79015799D01*
X191350889Y-78878796D01*
X191263261Y-78761739D01*
X191146204Y-78674111D01*
X191009203Y-78623011D01*
X190948654Y-78616500D01*
X190948638Y-78616500D01*
X190829308Y-78616500D01*
X190762269Y-78596815D01*
X190741627Y-78580181D01*
X190088585Y-77927137D01*
X190173694Y-77904333D01*
X190276306Y-77845090D01*
X190360090Y-77761306D01*
X190419333Y-77658694D01*
X190442138Y-77573585D01*
X191151186Y-78282633D01*
X191235482Y-78153611D01*
X191328682Y-77941135D01*
X191385638Y-77716218D01*
X191404798Y-77485005D01*
X191404798Y-77484994D01*
X191385638Y-77253781D01*
X191384680Y-77249998D01*
X206686502Y-77249998D01*
X206686502Y-77250001D01*
X206706456Y-77478081D01*
X206706457Y-77478089D01*
X206765714Y-77699238D01*
X206765718Y-77699249D01*
X206794656Y-77761306D01*
X206862477Y-77906749D01*
X206969075Y-78058986D01*
X206991402Y-78125191D01*
X206991500Y-78130109D01*
X206991500Y-82789890D01*
X206971815Y-82856929D01*
X206969087Y-82860995D01*
X206906144Y-82950888D01*
X206862476Y-83013252D01*
X206862475Y-83013254D01*
X206765718Y-83220750D01*
X206765714Y-83220761D01*
X206706457Y-83441910D01*
X206706456Y-83441918D01*
X206686502Y-83669998D01*
X206686502Y-83670001D01*
X206706456Y-83898081D01*
X206706457Y-83898089D01*
X206765714Y-84119238D01*
X206765718Y-84119249D01*
X206862475Y-84326745D01*
X206862477Y-84326749D01*
X206993802Y-84514300D01*
X207155700Y-84676198D01*
X207343251Y-84807523D01*
X207468091Y-84865736D01*
X207550750Y-84904281D01*
X207550752Y-84904281D01*
X207550757Y-84904284D01*
X207771913Y-84963543D01*
X207934832Y-84977796D01*
X207999998Y-84983498D01*
X208000000Y-84983498D01*
X208000002Y-84983498D01*
X208057021Y-84978509D01*
X208228087Y-84963543D01*
X208449243Y-84904284D01*
X208656749Y-84807523D01*
X208844300Y-84676198D01*
X209006198Y-84514300D01*
X209137523Y-84326749D01*
X209234284Y-84119243D01*
X209293543Y-83898087D01*
X209313498Y-83670000D01*
X209293543Y-83441913D01*
X209234284Y-83220757D01*
X209196981Y-83140761D01*
X209166264Y-83074887D01*
X209137523Y-83013251D01*
X209030924Y-82861012D01*
X209008598Y-82794807D01*
X209008500Y-82789890D01*
X209008500Y-82734096D01*
X209028185Y-82667057D01*
X209080989Y-82621302D01*
X209150147Y-82611358D01*
X209213703Y-82640383D01*
X209220181Y-82646415D01*
X213357115Y-86783351D01*
X213357123Y-86783357D01*
X213522286Y-86893715D01*
X213522289Y-86893716D01*
X213522297Y-86893722D01*
X213629809Y-86938254D01*
X213705831Y-86969744D01*
X213900666Y-87008499D01*
X213900670Y-87008500D01*
X213900671Y-87008500D01*
X220849330Y-87008500D01*
X220849331Y-87008499D01*
X221044169Y-86969744D01*
X221227704Y-86893721D01*
X221392881Y-86783353D01*
X221533353Y-86642881D01*
X221591912Y-86584322D01*
X221591924Y-86584308D01*
X223287354Y-84888881D01*
X223397722Y-84723703D01*
X223463988Y-84563721D01*
X223473744Y-84540169D01*
X223512500Y-84345329D01*
X223512500Y-83141926D01*
X223532185Y-83074887D01*
X223584989Y-83029132D01*
X223593142Y-83025753D01*
X223702704Y-82984889D01*
X223819761Y-82897261D01*
X223907389Y-82780204D01*
X223958489Y-82643201D01*
X223962704Y-82603992D01*
X223964999Y-82582654D01*
X223965000Y-82582637D01*
X223965000Y-80485362D01*
X223964999Y-80485345D01*
X223961345Y-80451362D01*
X223958489Y-80424799D01*
X223956330Y-80419011D01*
X223926156Y-80338111D01*
X223907389Y-80287796D01*
X223819761Y-80170739D01*
X223702704Y-80083111D01*
X223565703Y-80032011D01*
X223505154Y-80025500D01*
X223505138Y-80025500D01*
X221502862Y-80025500D01*
X221502845Y-80025500D01*
X221442297Y-80032011D01*
X221442295Y-80032011D01*
X221305293Y-80083111D01*
X221305293Y-80083112D01*
X221206810Y-80156836D01*
X221141346Y-80181253D01*
X221073073Y-80166401D01*
X221023668Y-80116996D01*
X221008500Y-80057569D01*
X221008500Y-72248674D01*
X221028185Y-72181635D01*
X221041267Y-72164694D01*
X221075722Y-72127268D01*
X221198860Y-71938791D01*
X221289296Y-71732616D01*
X221344564Y-71514368D01*
X221344565Y-71514359D01*
X221363156Y-71290005D01*
X221363156Y-71289994D01*
X221344565Y-71065640D01*
X221344563Y-71065628D01*
X221289296Y-70847385D01*
X221198859Y-70641207D01*
X221075723Y-70452734D01*
X221075715Y-70452723D01*
X220923243Y-70287097D01*
X220923238Y-70287092D01*
X220745577Y-70148812D01*
X220745572Y-70148808D01*
X220547580Y-70041661D01*
X220547577Y-70041659D01*
X220547574Y-70041658D01*
X220547571Y-70041657D01*
X220547569Y-70041656D01*
X220334637Y-69968556D01*
X220112569Y-69931500D01*
X219887431Y-69931500D01*
X219665362Y-69968556D01*
X219452430Y-70041656D01*
X219452419Y-70041661D01*
X219254427Y-70148808D01*
X219254422Y-70148812D01*
X219076761Y-70287092D01*
X219076756Y-70287097D01*
X218924284Y-70452723D01*
X218924276Y-70452734D01*
X218801140Y-70641207D01*
X218710703Y-70847385D01*
X218655436Y-71065628D01*
X218655434Y-71065640D01*
X218636844Y-71289994D01*
X218636844Y-71290005D01*
X218655434Y-71514359D01*
X218655436Y-71514371D01*
X218710703Y-71732614D01*
X218801140Y-71938792D01*
X218861798Y-72031635D01*
X218924278Y-72127268D01*
X218958728Y-72164690D01*
X218989652Y-72227343D01*
X218991500Y-72248674D01*
X218991500Y-80341471D01*
X218971815Y-80408510D01*
X218955181Y-80429152D01*
X218849613Y-80534719D01*
X218849612Y-80534720D01*
X218794318Y-80610826D01*
X218738987Y-80653491D01*
X218669374Y-80659470D01*
X218607579Y-80626864D01*
X218593682Y-80610826D01*
X218568979Y-80576826D01*
X218538389Y-80534722D01*
X218375778Y-80372111D01*
X218189731Y-80236940D01*
X218123002Y-80202940D01*
X217984833Y-80132539D01*
X217766118Y-80061473D01*
X217538988Y-80025500D01*
X217538983Y-80025500D01*
X217309017Y-80025500D01*
X217309012Y-80025500D01*
X217081881Y-80061473D01*
X216863166Y-80132539D01*
X216658268Y-80236940D01*
X216472219Y-80372113D01*
X216309613Y-80534719D01*
X216174440Y-80720768D01*
X216070039Y-80925666D01*
X215998973Y-81144381D01*
X215963000Y-81371511D01*
X215963000Y-81696488D01*
X215998973Y-81923618D01*
X216070039Y-82142333D01*
X216157116Y-82313231D01*
X216174440Y-82347231D01*
X216309611Y-82533278D01*
X216472222Y-82695889D01*
X216658269Y-82831060D01*
X216755078Y-82880386D01*
X216863166Y-82935460D01*
X216863168Y-82935460D01*
X216863171Y-82935462D01*
X216980404Y-82973553D01*
X217081881Y-83006526D01*
X217309012Y-83042500D01*
X217309017Y-83042500D01*
X217538988Y-83042500D01*
X217766118Y-83006526D01*
X217832709Y-82984889D01*
X217984829Y-82935462D01*
X217989163Y-82933254D01*
X218059805Y-82897260D01*
X218189731Y-82831060D01*
X218375778Y-82695889D01*
X218538389Y-82533278D01*
X218593683Y-82457172D01*
X218649012Y-82414508D01*
X218718625Y-82408529D01*
X218780420Y-82441135D01*
X218794314Y-82457169D01*
X218849611Y-82533278D01*
X219012222Y-82695889D01*
X219198269Y-82831060D01*
X219295078Y-82880386D01*
X219403166Y-82935460D01*
X219403168Y-82935460D01*
X219403171Y-82935462D01*
X219520404Y-82973553D01*
X219621881Y-83006526D01*
X219849012Y-83042500D01*
X219849017Y-83042500D01*
X220078988Y-83042500D01*
X220306118Y-83006526D01*
X220372709Y-82984889D01*
X220524829Y-82935462D01*
X220529163Y-82933254D01*
X220599805Y-82897260D01*
X220729731Y-82831060D01*
X220904428Y-82704134D01*
X220970231Y-82680656D01*
X221038285Y-82696481D01*
X221086980Y-82746587D01*
X221093491Y-82761117D01*
X221100610Y-82780203D01*
X221113229Y-82797060D01*
X221188239Y-82897261D01*
X221305296Y-82984889D01*
X221414836Y-83025745D01*
X221470767Y-83067616D01*
X221495184Y-83133080D01*
X221495500Y-83141926D01*
X221495500Y-83776903D01*
X221475815Y-83843942D01*
X221459181Y-83864584D01*
X220368585Y-84955181D01*
X220307262Y-84988666D01*
X220280904Y-84991500D01*
X214469097Y-84991500D01*
X214402058Y-84971815D01*
X214381416Y-84955181D01*
X209142884Y-79716649D01*
X209142880Y-79716646D01*
X209063609Y-79663678D01*
X209018804Y-79610065D01*
X209008500Y-79560576D01*
X209008500Y-78130109D01*
X209028185Y-78063070D01*
X209030909Y-78059007D01*
X209137523Y-77906749D01*
X209234284Y-77699243D01*
X209293543Y-77478087D01*
X209313498Y-77250000D01*
X209293543Y-77021913D01*
X209234284Y-76800757D01*
X209137523Y-76593251D01*
X209006198Y-76405700D01*
X208844300Y-76243802D01*
X208656749Y-76112477D01*
X208656745Y-76112475D01*
X208449249Y-76015718D01*
X208449238Y-76015714D01*
X208228089Y-75956457D01*
X208228081Y-75956456D01*
X208000002Y-75936502D01*
X207999998Y-75936502D01*
X207771918Y-75956456D01*
X207771910Y-75956457D01*
X207550761Y-76015714D01*
X207550750Y-76015718D01*
X207343254Y-76112475D01*
X207343252Y-76112476D01*
X207343251Y-76112477D01*
X207155700Y-76243802D01*
X207155698Y-76243803D01*
X207155695Y-76243806D01*
X206993806Y-76405695D01*
X206862476Y-76593252D01*
X206862475Y-76593254D01*
X206765718Y-76800750D01*
X206765714Y-76800761D01*
X206706457Y-77021910D01*
X206706456Y-77021918D01*
X206686502Y-77249998D01*
X191384680Y-77249998D01*
X191328682Y-77028864D01*
X191235484Y-76816393D01*
X191151186Y-76687365D01*
X190442137Y-77396414D01*
X190419333Y-77311306D01*
X190360090Y-77208694D01*
X190276306Y-77124910D01*
X190173694Y-77065667D01*
X190088584Y-77042861D01*
X190798797Y-76332647D01*
X190798797Y-76332645D01*
X190768360Y-76308955D01*
X190768354Y-76308951D01*
X190564302Y-76198523D01*
X190564293Y-76198520D01*
X190344860Y-76123188D01*
X190116007Y-76085000D01*
X189883993Y-76085000D01*
X189655139Y-76123188D01*
X189435706Y-76198520D01*
X189435697Y-76198523D01*
X189231650Y-76308949D01*
X189201200Y-76332647D01*
X189911415Y-77042861D01*
X189826306Y-77065667D01*
X189723694Y-77124910D01*
X189639910Y-77208694D01*
X189580667Y-77311306D01*
X189557861Y-77396415D01*
X188848811Y-76687365D01*
X188764516Y-76816390D01*
X188671317Y-77028864D01*
X188614361Y-77253781D01*
X188595202Y-77484994D01*
X188595202Y-77485005D01*
X188614361Y-77716218D01*
X188671317Y-77941135D01*
X188764515Y-78153606D01*
X188848812Y-78282633D01*
X189557861Y-77573584D01*
X189580667Y-77658694D01*
X189639910Y-77761306D01*
X189723694Y-77845090D01*
X189826306Y-77904333D01*
X189911414Y-77927137D01*
X189258373Y-78580181D01*
X189197050Y-78613666D01*
X189170692Y-78616500D01*
X189051345Y-78616500D01*
X188990797Y-78623011D01*
X188990795Y-78623011D01*
X188853795Y-78674111D01*
X188736739Y-78761739D01*
X188649111Y-78878795D01*
X188598011Y-79015795D01*
X188598011Y-79015797D01*
X188591500Y-79076345D01*
X172099890Y-79076345D01*
X172381416Y-78794819D01*
X172442739Y-78761334D01*
X172469097Y-78758500D01*
X172599330Y-78758500D01*
X172599331Y-78758499D01*
X172794169Y-78719744D01*
X172977704Y-78643721D01*
X173142881Y-78533353D01*
X173283353Y-78392881D01*
X173393721Y-78227704D01*
X173399078Y-78214769D01*
X173425957Y-78174539D01*
X173506198Y-78094300D01*
X173637523Y-77906749D01*
X173734284Y-77699243D01*
X173793543Y-77478087D01*
X173813498Y-77250000D01*
X173793543Y-77021913D01*
X173734284Y-76800757D01*
X173637523Y-76593251D01*
X173506198Y-76405700D01*
X173344300Y-76243802D01*
X173156749Y-76112477D01*
X173156745Y-76112475D01*
X172949249Y-76015718D01*
X172949238Y-76015714D01*
X172728089Y-75956457D01*
X172728081Y-75956456D01*
X172500002Y-75936502D01*
X172499998Y-75936502D01*
X172271918Y-75956456D01*
X172271910Y-75956457D01*
X172050761Y-76015714D01*
X172050750Y-76015718D01*
X171843254Y-76112475D01*
X171843252Y-76112476D01*
X171843251Y-76112477D01*
X171655700Y-76243802D01*
X171655698Y-76243803D01*
X171655695Y-76243806D01*
X171493806Y-76405695D01*
X171362476Y-76593252D01*
X171362475Y-76593254D01*
X171265718Y-76800750D01*
X171265714Y-76800761D01*
X171206457Y-77021910D01*
X171206456Y-77021916D01*
X171201243Y-77081496D01*
X171175789Y-77146564D01*
X171165396Y-77158367D01*
X167868585Y-80455181D01*
X167807262Y-80488666D01*
X167780904Y-80491500D01*
X164116398Y-80491500D01*
X164049359Y-80471815D01*
X164003604Y-80419011D01*
X163995720Y-80396008D01*
X163994489Y-80390803D01*
X163994489Y-80390799D01*
X163943389Y-80253796D01*
X163855761Y-80136739D01*
X163738704Y-80049111D01*
X163680694Y-80027474D01*
X163601703Y-79998011D01*
X163541154Y-79991500D01*
X163541138Y-79991500D01*
X161538862Y-79991500D01*
X161538845Y-79991500D01*
X161478297Y-79998011D01*
X161478295Y-79998011D01*
X161341295Y-80049111D01*
X161224236Y-80136741D01*
X161220181Y-80140797D01*
X161158858Y-80174282D01*
X161089166Y-80169298D01*
X161033233Y-80127426D01*
X161008816Y-80061962D01*
X161008500Y-80053116D01*
X161008500Y-74249997D01*
X171195034Y-74249997D01*
X171195034Y-74250002D01*
X171214858Y-74476599D01*
X171214860Y-74476610D01*
X171273730Y-74696317D01*
X171273735Y-74696331D01*
X171369863Y-74902478D01*
X171420974Y-74975472D01*
X172100000Y-74296446D01*
X172100000Y-74302661D01*
X172127259Y-74404394D01*
X172179920Y-74495606D01*
X172254394Y-74570080D01*
X172345606Y-74622741D01*
X172447339Y-74650000D01*
X172453553Y-74650000D01*
X171774526Y-75329025D01*
X171847513Y-75380132D01*
X171847521Y-75380136D01*
X172053668Y-75476264D01*
X172053682Y-75476269D01*
X172273389Y-75535139D01*
X172273400Y-75535141D01*
X172499998Y-75554966D01*
X172500002Y-75554966D01*
X172726599Y-75535141D01*
X172726610Y-75535139D01*
X172946317Y-75476269D01*
X172946331Y-75476264D01*
X173152478Y-75380136D01*
X173225471Y-75329024D01*
X172546447Y-74650000D01*
X172552661Y-74650000D01*
X172654394Y-74622741D01*
X172745606Y-74570080D01*
X172820080Y-74495606D01*
X172872741Y-74404394D01*
X172900000Y-74302661D01*
X172900000Y-74296447D01*
X173579024Y-74975471D01*
X173630136Y-74902478D01*
X173726264Y-74696331D01*
X173726269Y-74696317D01*
X173785139Y-74476610D01*
X173785141Y-74476599D01*
X173804966Y-74250002D01*
X173804966Y-74249997D01*
X206695034Y-74249997D01*
X206695034Y-74250002D01*
X206714858Y-74476599D01*
X206714860Y-74476610D01*
X206773730Y-74696317D01*
X206773735Y-74696331D01*
X206869863Y-74902478D01*
X206920974Y-74975472D01*
X207600000Y-74296446D01*
X207600000Y-74302661D01*
X207627259Y-74404394D01*
X207679920Y-74495606D01*
X207754394Y-74570080D01*
X207845606Y-74622741D01*
X207947339Y-74650000D01*
X207953553Y-74650000D01*
X207274526Y-75329025D01*
X207347513Y-75380132D01*
X207347521Y-75380136D01*
X207553668Y-75476264D01*
X207553682Y-75476269D01*
X207773389Y-75535139D01*
X207773400Y-75535141D01*
X207999998Y-75554966D01*
X208000002Y-75554966D01*
X208226599Y-75535141D01*
X208226610Y-75535139D01*
X208446317Y-75476269D01*
X208446331Y-75476264D01*
X208652478Y-75380136D01*
X208725471Y-75329024D01*
X208046447Y-74650000D01*
X208052661Y-74650000D01*
X208154394Y-74622741D01*
X208245606Y-74570080D01*
X208320080Y-74495606D01*
X208372741Y-74404394D01*
X208400000Y-74302661D01*
X208400000Y-74296447D01*
X209079024Y-74975471D01*
X209130136Y-74902478D01*
X209226264Y-74696331D01*
X209226269Y-74696317D01*
X209285139Y-74476610D01*
X209285141Y-74476599D01*
X209304966Y-74250002D01*
X209304966Y-74249997D01*
X209285141Y-74023400D01*
X209285139Y-74023389D01*
X209226269Y-73803682D01*
X209226264Y-73803668D01*
X209130136Y-73597521D01*
X209130132Y-73597513D01*
X209079025Y-73524526D01*
X208400000Y-74203551D01*
X208400000Y-74197339D01*
X208372741Y-74095606D01*
X208320080Y-74004394D01*
X208245606Y-73929920D01*
X208154394Y-73877259D01*
X208052661Y-73850000D01*
X208046448Y-73850000D01*
X208725472Y-73170974D01*
X208652478Y-73119863D01*
X208446331Y-73023735D01*
X208446317Y-73023730D01*
X208226610Y-72964860D01*
X208226599Y-72964858D01*
X208000002Y-72945034D01*
X207999998Y-72945034D01*
X207773400Y-72964858D01*
X207773389Y-72964860D01*
X207553682Y-73023730D01*
X207553673Y-73023734D01*
X207347516Y-73119866D01*
X207347512Y-73119868D01*
X207274526Y-73170973D01*
X207274526Y-73170974D01*
X207953553Y-73850000D01*
X207947339Y-73850000D01*
X207845606Y-73877259D01*
X207754394Y-73929920D01*
X207679920Y-74004394D01*
X207627259Y-74095606D01*
X207600000Y-74197339D01*
X207600000Y-74203552D01*
X206920974Y-73524526D01*
X206920973Y-73524526D01*
X206869868Y-73597512D01*
X206869866Y-73597516D01*
X206773734Y-73803673D01*
X206773730Y-73803682D01*
X206714860Y-74023389D01*
X206714858Y-74023400D01*
X206695034Y-74249997D01*
X173804966Y-74249997D01*
X173785141Y-74023400D01*
X173785139Y-74023389D01*
X173726269Y-73803682D01*
X173726264Y-73803668D01*
X173630136Y-73597521D01*
X173630132Y-73597513D01*
X173579025Y-73524526D01*
X172900000Y-74203551D01*
X172900000Y-74197339D01*
X172872741Y-74095606D01*
X172820080Y-74004394D01*
X172745606Y-73929920D01*
X172654394Y-73877259D01*
X172552661Y-73850000D01*
X172546448Y-73850000D01*
X173225472Y-73170974D01*
X173152478Y-73119863D01*
X172946331Y-73023735D01*
X172946317Y-73023730D01*
X172726610Y-72964860D01*
X172726599Y-72964858D01*
X172500002Y-72945034D01*
X172499998Y-72945034D01*
X172273400Y-72964858D01*
X172273389Y-72964860D01*
X172053682Y-73023730D01*
X172053673Y-73023734D01*
X171847516Y-73119866D01*
X171847512Y-73119868D01*
X171774526Y-73170973D01*
X171774526Y-73170974D01*
X172453553Y-73850000D01*
X172447339Y-73850000D01*
X172345606Y-73877259D01*
X172254394Y-73929920D01*
X172179920Y-74004394D01*
X172127259Y-74095606D01*
X172100000Y-74197339D01*
X172100000Y-74203552D01*
X171420974Y-73524526D01*
X171420973Y-73524526D01*
X171369868Y-73597512D01*
X171369866Y-73597516D01*
X171273734Y-73803673D01*
X171273730Y-73803682D01*
X171214860Y-74023389D01*
X171214858Y-74023400D01*
X171195034Y-74249997D01*
X161008500Y-74249997D01*
X161008500Y-72098674D01*
X161028185Y-72031635D01*
X161041267Y-72014694D01*
X161075722Y-71977268D01*
X161198860Y-71788791D01*
X161289296Y-71582616D01*
X161344564Y-71364368D01*
X161350726Y-71290005D01*
X161363156Y-71140005D01*
X161363156Y-71139994D01*
X161344565Y-70915640D01*
X161344563Y-70915628D01*
X161289296Y-70697385D01*
X161264655Y-70641209D01*
X161198860Y-70491209D01*
X161075722Y-70302732D01*
X161075719Y-70302729D01*
X161075715Y-70302723D01*
X160923243Y-70137097D01*
X160923238Y-70137092D01*
X160745577Y-69998812D01*
X160745572Y-69998808D01*
X160547580Y-69891661D01*
X160547577Y-69891659D01*
X160547574Y-69891658D01*
X160547571Y-69891657D01*
X160547569Y-69891656D01*
X160334637Y-69818556D01*
X160112569Y-69781500D01*
X159887431Y-69781500D01*
X159665362Y-69818556D01*
X159452430Y-69891656D01*
X159452419Y-69891661D01*
X159254427Y-69998808D01*
X159254422Y-69998812D01*
X159076761Y-70137092D01*
X159076756Y-70137097D01*
X158924284Y-70302723D01*
X158924276Y-70302734D01*
X158801140Y-70491207D01*
X158710703Y-70697385D01*
X158655436Y-70915628D01*
X158655434Y-70915640D01*
X158636844Y-71139994D01*
X158636844Y-71140005D01*
X158655434Y-71364359D01*
X158655436Y-71364371D01*
X158710703Y-71582614D01*
X158801140Y-71788792D01*
X158899140Y-71938791D01*
X158924278Y-71977268D01*
X158958728Y-72014690D01*
X158989652Y-72077343D01*
X158991500Y-72098674D01*
X158991500Y-80343471D01*
X158971815Y-80410510D01*
X158955181Y-80431152D01*
X158885613Y-80500719D01*
X158885612Y-80500720D01*
X158830318Y-80576826D01*
X158774987Y-80619491D01*
X158705374Y-80625470D01*
X158643579Y-80592864D01*
X158629682Y-80576826D01*
X158599089Y-80534719D01*
X158574389Y-80500722D01*
X158411778Y-80338111D01*
X158225731Y-80202940D01*
X158183168Y-80181253D01*
X158020833Y-80098539D01*
X157802118Y-80027473D01*
X157574988Y-79991500D01*
X157574983Y-79991500D01*
X157345017Y-79991500D01*
X157345012Y-79991500D01*
X157117881Y-80027473D01*
X156899166Y-80098539D01*
X156694268Y-80202940D01*
X156508219Y-80338113D01*
X156345613Y-80500719D01*
X156210440Y-80686768D01*
X156106039Y-80891666D01*
X156034973Y-81110381D01*
X155999000Y-81337511D01*
X150100500Y-81337511D01*
X150100500Y-66432155D01*
X158650000Y-66432155D01*
X158650000Y-67080000D01*
X159566988Y-67080000D01*
X159534075Y-67137007D01*
X159500000Y-67264174D01*
X159500000Y-67395826D01*
X159534075Y-67522993D01*
X159566988Y-67580000D01*
X158650000Y-67580000D01*
X158650000Y-68227844D01*
X158656401Y-68287372D01*
X158656403Y-68287379D01*
X158706645Y-68422086D01*
X158706649Y-68422093D01*
X158792809Y-68537187D01*
X158792812Y-68537190D01*
X158907906Y-68623350D01*
X158907913Y-68623354D01*
X159042620Y-68673596D01*
X159042627Y-68673598D01*
X159102155Y-68679999D01*
X159102172Y-68680000D01*
X159750000Y-68680000D01*
X159750000Y-67763012D01*
X159807007Y-67795925D01*
X159934174Y-67830000D01*
X160065826Y-67830000D01*
X160192993Y-67795925D01*
X160250000Y-67763012D01*
X160250000Y-68680000D01*
X160897828Y-68680000D01*
X160897844Y-68679999D01*
X160957372Y-68673598D01*
X160957379Y-68673596D01*
X161092086Y-68623354D01*
X161092093Y-68623350D01*
X161207187Y-68537190D01*
X161207190Y-68537187D01*
X161293350Y-68422093D01*
X161293354Y-68422086D01*
X161343596Y-68287379D01*
X161343598Y-68287372D01*
X161349999Y-68227844D01*
X161350000Y-68227827D01*
X161350000Y-67580000D01*
X160433012Y-67580000D01*
X160465925Y-67522993D01*
X160500000Y-67395826D01*
X160500000Y-67264174D01*
X160465925Y-67137007D01*
X160433012Y-67080000D01*
X161350000Y-67080000D01*
X161350000Y-66582155D01*
X218650000Y-66582155D01*
X218650000Y-67230000D01*
X219566988Y-67230000D01*
X219534075Y-67287007D01*
X219500000Y-67414174D01*
X219500000Y-67545826D01*
X219534075Y-67672993D01*
X219566988Y-67730000D01*
X218650000Y-67730000D01*
X218650000Y-68377844D01*
X218656401Y-68437372D01*
X218656403Y-68437379D01*
X218706645Y-68572086D01*
X218706649Y-68572093D01*
X218792809Y-68687187D01*
X218792812Y-68687190D01*
X218907906Y-68773350D01*
X218907913Y-68773354D01*
X219042620Y-68823596D01*
X219042627Y-68823598D01*
X219102155Y-68829999D01*
X219102172Y-68830000D01*
X219750000Y-68830000D01*
X219750000Y-67913012D01*
X219807007Y-67945925D01*
X219934174Y-67980000D01*
X220065826Y-67980000D01*
X220192993Y-67945925D01*
X220250000Y-67913012D01*
X220250000Y-68830000D01*
X220897828Y-68830000D01*
X220897844Y-68829999D01*
X220957372Y-68823598D01*
X220957379Y-68823596D01*
X221092086Y-68773354D01*
X221092093Y-68773350D01*
X221207187Y-68687190D01*
X221207190Y-68687187D01*
X221293350Y-68572093D01*
X221293354Y-68572086D01*
X221343596Y-68437379D01*
X221343598Y-68437372D01*
X221349999Y-68377844D01*
X221350000Y-68377827D01*
X221350000Y-67730000D01*
X220433012Y-67730000D01*
X220465925Y-67672993D01*
X220500000Y-67545826D01*
X220500000Y-67414174D01*
X220465925Y-67287007D01*
X220433012Y-67230000D01*
X221350000Y-67230000D01*
X221350000Y-66582172D01*
X221349999Y-66582155D01*
X221343598Y-66522627D01*
X221343596Y-66522620D01*
X221293354Y-66387913D01*
X221293350Y-66387906D01*
X221207190Y-66272812D01*
X221207187Y-66272809D01*
X221092093Y-66186649D01*
X221092086Y-66186645D01*
X220957379Y-66136403D01*
X220957372Y-66136401D01*
X220897844Y-66130000D01*
X220250000Y-66130000D01*
X220250000Y-67046988D01*
X220192993Y-67014075D01*
X220065826Y-66980000D01*
X219934174Y-66980000D01*
X219807007Y-67014075D01*
X219750000Y-67046988D01*
X219750000Y-66130000D01*
X219102155Y-66130000D01*
X219042627Y-66136401D01*
X219042620Y-66136403D01*
X218907913Y-66186645D01*
X218907906Y-66186649D01*
X218792812Y-66272809D01*
X218792809Y-66272812D01*
X218706649Y-66387906D01*
X218706645Y-66387913D01*
X218656403Y-66522620D01*
X218656401Y-66522627D01*
X218650000Y-66582155D01*
X161350000Y-66582155D01*
X161350000Y-66432172D01*
X161349999Y-66432155D01*
X161343598Y-66372627D01*
X161343596Y-66372620D01*
X161293354Y-66237913D01*
X161293350Y-66237906D01*
X161207190Y-66122812D01*
X161207187Y-66122809D01*
X161092093Y-66036649D01*
X161092086Y-66036645D01*
X160957379Y-65986403D01*
X160957372Y-65986401D01*
X160897844Y-65980000D01*
X160250000Y-65980000D01*
X160250000Y-66896988D01*
X160192993Y-66864075D01*
X160065826Y-66830000D01*
X159934174Y-66830000D01*
X159807007Y-66864075D01*
X159750000Y-66896988D01*
X159750000Y-65980000D01*
X159102155Y-65980000D01*
X159042627Y-65986401D01*
X159042620Y-65986403D01*
X158907913Y-66036645D01*
X158907906Y-66036649D01*
X158792812Y-66122809D01*
X158792809Y-66122812D01*
X158706649Y-66237906D01*
X158706645Y-66237913D01*
X158656403Y-66372620D01*
X158656401Y-66372627D01*
X158650000Y-66432155D01*
X150100500Y-66432155D01*
X150100500Y-55002706D01*
X150100618Y-54997298D01*
X150102342Y-54957816D01*
X150118908Y-54578365D01*
X150119848Y-54567631D01*
X150174229Y-54154565D01*
X150176101Y-54143946D01*
X150176153Y-54143713D01*
X152899500Y-54143713D01*
X152899500Y-54356286D01*
X152932753Y-54566239D01*
X152998444Y-54768414D01*
X153094951Y-54957820D01*
X153219890Y-55129786D01*
X153370213Y-55280109D01*
X153542179Y-55405048D01*
X153542181Y-55405049D01*
X153542184Y-55405051D01*
X153731588Y-55501557D01*
X153933757Y-55567246D01*
X154143713Y-55600500D01*
X154143714Y-55600500D01*
X154356286Y-55600500D01*
X154356287Y-55600500D01*
X154566243Y-55567246D01*
X154768412Y-55501557D01*
X154957816Y-55405051D01*
X154979789Y-55389086D01*
X155129786Y-55280109D01*
X155129788Y-55280106D01*
X155129792Y-55280104D01*
X155280104Y-55129792D01*
X155280106Y-55129788D01*
X155280109Y-55129786D01*
X155405048Y-54957820D01*
X155405047Y-54957820D01*
X155405051Y-54957816D01*
X155501557Y-54768412D01*
X155567246Y-54566243D01*
X155600500Y-54356287D01*
X155600500Y-54143713D01*
X155570075Y-53951617D01*
X181250000Y-53951617D01*
X181250000Y-54750000D01*
X182250000Y-54750000D01*
X182250000Y-55250000D01*
X181250000Y-55250000D01*
X181250000Y-56048382D01*
X181280778Y-56242705D01*
X181341581Y-56429835D01*
X181430904Y-56605143D01*
X181546555Y-56764321D01*
X181685678Y-56903444D01*
X181844856Y-57019095D01*
X182020162Y-57108418D01*
X182207283Y-57169218D01*
X182250000Y-57175984D01*
X182250000Y-55899728D01*
X182288060Y-55991614D01*
X182358386Y-56061940D01*
X182450272Y-56100000D01*
X182549728Y-56100000D01*
X182641614Y-56061940D01*
X182711940Y-55991614D01*
X182750000Y-55899728D01*
X182750000Y-57175983D01*
X182792716Y-57169218D01*
X182979837Y-57108418D01*
X183155143Y-57019095D01*
X183314321Y-56903444D01*
X183453444Y-56764321D01*
X183569095Y-56605143D01*
X183658418Y-56429835D01*
X183719221Y-56242705D01*
X183750000Y-56048382D01*
X183750000Y-55250000D01*
X182750000Y-55250000D01*
X182750000Y-54750000D01*
X183750000Y-54750000D01*
X183750000Y-53951617D01*
X183749894Y-53950948D01*
X196241500Y-53950948D01*
X196241500Y-56049051D01*
X196272487Y-56244700D01*
X196333703Y-56433101D01*
X196421364Y-56605143D01*
X196423634Y-56609598D01*
X196540070Y-56769858D01*
X196680142Y-56909930D01*
X196840402Y-57026366D01*
X196923790Y-57068854D01*
X197016898Y-57116296D01*
X197016900Y-57116296D01*
X197016903Y-57116298D01*
X197117888Y-57149110D01*
X197205299Y-57177512D01*
X197400949Y-57208500D01*
X197400954Y-57208500D01*
X197599051Y-57208500D01*
X197794700Y-57177512D01*
X197820226Y-57169218D01*
X197983097Y-57116298D01*
X198159598Y-57026366D01*
X198319858Y-56909930D01*
X198459930Y-56769858D01*
X198576366Y-56609598D01*
X198666298Y-56433097D01*
X198727512Y-56244700D01*
X198748355Y-56113102D01*
X198778284Y-56049968D01*
X198837595Y-56013036D01*
X198870828Y-56008500D01*
X214330305Y-56008500D01*
X214397344Y-56028185D01*
X214443099Y-56080989D01*
X214446480Y-56089150D01*
X214449111Y-56096204D01*
X214536739Y-56213261D01*
X214653796Y-56300889D01*
X214790799Y-56351989D01*
X214818050Y-56354918D01*
X214851345Y-56358499D01*
X214851362Y-56358500D01*
X216648638Y-56358500D01*
X216648654Y-56358499D01*
X216675692Y-56355591D01*
X216709201Y-56351989D01*
X216846204Y-56300889D01*
X216963261Y-56213261D01*
X217050889Y-56096204D01*
X217101989Y-55959201D01*
X217105591Y-55925692D01*
X217108499Y-55898654D01*
X217108500Y-55898637D01*
X217108500Y-54999994D01*
X218196844Y-54999994D01*
X218196844Y-55000005D01*
X218215434Y-55224359D01*
X218215436Y-55224371D01*
X218270703Y-55442614D01*
X218361140Y-55648792D01*
X218484276Y-55837265D01*
X218484284Y-55837276D01*
X218636756Y-56002902D01*
X218636760Y-56002906D01*
X218814424Y-56141189D01*
X218814425Y-56141189D01*
X218814427Y-56141191D01*
X218941135Y-56209761D01*
X219012426Y-56248342D01*
X219225365Y-56321444D01*
X219447431Y-56358500D01*
X219672569Y-56358500D01*
X219894635Y-56321444D01*
X220107574Y-56248342D01*
X220305576Y-56141189D01*
X220483240Y-56002906D01*
X220635722Y-55837268D01*
X220758860Y-55648791D01*
X220849296Y-55442616D01*
X220904564Y-55224368D01*
X220912401Y-55129792D01*
X220923156Y-55000005D01*
X220923156Y-54999994D01*
X220904565Y-54775640D01*
X220904563Y-54775628D01*
X220898073Y-54750000D01*
X220849296Y-54557384D01*
X220758860Y-54351209D01*
X220635722Y-54162732D01*
X220635719Y-54162729D01*
X220635715Y-54162723D01*
X220618215Y-54143713D01*
X224649500Y-54143713D01*
X224649500Y-54356286D01*
X224682753Y-54566239D01*
X224748444Y-54768414D01*
X224844951Y-54957820D01*
X224969890Y-55129786D01*
X225120213Y-55280109D01*
X225292179Y-55405048D01*
X225292181Y-55405049D01*
X225292184Y-55405051D01*
X225481588Y-55501557D01*
X225683757Y-55567246D01*
X225893713Y-55600500D01*
X225893714Y-55600500D01*
X226106286Y-55600500D01*
X226106287Y-55600500D01*
X226316243Y-55567246D01*
X226518412Y-55501557D01*
X226707816Y-55405051D01*
X226729789Y-55389086D01*
X226879786Y-55280109D01*
X226879788Y-55280106D01*
X226879792Y-55280104D01*
X227030104Y-55129792D01*
X227030106Y-55129788D01*
X227030109Y-55129786D01*
X227155048Y-54957820D01*
X227155047Y-54957820D01*
X227155051Y-54957816D01*
X227251557Y-54768412D01*
X227317246Y-54566243D01*
X227350500Y-54356287D01*
X227350500Y-54143713D01*
X227317246Y-53933757D01*
X227251557Y-53731588D01*
X227155051Y-53542184D01*
X227155049Y-53542181D01*
X227155048Y-53542179D01*
X227030109Y-53370213D01*
X226879786Y-53219890D01*
X226707820Y-53094951D01*
X226518414Y-52998444D01*
X226518413Y-52998443D01*
X226518412Y-52998443D01*
X226316243Y-52932754D01*
X226316241Y-52932753D01*
X226316240Y-52932753D01*
X226154957Y-52907208D01*
X226106287Y-52899500D01*
X225893713Y-52899500D01*
X225845042Y-52907208D01*
X225683760Y-52932753D01*
X225481585Y-52998444D01*
X225292179Y-53094951D01*
X225120213Y-53219890D01*
X224969890Y-53370213D01*
X224844951Y-53542179D01*
X224748444Y-53731585D01*
X224748443Y-53731587D01*
X224748443Y-53731588D01*
X224741922Y-53751658D01*
X224682753Y-53933760D01*
X224649500Y-54143713D01*
X220618215Y-54143713D01*
X220483243Y-53997097D01*
X220483238Y-53997092D01*
X220305577Y-53858812D01*
X220305572Y-53858808D01*
X220107580Y-53751661D01*
X220107577Y-53751659D01*
X220107574Y-53751658D01*
X220107571Y-53751657D01*
X220107569Y-53751656D01*
X219894637Y-53678556D01*
X219672569Y-53641500D01*
X219447431Y-53641500D01*
X219225362Y-53678556D01*
X219012430Y-53751656D01*
X219012419Y-53751661D01*
X218814427Y-53858808D01*
X218814422Y-53858812D01*
X218636761Y-53997092D01*
X218636756Y-53997097D01*
X218484284Y-54162723D01*
X218484276Y-54162734D01*
X218361140Y-54351207D01*
X218270703Y-54557385D01*
X218215436Y-54775628D01*
X218215434Y-54775640D01*
X218196844Y-54999994D01*
X217108500Y-54999994D01*
X217108500Y-54101362D01*
X217108499Y-54101345D01*
X217105157Y-54070270D01*
X217101989Y-54040799D01*
X217089899Y-54008386D01*
X217062064Y-53933757D01*
X217050889Y-53903796D01*
X216963261Y-53786739D01*
X216846204Y-53699111D01*
X216709203Y-53648011D01*
X216648654Y-53641500D01*
X216648638Y-53641500D01*
X214851362Y-53641500D01*
X214851345Y-53641500D01*
X214790797Y-53648011D01*
X214790795Y-53648011D01*
X214653795Y-53699111D01*
X214536739Y-53786739D01*
X214451953Y-53900000D01*
X214449111Y-53903796D01*
X214446485Y-53910834D01*
X214404616Y-53966767D01*
X214339152Y-53991184D01*
X214330305Y-53991500D01*
X198870828Y-53991500D01*
X198803789Y-53971815D01*
X198758034Y-53919011D01*
X198748355Y-53886898D01*
X198732491Y-53786739D01*
X198727512Y-53755300D01*
X198666298Y-53566903D01*
X198666296Y-53566900D01*
X198666296Y-53566898D01*
X198576365Y-53390401D01*
X198459930Y-53230142D01*
X198319858Y-53090070D01*
X198159598Y-52973634D01*
X197983101Y-52883703D01*
X197794700Y-52822487D01*
X197599051Y-52791500D01*
X197599046Y-52791500D01*
X197400954Y-52791500D01*
X197400949Y-52791500D01*
X197205299Y-52822487D01*
X197016898Y-52883703D01*
X196840401Y-52973634D01*
X196748967Y-53040065D01*
X196680142Y-53090070D01*
X196680140Y-53090072D01*
X196680139Y-53090072D01*
X196540072Y-53230139D01*
X196540072Y-53230140D01*
X196540070Y-53230142D01*
X196536048Y-53235678D01*
X196423634Y-53390401D01*
X196333703Y-53566898D01*
X196272487Y-53755299D01*
X196241500Y-53950948D01*
X183749894Y-53950948D01*
X183719221Y-53757294D01*
X183658418Y-53570164D01*
X183569095Y-53394856D01*
X183453444Y-53235678D01*
X183314321Y-53096555D01*
X183155143Y-52980904D01*
X182979835Y-52891581D01*
X182792705Y-52830778D01*
X182750000Y-52824014D01*
X182750000Y-54100272D01*
X182711940Y-54008386D01*
X182641614Y-53938060D01*
X182549728Y-53900000D01*
X182450272Y-53900000D01*
X182358386Y-53938060D01*
X182288060Y-54008386D01*
X182250000Y-54100272D01*
X182250000Y-52824014D01*
X182249999Y-52824014D01*
X182207294Y-52830778D01*
X182020164Y-52891581D01*
X181844856Y-52980904D01*
X181685678Y-53096555D01*
X181546555Y-53235678D01*
X181430904Y-53394856D01*
X181341581Y-53570164D01*
X181280778Y-53757294D01*
X181250000Y-53951617D01*
X155570075Y-53951617D01*
X155567246Y-53933757D01*
X155501557Y-53731588D01*
X155405051Y-53542184D01*
X155405049Y-53542181D01*
X155405048Y-53542179D01*
X155280109Y-53370213D01*
X155129786Y-53219890D01*
X154957820Y-53094951D01*
X154768414Y-52998444D01*
X154768413Y-52998443D01*
X154768412Y-52998443D01*
X154566243Y-52932754D01*
X154566241Y-52932753D01*
X154566240Y-52932753D01*
X154404957Y-52907208D01*
X154356287Y-52899500D01*
X154143713Y-52899500D01*
X154095042Y-52907208D01*
X153933760Y-52932753D01*
X153731585Y-52998444D01*
X153542179Y-53094951D01*
X153370213Y-53219890D01*
X153219890Y-53370213D01*
X153094951Y-53542179D01*
X152998444Y-53731585D01*
X152998443Y-53731587D01*
X152998443Y-53731588D01*
X152991922Y-53751658D01*
X152932753Y-53933760D01*
X152899500Y-54143713D01*
X150176153Y-54143713D01*
X150266279Y-53737177D01*
X150269066Y-53726777D01*
X150394355Y-53329410D01*
X150398039Y-53319289D01*
X150557480Y-52934365D01*
X150562038Y-52924591D01*
X150754412Y-52555045D01*
X150759807Y-52545700D01*
X150983665Y-52194313D01*
X150989855Y-52185473D01*
X151243478Y-51854945D01*
X151250416Y-51846676D01*
X151531883Y-51539509D01*
X151539509Y-51531883D01*
X151846676Y-51250416D01*
X151854945Y-51243478D01*
X152185473Y-50989855D01*
X152194313Y-50983665D01*
X152545700Y-50759807D01*
X152555045Y-50754412D01*
X152924591Y-50562038D01*
X152934365Y-50557480D01*
X153319289Y-50398039D01*
X153329410Y-50394355D01*
X153726777Y-50269066D01*
X153737177Y-50266279D01*
X154143946Y-50176101D01*
X154154565Y-50174229D01*
X154567631Y-50119848D01*
X154578365Y-50118908D01*
X154984694Y-50101168D01*
X154997298Y-50100618D01*
X155002706Y-50100500D01*
X155026929Y-50100500D01*
X224973071Y-50100500D01*
X224997294Y-50100500D01*
X225002702Y-50100617D01*
G37*
%TD.AperFunction*%
%TD*%
M02*
