%TF.GenerationSoftware,KiCad,Pcbnew,8.0.6*%
%TF.CreationDate,2024-11-17T18:19:46+01:00*%
%TF.ProjectId,MakerBot,4d616b65-7242-46f7-942e-6b696361645f,rev?*%
%TF.SameCoordinates,Original*%
%TF.FileFunction,Legend,Bot*%
%TF.FilePolarity,Positive*%
%FSLAX46Y46*%
G04 Gerber Fmt 4.6, Leading zero omitted, Abs format (unit mm)*
G04 Created by KiCad (PCBNEW 8.0.6) date 2024-11-17 18:19:46*
%MOMM*%
%LPD*%
G01*
G04 APERTURE LIST*
%ADD10C,0.120000*%
%ADD11C,0.314000*%
%ADD12C,0.100000*%
%ADD13C,0.150000*%
%ADD14C,0.250000*%
G04 APERTURE END LIST*
D10*
X222504000Y-86106000D02*
X212344000Y-86106000D01*
X217424000Y-95904000D02*
X217424000Y-82404000D01*
D11*
X208161000Y-61000000D02*
G75*
G02*
X207847000Y-61000000I-157000J0D01*
G01*
X207847000Y-61000000D02*
G75*
G02*
X208161000Y-61000000I157000J0D01*
G01*
X190161000Y-96000000D02*
G75*
G02*
X189847000Y-96000000I-157000J0D01*
G01*
X189847000Y-96000000D02*
G75*
G02*
X190161000Y-96000000I157000J0D01*
G01*
D10*
X160000000Y-80750000D02*
X160000000Y-71250000D01*
X156750000Y-96000000D02*
X223000000Y-96000000D01*
D11*
X217581000Y-95904000D02*
G75*
G02*
X217267000Y-95904000I-157000J0D01*
G01*
X217267000Y-95904000D02*
G75*
G02*
X217581000Y-95904000I157000J0D01*
G01*
D10*
X220000000Y-80500000D02*
X220000000Y-72250000D01*
X226000000Y-61000000D02*
X154500000Y-61000000D01*
X212344000Y-86106000D02*
X212344000Y-80772000D01*
X190000000Y-96500000D02*
X190000000Y-94750000D01*
D11*
X208161000Y-96000000D02*
G75*
G02*
X207847000Y-96000000I-157000J0D01*
G01*
X207847000Y-96000000D02*
G75*
G02*
X208161000Y-96000000I157000J0D01*
G01*
D12*
X172500000Y-81500000D02*
X162500000Y-81500000D01*
X172500000Y-77250000D02*
X172500000Y-83750000D01*
D10*
X190000000Y-60000000D02*
X190000000Y-77250000D01*
D11*
X172657000Y-81500000D02*
G75*
G02*
X172343000Y-81500000I-157000J0D01*
G01*
X172343000Y-81500000D02*
G75*
G02*
X172657000Y-81500000I157000J0D01*
G01*
D10*
X208000000Y-96000000D02*
X208000000Y-94750000D01*
X220000000Y-66500000D02*
X220000000Y-61000000D01*
D11*
X190161000Y-61000000D02*
G75*
G02*
X189847000Y-61000000I-157000J0D01*
G01*
X189847000Y-61000000D02*
G75*
G02*
X190161000Y-61000000I157000J0D01*
G01*
D10*
X212344000Y-80772000D02*
X208000000Y-80772000D01*
D11*
X172661000Y-61000000D02*
G75*
G02*
X172347000Y-61000000I-157000J0D01*
G01*
X172347000Y-61000000D02*
G75*
G02*
X172661000Y-61000000I157000J0D01*
G01*
D10*
X222504000Y-81534000D02*
X222504000Y-86106000D01*
D11*
X172661000Y-96000000D02*
G75*
G02*
X172347000Y-96000000I-157000J0D01*
G01*
X172347000Y-96000000D02*
G75*
G02*
X172661000Y-96000000I157000J0D01*
G01*
X160161000Y-61000000D02*
G75*
G02*
X159847000Y-61000000I-157000J0D01*
G01*
X159847000Y-61000000D02*
G75*
G02*
X160161000Y-61000000I157000J0D01*
G01*
X220157000Y-61000000D02*
G75*
G02*
X219843000Y-61000000I-157000J0D01*
G01*
X219843000Y-61000000D02*
G75*
G02*
X220157000Y-61000000I157000J0D01*
G01*
D10*
X160000000Y-61000000D02*
X160000000Y-66250000D01*
X172500000Y-61000000D02*
X172500000Y-73250000D01*
X157500000Y-96000000D02*
X157500000Y-82000000D01*
X172500000Y-96000000D02*
X172500000Y-94750000D01*
X208000000Y-61000000D02*
X208000000Y-73250000D01*
D11*
X157661000Y-96000000D02*
G75*
G02*
X157347000Y-96000000I-157000J0D01*
G01*
X157347000Y-96000000D02*
G75*
G02*
X157661000Y-96000000I157000J0D01*
G01*
X208157000Y-80772000D02*
G75*
G02*
X207843000Y-80772000I-157000J0D01*
G01*
X207843000Y-80772000D02*
G75*
G02*
X208157000Y-80772000I157000J0D01*
G01*
D10*
X208000000Y-82750000D02*
X208000000Y-78250000D01*
D13*
X189163220Y-75988866D02*
X188401316Y-75988866D01*
X188782268Y-76369819D02*
X188782268Y-75607914D01*
D14*
X191164473Y-97727000D02*
X188878759Y-97727000D01*
X191164473Y-57977000D02*
X188878759Y-57977000D01*
X190021616Y-59119857D02*
X190021616Y-56834142D01*
D13*
X194119048Y-89204819D02*
X194119048Y-88538152D01*
X194119048Y-88728628D02*
X194071429Y-88633390D01*
X194071429Y-88633390D02*
X194023810Y-88585771D01*
X194023810Y-88585771D02*
X193928572Y-88538152D01*
X193928572Y-88538152D02*
X193833334Y-88538152D01*
X193119048Y-89157200D02*
X193214286Y-89204819D01*
X193214286Y-89204819D02*
X193404762Y-89204819D01*
X193404762Y-89204819D02*
X193500000Y-89157200D01*
X193500000Y-89157200D02*
X193547619Y-89061961D01*
X193547619Y-89061961D02*
X193547619Y-88681009D01*
X193547619Y-88681009D02*
X193500000Y-88585771D01*
X193500000Y-88585771D02*
X193404762Y-88538152D01*
X193404762Y-88538152D02*
X193214286Y-88538152D01*
X193214286Y-88538152D02*
X193119048Y-88585771D01*
X193119048Y-88585771D02*
X193071429Y-88681009D01*
X193071429Y-88681009D02*
X193071429Y-88776247D01*
X193071429Y-88776247D02*
X193547619Y-88871485D01*
X192690476Y-89157200D02*
X192595238Y-89204819D01*
X192595238Y-89204819D02*
X192404762Y-89204819D01*
X192404762Y-89204819D02*
X192309524Y-89157200D01*
X192309524Y-89157200D02*
X192261905Y-89061961D01*
X192261905Y-89061961D02*
X192261905Y-89014342D01*
X192261905Y-89014342D02*
X192309524Y-88919104D01*
X192309524Y-88919104D02*
X192404762Y-88871485D01*
X192404762Y-88871485D02*
X192547619Y-88871485D01*
X192547619Y-88871485D02*
X192642857Y-88823866D01*
X192642857Y-88823866D02*
X192690476Y-88728628D01*
X192690476Y-88728628D02*
X192690476Y-88681009D01*
X192690476Y-88681009D02*
X192642857Y-88585771D01*
X192642857Y-88585771D02*
X192547619Y-88538152D01*
X192547619Y-88538152D02*
X192404762Y-88538152D01*
X192404762Y-88538152D02*
X192309524Y-88585771D01*
X191833333Y-89204819D02*
X191833333Y-88538152D01*
X191833333Y-88204819D02*
X191880952Y-88252438D01*
X191880952Y-88252438D02*
X191833333Y-88300057D01*
X191833333Y-88300057D02*
X191785714Y-88252438D01*
X191785714Y-88252438D02*
X191833333Y-88204819D01*
X191833333Y-88204819D02*
X191833333Y-88300057D01*
X191404762Y-89157200D02*
X191309524Y-89204819D01*
X191309524Y-89204819D02*
X191119048Y-89204819D01*
X191119048Y-89204819D02*
X191023810Y-89157200D01*
X191023810Y-89157200D02*
X190976191Y-89061961D01*
X190976191Y-89061961D02*
X190976191Y-89014342D01*
X190976191Y-89014342D02*
X191023810Y-88919104D01*
X191023810Y-88919104D02*
X191119048Y-88871485D01*
X191119048Y-88871485D02*
X191261905Y-88871485D01*
X191261905Y-88871485D02*
X191357143Y-88823866D01*
X191357143Y-88823866D02*
X191404762Y-88728628D01*
X191404762Y-88728628D02*
X191404762Y-88681009D01*
X191404762Y-88681009D02*
X191357143Y-88585771D01*
X191357143Y-88585771D02*
X191261905Y-88538152D01*
X191261905Y-88538152D02*
X191119048Y-88538152D01*
X191119048Y-88538152D02*
X191023810Y-88585771D01*
X190690476Y-88538152D02*
X190309524Y-88538152D01*
X190547619Y-88204819D02*
X190547619Y-89061961D01*
X190547619Y-89061961D02*
X190500000Y-89157200D01*
X190500000Y-89157200D02*
X190404762Y-89204819D01*
X190404762Y-89204819D02*
X190309524Y-89204819D01*
X189833333Y-89204819D02*
X189928571Y-89157200D01*
X189928571Y-89157200D02*
X189976190Y-89109580D01*
X189976190Y-89109580D02*
X190023809Y-89014342D01*
X190023809Y-89014342D02*
X190023809Y-88728628D01*
X190023809Y-88728628D02*
X189976190Y-88633390D01*
X189976190Y-88633390D02*
X189928571Y-88585771D01*
X189928571Y-88585771D02*
X189833333Y-88538152D01*
X189833333Y-88538152D02*
X189690476Y-88538152D01*
X189690476Y-88538152D02*
X189595238Y-88585771D01*
X189595238Y-88585771D02*
X189547619Y-88633390D01*
X189547619Y-88633390D02*
X189500000Y-88728628D01*
X189500000Y-88728628D02*
X189500000Y-89014342D01*
X189500000Y-89014342D02*
X189547619Y-89109580D01*
X189547619Y-89109580D02*
X189595238Y-89157200D01*
X189595238Y-89157200D02*
X189690476Y-89204819D01*
X189690476Y-89204819D02*
X189833333Y-89204819D01*
X189071428Y-89204819D02*
X189071428Y-88538152D01*
X189071428Y-88728628D02*
X189023809Y-88633390D01*
X189023809Y-88633390D02*
X188976190Y-88585771D01*
X188976190Y-88585771D02*
X188880952Y-88538152D01*
X188880952Y-88538152D02*
X188785714Y-88538152D01*
X188690476Y-89300057D02*
X187928571Y-89300057D01*
X187547618Y-89204819D02*
X187642856Y-89157200D01*
X187642856Y-89157200D02*
X187690475Y-89061961D01*
X187690475Y-89061961D02*
X187690475Y-88204819D01*
X186785713Y-89157200D02*
X186880951Y-89204819D01*
X186880951Y-89204819D02*
X187071427Y-89204819D01*
X187071427Y-89204819D02*
X187166665Y-89157200D01*
X187166665Y-89157200D02*
X187214284Y-89061961D01*
X187214284Y-89061961D02*
X187214284Y-88681009D01*
X187214284Y-88681009D02*
X187166665Y-88585771D01*
X187166665Y-88585771D02*
X187071427Y-88538152D01*
X187071427Y-88538152D02*
X186880951Y-88538152D01*
X186880951Y-88538152D02*
X186785713Y-88585771D01*
X186785713Y-88585771D02*
X186738094Y-88681009D01*
X186738094Y-88681009D02*
X186738094Y-88776247D01*
X186738094Y-88776247D02*
X187214284Y-88871485D01*
X185880951Y-89204819D02*
X185880951Y-88204819D01*
X185880951Y-89157200D02*
X185976189Y-89204819D01*
X185976189Y-89204819D02*
X186166665Y-89204819D01*
X186166665Y-89204819D02*
X186261903Y-89157200D01*
X186261903Y-89157200D02*
X186309522Y-89109580D01*
X186309522Y-89109580D02*
X186357141Y-89014342D01*
X186357141Y-89014342D02*
X186357141Y-88728628D01*
X186357141Y-88728628D02*
X186309522Y-88633390D01*
X186309522Y-88633390D02*
X186261903Y-88585771D01*
X186261903Y-88585771D02*
X186166665Y-88538152D01*
X186166665Y-88538152D02*
X185976189Y-88538152D01*
X185976189Y-88538152D02*
X185880951Y-88585771D01*
X194785714Y-55454819D02*
X194880952Y-55407200D01*
X194880952Y-55407200D02*
X194928571Y-55359580D01*
X194928571Y-55359580D02*
X194976190Y-55264342D01*
X194976190Y-55264342D02*
X194976190Y-54978628D01*
X194976190Y-54978628D02*
X194928571Y-54883390D01*
X194928571Y-54883390D02*
X194880952Y-54835771D01*
X194880952Y-54835771D02*
X194785714Y-54788152D01*
X194785714Y-54788152D02*
X194642857Y-54788152D01*
X194642857Y-54788152D02*
X194547619Y-54835771D01*
X194547619Y-54835771D02*
X194500000Y-54883390D01*
X194500000Y-54883390D02*
X194452381Y-54978628D01*
X194452381Y-54978628D02*
X194452381Y-55264342D01*
X194452381Y-55264342D02*
X194500000Y-55359580D01*
X194500000Y-55359580D02*
X194547619Y-55407200D01*
X194547619Y-55407200D02*
X194642857Y-55454819D01*
X194642857Y-55454819D02*
X194785714Y-55454819D01*
X194023809Y-54788152D02*
X194023809Y-55454819D01*
X194023809Y-54883390D02*
X193976190Y-54835771D01*
X193976190Y-54835771D02*
X193880952Y-54788152D01*
X193880952Y-54788152D02*
X193738095Y-54788152D01*
X193738095Y-54788152D02*
X193642857Y-54835771D01*
X193642857Y-54835771D02*
X193595238Y-54931009D01*
X193595238Y-54931009D02*
X193595238Y-55454819D01*
X192404762Y-54407200D02*
X193261904Y-55692914D01*
X191928571Y-55454819D02*
X192023809Y-55407200D01*
X192023809Y-55407200D02*
X192071428Y-55359580D01*
X192071428Y-55359580D02*
X192119047Y-55264342D01*
X192119047Y-55264342D02*
X192119047Y-54978628D01*
X192119047Y-54978628D02*
X192071428Y-54883390D01*
X192071428Y-54883390D02*
X192023809Y-54835771D01*
X192023809Y-54835771D02*
X191928571Y-54788152D01*
X191928571Y-54788152D02*
X191785714Y-54788152D01*
X191785714Y-54788152D02*
X191690476Y-54835771D01*
X191690476Y-54835771D02*
X191642857Y-54883390D01*
X191642857Y-54883390D02*
X191595238Y-54978628D01*
X191595238Y-54978628D02*
X191595238Y-55264342D01*
X191595238Y-55264342D02*
X191642857Y-55359580D01*
X191642857Y-55359580D02*
X191690476Y-55407200D01*
X191690476Y-55407200D02*
X191785714Y-55454819D01*
X191785714Y-55454819D02*
X191928571Y-55454819D01*
X191309523Y-54788152D02*
X190928571Y-54788152D01*
X191166666Y-55454819D02*
X191166666Y-54597676D01*
X191166666Y-54597676D02*
X191119047Y-54502438D01*
X191119047Y-54502438D02*
X191023809Y-54454819D01*
X191023809Y-54454819D02*
X190928571Y-54454819D01*
X190738094Y-54788152D02*
X190357142Y-54788152D01*
X190595237Y-55454819D02*
X190595237Y-54597676D01*
X190595237Y-54597676D02*
X190547618Y-54502438D01*
X190547618Y-54502438D02*
X190452380Y-54454819D01*
X190452380Y-54454819D02*
X190357142Y-54454819D01*
X189309522Y-55407200D02*
X189214284Y-55454819D01*
X189214284Y-55454819D02*
X189023808Y-55454819D01*
X189023808Y-55454819D02*
X188928570Y-55407200D01*
X188928570Y-55407200D02*
X188880951Y-55311961D01*
X188880951Y-55311961D02*
X188880951Y-55264342D01*
X188880951Y-55264342D02*
X188928570Y-55169104D01*
X188928570Y-55169104D02*
X189023808Y-55121485D01*
X189023808Y-55121485D02*
X189166665Y-55121485D01*
X189166665Y-55121485D02*
X189261903Y-55073866D01*
X189261903Y-55073866D02*
X189309522Y-54978628D01*
X189309522Y-54978628D02*
X189309522Y-54931009D01*
X189309522Y-54931009D02*
X189261903Y-54835771D01*
X189261903Y-54835771D02*
X189166665Y-54788152D01*
X189166665Y-54788152D02*
X189023808Y-54788152D01*
X189023808Y-54788152D02*
X188928570Y-54835771D01*
X188547617Y-54788152D02*
X188357141Y-55454819D01*
X188357141Y-55454819D02*
X188166665Y-54978628D01*
X188166665Y-54978628D02*
X187976189Y-55454819D01*
X187976189Y-55454819D02*
X187785713Y-54788152D01*
X187404760Y-55454819D02*
X187404760Y-54788152D01*
X187404760Y-54454819D02*
X187452379Y-54502438D01*
X187452379Y-54502438D02*
X187404760Y-54550057D01*
X187404760Y-54550057D02*
X187357141Y-54502438D01*
X187357141Y-54502438D02*
X187404760Y-54454819D01*
X187404760Y-54454819D02*
X187404760Y-54550057D01*
X187071427Y-54788152D02*
X186690475Y-54788152D01*
X186928570Y-54454819D02*
X186928570Y-55311961D01*
X186928570Y-55311961D02*
X186880951Y-55407200D01*
X186880951Y-55407200D02*
X186785713Y-55454819D01*
X186785713Y-55454819D02*
X186690475Y-55454819D01*
X185928570Y-55407200D02*
X186023808Y-55454819D01*
X186023808Y-55454819D02*
X186214284Y-55454819D01*
X186214284Y-55454819D02*
X186309522Y-55407200D01*
X186309522Y-55407200D02*
X186357141Y-55359580D01*
X186357141Y-55359580D02*
X186404760Y-55264342D01*
X186404760Y-55264342D02*
X186404760Y-54978628D01*
X186404760Y-54978628D02*
X186357141Y-54883390D01*
X186357141Y-54883390D02*
X186309522Y-54835771D01*
X186309522Y-54835771D02*
X186214284Y-54788152D01*
X186214284Y-54788152D02*
X186023808Y-54788152D01*
X186023808Y-54788152D02*
X185928570Y-54835771D01*
X185499998Y-55454819D02*
X185499998Y-54454819D01*
X185071427Y-55454819D02*
X185071427Y-54931009D01*
X185071427Y-54931009D02*
X185119046Y-54835771D01*
X185119046Y-54835771D02*
X185214284Y-54788152D01*
X185214284Y-54788152D02*
X185357141Y-54788152D01*
X185357141Y-54788152D02*
X185452379Y-54835771D01*
X185452379Y-54835771D02*
X185499998Y-54883390D01*
X217454819Y-67095238D02*
X216788152Y-67095238D01*
X216883390Y-67095238D02*
X216835771Y-67142857D01*
X216835771Y-67142857D02*
X216788152Y-67238095D01*
X216788152Y-67238095D02*
X216788152Y-67380952D01*
X216788152Y-67380952D02*
X216835771Y-67476190D01*
X216835771Y-67476190D02*
X216931009Y-67523809D01*
X216931009Y-67523809D02*
X217454819Y-67523809D01*
X216931009Y-67523809D02*
X216835771Y-67571428D01*
X216835771Y-67571428D02*
X216788152Y-67666666D01*
X216788152Y-67666666D02*
X216788152Y-67809523D01*
X216788152Y-67809523D02*
X216835771Y-67904762D01*
X216835771Y-67904762D02*
X216931009Y-67952381D01*
X216931009Y-67952381D02*
X217454819Y-67952381D01*
X217454819Y-68571428D02*
X217407200Y-68476190D01*
X217407200Y-68476190D02*
X217359580Y-68428571D01*
X217359580Y-68428571D02*
X217264342Y-68380952D01*
X217264342Y-68380952D02*
X216978628Y-68380952D01*
X216978628Y-68380952D02*
X216883390Y-68428571D01*
X216883390Y-68428571D02*
X216835771Y-68476190D01*
X216835771Y-68476190D02*
X216788152Y-68571428D01*
X216788152Y-68571428D02*
X216788152Y-68714285D01*
X216788152Y-68714285D02*
X216835771Y-68809523D01*
X216835771Y-68809523D02*
X216883390Y-68857142D01*
X216883390Y-68857142D02*
X216978628Y-68904761D01*
X216978628Y-68904761D02*
X217264342Y-68904761D01*
X217264342Y-68904761D02*
X217359580Y-68857142D01*
X217359580Y-68857142D02*
X217407200Y-68809523D01*
X217407200Y-68809523D02*
X217454819Y-68714285D01*
X217454819Y-68714285D02*
X217454819Y-68571428D01*
X216788152Y-69190476D02*
X216788152Y-69571428D01*
X216454819Y-69333333D02*
X217311961Y-69333333D01*
X217311961Y-69333333D02*
X217407200Y-69380952D01*
X217407200Y-69380952D02*
X217454819Y-69476190D01*
X217454819Y-69476190D02*
X217454819Y-69571428D01*
X217454819Y-70047619D02*
X217407200Y-69952381D01*
X217407200Y-69952381D02*
X217359580Y-69904762D01*
X217359580Y-69904762D02*
X217264342Y-69857143D01*
X217264342Y-69857143D02*
X216978628Y-69857143D01*
X216978628Y-69857143D02*
X216883390Y-69904762D01*
X216883390Y-69904762D02*
X216835771Y-69952381D01*
X216835771Y-69952381D02*
X216788152Y-70047619D01*
X216788152Y-70047619D02*
X216788152Y-70190476D01*
X216788152Y-70190476D02*
X216835771Y-70285714D01*
X216835771Y-70285714D02*
X216883390Y-70333333D01*
X216883390Y-70333333D02*
X216978628Y-70380952D01*
X216978628Y-70380952D02*
X217264342Y-70380952D01*
X217264342Y-70380952D02*
X217359580Y-70333333D01*
X217359580Y-70333333D02*
X217407200Y-70285714D01*
X217407200Y-70285714D02*
X217454819Y-70190476D01*
X217454819Y-70190476D02*
X217454819Y-70047619D01*
X217454819Y-70809524D02*
X216788152Y-70809524D01*
X216978628Y-70809524D02*
X216883390Y-70857143D01*
X216883390Y-70857143D02*
X216835771Y-70904762D01*
X216835771Y-70904762D02*
X216788152Y-71000000D01*
X216788152Y-71000000D02*
X216788152Y-71095238D01*
X216550057Y-71380953D02*
X216502438Y-71428572D01*
X216502438Y-71428572D02*
X216454819Y-71523810D01*
X216454819Y-71523810D02*
X216454819Y-71761905D01*
X216454819Y-71761905D02*
X216502438Y-71857143D01*
X216502438Y-71857143D02*
X216550057Y-71904762D01*
X216550057Y-71904762D02*
X216645295Y-71952381D01*
X216645295Y-71952381D02*
X216740533Y-71952381D01*
X216740533Y-71952381D02*
X216883390Y-71904762D01*
X216883390Y-71904762D02*
X217454819Y-71333334D01*
X217454819Y-71333334D02*
X217454819Y-71952381D01*
X211071428Y-88954819D02*
X211071428Y-88288152D01*
X211071428Y-88478628D02*
X211023809Y-88383390D01*
X211023809Y-88383390D02*
X210976190Y-88335771D01*
X210976190Y-88335771D02*
X210880952Y-88288152D01*
X210880952Y-88288152D02*
X210785714Y-88288152D01*
X210071428Y-88907200D02*
X210166666Y-88954819D01*
X210166666Y-88954819D02*
X210357142Y-88954819D01*
X210357142Y-88954819D02*
X210452380Y-88907200D01*
X210452380Y-88907200D02*
X210499999Y-88811961D01*
X210499999Y-88811961D02*
X210499999Y-88431009D01*
X210499999Y-88431009D02*
X210452380Y-88335771D01*
X210452380Y-88335771D02*
X210357142Y-88288152D01*
X210357142Y-88288152D02*
X210166666Y-88288152D01*
X210166666Y-88288152D02*
X210071428Y-88335771D01*
X210071428Y-88335771D02*
X210023809Y-88431009D01*
X210023809Y-88431009D02*
X210023809Y-88526247D01*
X210023809Y-88526247D02*
X210499999Y-88621485D01*
X209642856Y-88907200D02*
X209547618Y-88954819D01*
X209547618Y-88954819D02*
X209357142Y-88954819D01*
X209357142Y-88954819D02*
X209261904Y-88907200D01*
X209261904Y-88907200D02*
X209214285Y-88811961D01*
X209214285Y-88811961D02*
X209214285Y-88764342D01*
X209214285Y-88764342D02*
X209261904Y-88669104D01*
X209261904Y-88669104D02*
X209357142Y-88621485D01*
X209357142Y-88621485D02*
X209499999Y-88621485D01*
X209499999Y-88621485D02*
X209595237Y-88573866D01*
X209595237Y-88573866D02*
X209642856Y-88478628D01*
X209642856Y-88478628D02*
X209642856Y-88431009D01*
X209642856Y-88431009D02*
X209595237Y-88335771D01*
X209595237Y-88335771D02*
X209499999Y-88288152D01*
X209499999Y-88288152D02*
X209357142Y-88288152D01*
X209357142Y-88288152D02*
X209261904Y-88335771D01*
X208785713Y-88954819D02*
X208785713Y-88288152D01*
X208785713Y-87954819D02*
X208833332Y-88002438D01*
X208833332Y-88002438D02*
X208785713Y-88050057D01*
X208785713Y-88050057D02*
X208738094Y-88002438D01*
X208738094Y-88002438D02*
X208785713Y-87954819D01*
X208785713Y-87954819D02*
X208785713Y-88050057D01*
X208357142Y-88907200D02*
X208261904Y-88954819D01*
X208261904Y-88954819D02*
X208071428Y-88954819D01*
X208071428Y-88954819D02*
X207976190Y-88907200D01*
X207976190Y-88907200D02*
X207928571Y-88811961D01*
X207928571Y-88811961D02*
X207928571Y-88764342D01*
X207928571Y-88764342D02*
X207976190Y-88669104D01*
X207976190Y-88669104D02*
X208071428Y-88621485D01*
X208071428Y-88621485D02*
X208214285Y-88621485D01*
X208214285Y-88621485D02*
X208309523Y-88573866D01*
X208309523Y-88573866D02*
X208357142Y-88478628D01*
X208357142Y-88478628D02*
X208357142Y-88431009D01*
X208357142Y-88431009D02*
X208309523Y-88335771D01*
X208309523Y-88335771D02*
X208214285Y-88288152D01*
X208214285Y-88288152D02*
X208071428Y-88288152D01*
X208071428Y-88288152D02*
X207976190Y-88335771D01*
X207642856Y-88288152D02*
X207261904Y-88288152D01*
X207499999Y-87954819D02*
X207499999Y-88811961D01*
X207499999Y-88811961D02*
X207452380Y-88907200D01*
X207452380Y-88907200D02*
X207357142Y-88954819D01*
X207357142Y-88954819D02*
X207261904Y-88954819D01*
X206785713Y-88954819D02*
X206880951Y-88907200D01*
X206880951Y-88907200D02*
X206928570Y-88859580D01*
X206928570Y-88859580D02*
X206976189Y-88764342D01*
X206976189Y-88764342D02*
X206976189Y-88478628D01*
X206976189Y-88478628D02*
X206928570Y-88383390D01*
X206928570Y-88383390D02*
X206880951Y-88335771D01*
X206880951Y-88335771D02*
X206785713Y-88288152D01*
X206785713Y-88288152D02*
X206642856Y-88288152D01*
X206642856Y-88288152D02*
X206547618Y-88335771D01*
X206547618Y-88335771D02*
X206499999Y-88383390D01*
X206499999Y-88383390D02*
X206452380Y-88478628D01*
X206452380Y-88478628D02*
X206452380Y-88764342D01*
X206452380Y-88764342D02*
X206499999Y-88859580D01*
X206499999Y-88859580D02*
X206547618Y-88907200D01*
X206547618Y-88907200D02*
X206642856Y-88954819D01*
X206642856Y-88954819D02*
X206785713Y-88954819D01*
X206023808Y-88954819D02*
X206023808Y-88288152D01*
X206023808Y-88478628D02*
X205976189Y-88383390D01*
X205976189Y-88383390D02*
X205928570Y-88335771D01*
X205928570Y-88335771D02*
X205833332Y-88288152D01*
X205833332Y-88288152D02*
X205738094Y-88288152D01*
X205452379Y-88050057D02*
X205404760Y-88002438D01*
X205404760Y-88002438D02*
X205309522Y-87954819D01*
X205309522Y-87954819D02*
X205071427Y-87954819D01*
X205071427Y-87954819D02*
X204976189Y-88002438D01*
X204976189Y-88002438D02*
X204928570Y-88050057D01*
X204928570Y-88050057D02*
X204880951Y-88145295D01*
X204880951Y-88145295D02*
X204880951Y-88240533D01*
X204880951Y-88240533D02*
X204928570Y-88383390D01*
X204928570Y-88383390D02*
X205499998Y-88954819D01*
X205499998Y-88954819D02*
X204880951Y-88954819D01*
X157454819Y-67595238D02*
X156788152Y-67595238D01*
X156883390Y-67595238D02*
X156835771Y-67642857D01*
X156835771Y-67642857D02*
X156788152Y-67738095D01*
X156788152Y-67738095D02*
X156788152Y-67880952D01*
X156788152Y-67880952D02*
X156835771Y-67976190D01*
X156835771Y-67976190D02*
X156931009Y-68023809D01*
X156931009Y-68023809D02*
X157454819Y-68023809D01*
X156931009Y-68023809D02*
X156835771Y-68071428D01*
X156835771Y-68071428D02*
X156788152Y-68166666D01*
X156788152Y-68166666D02*
X156788152Y-68309523D01*
X156788152Y-68309523D02*
X156835771Y-68404762D01*
X156835771Y-68404762D02*
X156931009Y-68452381D01*
X156931009Y-68452381D02*
X157454819Y-68452381D01*
X157454819Y-69071428D02*
X157407200Y-68976190D01*
X157407200Y-68976190D02*
X157359580Y-68928571D01*
X157359580Y-68928571D02*
X157264342Y-68880952D01*
X157264342Y-68880952D02*
X156978628Y-68880952D01*
X156978628Y-68880952D02*
X156883390Y-68928571D01*
X156883390Y-68928571D02*
X156835771Y-68976190D01*
X156835771Y-68976190D02*
X156788152Y-69071428D01*
X156788152Y-69071428D02*
X156788152Y-69214285D01*
X156788152Y-69214285D02*
X156835771Y-69309523D01*
X156835771Y-69309523D02*
X156883390Y-69357142D01*
X156883390Y-69357142D02*
X156978628Y-69404761D01*
X156978628Y-69404761D02*
X157264342Y-69404761D01*
X157264342Y-69404761D02*
X157359580Y-69357142D01*
X157359580Y-69357142D02*
X157407200Y-69309523D01*
X157407200Y-69309523D02*
X157454819Y-69214285D01*
X157454819Y-69214285D02*
X157454819Y-69071428D01*
X156788152Y-69690476D02*
X156788152Y-70071428D01*
X156454819Y-69833333D02*
X157311961Y-69833333D01*
X157311961Y-69833333D02*
X157407200Y-69880952D01*
X157407200Y-69880952D02*
X157454819Y-69976190D01*
X157454819Y-69976190D02*
X157454819Y-70071428D01*
X157454819Y-70547619D02*
X157407200Y-70452381D01*
X157407200Y-70452381D02*
X157359580Y-70404762D01*
X157359580Y-70404762D02*
X157264342Y-70357143D01*
X157264342Y-70357143D02*
X156978628Y-70357143D01*
X156978628Y-70357143D02*
X156883390Y-70404762D01*
X156883390Y-70404762D02*
X156835771Y-70452381D01*
X156835771Y-70452381D02*
X156788152Y-70547619D01*
X156788152Y-70547619D02*
X156788152Y-70690476D01*
X156788152Y-70690476D02*
X156835771Y-70785714D01*
X156835771Y-70785714D02*
X156883390Y-70833333D01*
X156883390Y-70833333D02*
X156978628Y-70880952D01*
X156978628Y-70880952D02*
X157264342Y-70880952D01*
X157264342Y-70880952D02*
X157359580Y-70833333D01*
X157359580Y-70833333D02*
X157407200Y-70785714D01*
X157407200Y-70785714D02*
X157454819Y-70690476D01*
X157454819Y-70690476D02*
X157454819Y-70547619D01*
X157454819Y-71309524D02*
X156788152Y-71309524D01*
X156978628Y-71309524D02*
X156883390Y-71357143D01*
X156883390Y-71357143D02*
X156835771Y-71404762D01*
X156835771Y-71404762D02*
X156788152Y-71500000D01*
X156788152Y-71500000D02*
X156788152Y-71595238D01*
X157454819Y-72452381D02*
X157454819Y-71880953D01*
X157454819Y-72166667D02*
X156454819Y-72166667D01*
X156454819Y-72166667D02*
X156597676Y-72071429D01*
X156597676Y-72071429D02*
X156692914Y-71976191D01*
X156692914Y-71976191D02*
X156740533Y-71880953D01*
X218726190Y-78627152D02*
X218345238Y-78627152D01*
X218583333Y-78293819D02*
X218583333Y-79150961D01*
X218583333Y-79150961D02*
X218535714Y-79246200D01*
X218535714Y-79246200D02*
X218440476Y-79293819D01*
X218440476Y-79293819D02*
X218345238Y-79293819D01*
X218011904Y-79293819D02*
X218011904Y-78627152D01*
X218011904Y-78817628D02*
X217964285Y-78722390D01*
X217964285Y-78722390D02*
X217916666Y-78674771D01*
X217916666Y-78674771D02*
X217821428Y-78627152D01*
X217821428Y-78627152D02*
X217726190Y-78627152D01*
X216964285Y-79293819D02*
X216964285Y-78770009D01*
X216964285Y-78770009D02*
X217011904Y-78674771D01*
X217011904Y-78674771D02*
X217107142Y-78627152D01*
X217107142Y-78627152D02*
X217297618Y-78627152D01*
X217297618Y-78627152D02*
X217392856Y-78674771D01*
X216964285Y-79246200D02*
X217059523Y-79293819D01*
X217059523Y-79293819D02*
X217297618Y-79293819D01*
X217297618Y-79293819D02*
X217392856Y-79246200D01*
X217392856Y-79246200D02*
X217440475Y-79150961D01*
X217440475Y-79150961D02*
X217440475Y-79055723D01*
X217440475Y-79055723D02*
X217392856Y-78960485D01*
X217392856Y-78960485D02*
X217297618Y-78912866D01*
X217297618Y-78912866D02*
X217059523Y-78912866D01*
X217059523Y-78912866D02*
X216964285Y-78865247D01*
X216488094Y-78627152D02*
X216488094Y-79293819D01*
X216488094Y-78722390D02*
X216440475Y-78674771D01*
X216440475Y-78674771D02*
X216345237Y-78627152D01*
X216345237Y-78627152D02*
X216202380Y-78627152D01*
X216202380Y-78627152D02*
X216107142Y-78674771D01*
X216107142Y-78674771D02*
X216059523Y-78770009D01*
X216059523Y-78770009D02*
X216059523Y-79293819D01*
X215630951Y-79246200D02*
X215535713Y-79293819D01*
X215535713Y-79293819D02*
X215345237Y-79293819D01*
X215345237Y-79293819D02*
X215249999Y-79246200D01*
X215249999Y-79246200D02*
X215202380Y-79150961D01*
X215202380Y-79150961D02*
X215202380Y-79103342D01*
X215202380Y-79103342D02*
X215249999Y-79008104D01*
X215249999Y-79008104D02*
X215345237Y-78960485D01*
X215345237Y-78960485D02*
X215488094Y-78960485D01*
X215488094Y-78960485D02*
X215583332Y-78912866D01*
X215583332Y-78912866D02*
X215630951Y-78817628D01*
X215630951Y-78817628D02*
X215630951Y-78770009D01*
X215630951Y-78770009D02*
X215583332Y-78674771D01*
X215583332Y-78674771D02*
X215488094Y-78627152D01*
X215488094Y-78627152D02*
X215345237Y-78627152D01*
X215345237Y-78627152D02*
X215249999Y-78674771D01*
X214773808Y-79293819D02*
X214773808Y-78627152D01*
X214773808Y-78293819D02*
X214821427Y-78341438D01*
X214821427Y-78341438D02*
X214773808Y-78389057D01*
X214773808Y-78389057D02*
X214726189Y-78341438D01*
X214726189Y-78341438D02*
X214773808Y-78293819D01*
X214773808Y-78293819D02*
X214773808Y-78389057D01*
X214345237Y-79246200D02*
X214249999Y-79293819D01*
X214249999Y-79293819D02*
X214059523Y-79293819D01*
X214059523Y-79293819D02*
X213964285Y-79246200D01*
X213964285Y-79246200D02*
X213916666Y-79150961D01*
X213916666Y-79150961D02*
X213916666Y-79103342D01*
X213916666Y-79103342D02*
X213964285Y-79008104D01*
X213964285Y-79008104D02*
X214059523Y-78960485D01*
X214059523Y-78960485D02*
X214202380Y-78960485D01*
X214202380Y-78960485D02*
X214297618Y-78912866D01*
X214297618Y-78912866D02*
X214345237Y-78817628D01*
X214345237Y-78817628D02*
X214345237Y-78770009D01*
X214345237Y-78770009D02*
X214297618Y-78674771D01*
X214297618Y-78674771D02*
X214202380Y-78627152D01*
X214202380Y-78627152D02*
X214059523Y-78627152D01*
X214059523Y-78627152D02*
X213964285Y-78674771D01*
X213630951Y-78627152D02*
X213249999Y-78627152D01*
X213488094Y-78293819D02*
X213488094Y-79150961D01*
X213488094Y-79150961D02*
X213440475Y-79246200D01*
X213440475Y-79246200D02*
X213345237Y-79293819D01*
X213345237Y-79293819D02*
X213249999Y-79293819D01*
X212773808Y-79293819D02*
X212869046Y-79246200D01*
X212869046Y-79246200D02*
X212916665Y-79198580D01*
X212916665Y-79198580D02*
X212964284Y-79103342D01*
X212964284Y-79103342D02*
X212964284Y-78817628D01*
X212964284Y-78817628D02*
X212916665Y-78722390D01*
X212916665Y-78722390D02*
X212869046Y-78674771D01*
X212869046Y-78674771D02*
X212773808Y-78627152D01*
X212773808Y-78627152D02*
X212630951Y-78627152D01*
X212630951Y-78627152D02*
X212535713Y-78674771D01*
X212535713Y-78674771D02*
X212488094Y-78722390D01*
X212488094Y-78722390D02*
X212440475Y-78817628D01*
X212440475Y-78817628D02*
X212440475Y-79103342D01*
X212440475Y-79103342D02*
X212488094Y-79198580D01*
X212488094Y-79198580D02*
X212535713Y-79246200D01*
X212535713Y-79246200D02*
X212630951Y-79293819D01*
X212630951Y-79293819D02*
X212773808Y-79293819D01*
X212011903Y-79293819D02*
X212011903Y-78627152D01*
X212011903Y-78817628D02*
X211964284Y-78722390D01*
X211964284Y-78722390D02*
X211916665Y-78674771D01*
X211916665Y-78674771D02*
X211821427Y-78627152D01*
X211821427Y-78627152D02*
X211726189Y-78627152D01*
X211440474Y-78389057D02*
X211392855Y-78341438D01*
X211392855Y-78341438D02*
X211297617Y-78293819D01*
X211297617Y-78293819D02*
X211059522Y-78293819D01*
X211059522Y-78293819D02*
X210964284Y-78341438D01*
X210964284Y-78341438D02*
X210916665Y-78389057D01*
X210916665Y-78389057D02*
X210869046Y-78484295D01*
X210869046Y-78484295D02*
X210869046Y-78579533D01*
X210869046Y-78579533D02*
X210916665Y-78722390D01*
X210916665Y-78722390D02*
X211488093Y-79293819D01*
X211488093Y-79293819D02*
X210869046Y-79293819D01*
X175571428Y-88954819D02*
X175571428Y-88288152D01*
X175571428Y-88478628D02*
X175523809Y-88383390D01*
X175523809Y-88383390D02*
X175476190Y-88335771D01*
X175476190Y-88335771D02*
X175380952Y-88288152D01*
X175380952Y-88288152D02*
X175285714Y-88288152D01*
X174571428Y-88907200D02*
X174666666Y-88954819D01*
X174666666Y-88954819D02*
X174857142Y-88954819D01*
X174857142Y-88954819D02*
X174952380Y-88907200D01*
X174952380Y-88907200D02*
X174999999Y-88811961D01*
X174999999Y-88811961D02*
X174999999Y-88431009D01*
X174999999Y-88431009D02*
X174952380Y-88335771D01*
X174952380Y-88335771D02*
X174857142Y-88288152D01*
X174857142Y-88288152D02*
X174666666Y-88288152D01*
X174666666Y-88288152D02*
X174571428Y-88335771D01*
X174571428Y-88335771D02*
X174523809Y-88431009D01*
X174523809Y-88431009D02*
X174523809Y-88526247D01*
X174523809Y-88526247D02*
X174999999Y-88621485D01*
X174142856Y-88907200D02*
X174047618Y-88954819D01*
X174047618Y-88954819D02*
X173857142Y-88954819D01*
X173857142Y-88954819D02*
X173761904Y-88907200D01*
X173761904Y-88907200D02*
X173714285Y-88811961D01*
X173714285Y-88811961D02*
X173714285Y-88764342D01*
X173714285Y-88764342D02*
X173761904Y-88669104D01*
X173761904Y-88669104D02*
X173857142Y-88621485D01*
X173857142Y-88621485D02*
X173999999Y-88621485D01*
X173999999Y-88621485D02*
X174095237Y-88573866D01*
X174095237Y-88573866D02*
X174142856Y-88478628D01*
X174142856Y-88478628D02*
X174142856Y-88431009D01*
X174142856Y-88431009D02*
X174095237Y-88335771D01*
X174095237Y-88335771D02*
X173999999Y-88288152D01*
X173999999Y-88288152D02*
X173857142Y-88288152D01*
X173857142Y-88288152D02*
X173761904Y-88335771D01*
X173285713Y-88954819D02*
X173285713Y-88288152D01*
X173285713Y-87954819D02*
X173333332Y-88002438D01*
X173333332Y-88002438D02*
X173285713Y-88050057D01*
X173285713Y-88050057D02*
X173238094Y-88002438D01*
X173238094Y-88002438D02*
X173285713Y-87954819D01*
X173285713Y-87954819D02*
X173285713Y-88050057D01*
X172857142Y-88907200D02*
X172761904Y-88954819D01*
X172761904Y-88954819D02*
X172571428Y-88954819D01*
X172571428Y-88954819D02*
X172476190Y-88907200D01*
X172476190Y-88907200D02*
X172428571Y-88811961D01*
X172428571Y-88811961D02*
X172428571Y-88764342D01*
X172428571Y-88764342D02*
X172476190Y-88669104D01*
X172476190Y-88669104D02*
X172571428Y-88621485D01*
X172571428Y-88621485D02*
X172714285Y-88621485D01*
X172714285Y-88621485D02*
X172809523Y-88573866D01*
X172809523Y-88573866D02*
X172857142Y-88478628D01*
X172857142Y-88478628D02*
X172857142Y-88431009D01*
X172857142Y-88431009D02*
X172809523Y-88335771D01*
X172809523Y-88335771D02*
X172714285Y-88288152D01*
X172714285Y-88288152D02*
X172571428Y-88288152D01*
X172571428Y-88288152D02*
X172476190Y-88335771D01*
X172142856Y-88288152D02*
X171761904Y-88288152D01*
X171999999Y-87954819D02*
X171999999Y-88811961D01*
X171999999Y-88811961D02*
X171952380Y-88907200D01*
X171952380Y-88907200D02*
X171857142Y-88954819D01*
X171857142Y-88954819D02*
X171761904Y-88954819D01*
X171285713Y-88954819D02*
X171380951Y-88907200D01*
X171380951Y-88907200D02*
X171428570Y-88859580D01*
X171428570Y-88859580D02*
X171476189Y-88764342D01*
X171476189Y-88764342D02*
X171476189Y-88478628D01*
X171476189Y-88478628D02*
X171428570Y-88383390D01*
X171428570Y-88383390D02*
X171380951Y-88335771D01*
X171380951Y-88335771D02*
X171285713Y-88288152D01*
X171285713Y-88288152D02*
X171142856Y-88288152D01*
X171142856Y-88288152D02*
X171047618Y-88335771D01*
X171047618Y-88335771D02*
X170999999Y-88383390D01*
X170999999Y-88383390D02*
X170952380Y-88478628D01*
X170952380Y-88478628D02*
X170952380Y-88764342D01*
X170952380Y-88764342D02*
X170999999Y-88859580D01*
X170999999Y-88859580D02*
X171047618Y-88907200D01*
X171047618Y-88907200D02*
X171142856Y-88954819D01*
X171142856Y-88954819D02*
X171285713Y-88954819D01*
X170523808Y-88954819D02*
X170523808Y-88288152D01*
X170523808Y-88478628D02*
X170476189Y-88383390D01*
X170476189Y-88383390D02*
X170428570Y-88335771D01*
X170428570Y-88335771D02*
X170333332Y-88288152D01*
X170333332Y-88288152D02*
X170238094Y-88288152D01*
X169380951Y-88954819D02*
X169952379Y-88954819D01*
X169666665Y-88954819D02*
X169666665Y-87954819D01*
X169666665Y-87954819D02*
X169761903Y-88097676D01*
X169761903Y-88097676D02*
X169857141Y-88192914D01*
X169857141Y-88192914D02*
X169952379Y-88240533D01*
X220014643Y-57954819D02*
X220014643Y-56954819D01*
X220014643Y-57335771D02*
X219919405Y-57288152D01*
X219919405Y-57288152D02*
X219728929Y-57288152D01*
X219728929Y-57288152D02*
X219633691Y-57335771D01*
X219633691Y-57335771D02*
X219586072Y-57383390D01*
X219586072Y-57383390D02*
X219538453Y-57478628D01*
X219538453Y-57478628D02*
X219538453Y-57764342D01*
X219538453Y-57764342D02*
X219586072Y-57859580D01*
X219586072Y-57859580D02*
X219633691Y-57907200D01*
X219633691Y-57907200D02*
X219728929Y-57954819D01*
X219728929Y-57954819D02*
X219919405Y-57954819D01*
X219919405Y-57954819D02*
X220014643Y-57907200D01*
X218681310Y-57954819D02*
X218681310Y-57431009D01*
X218681310Y-57431009D02*
X218728929Y-57335771D01*
X218728929Y-57335771D02*
X218824167Y-57288152D01*
X218824167Y-57288152D02*
X219014643Y-57288152D01*
X219014643Y-57288152D02*
X219109881Y-57335771D01*
X218681310Y-57907200D02*
X218776548Y-57954819D01*
X218776548Y-57954819D02*
X219014643Y-57954819D01*
X219014643Y-57954819D02*
X219109881Y-57907200D01*
X219109881Y-57907200D02*
X219157500Y-57811961D01*
X219157500Y-57811961D02*
X219157500Y-57716723D01*
X219157500Y-57716723D02*
X219109881Y-57621485D01*
X219109881Y-57621485D02*
X219014643Y-57573866D01*
X219014643Y-57573866D02*
X218776548Y-57573866D01*
X218776548Y-57573866D02*
X218681310Y-57526247D01*
X218347976Y-57288152D02*
X217967024Y-57288152D01*
X218205119Y-56954819D02*
X218205119Y-57811961D01*
X218205119Y-57811961D02*
X218157500Y-57907200D01*
X218157500Y-57907200D02*
X218062262Y-57954819D01*
X218062262Y-57954819D02*
X217967024Y-57954819D01*
X217776547Y-57288152D02*
X217395595Y-57288152D01*
X217633690Y-56954819D02*
X217633690Y-57811961D01*
X217633690Y-57811961D02*
X217586071Y-57907200D01*
X217586071Y-57907200D02*
X217490833Y-57954819D01*
X217490833Y-57954819D02*
X217395595Y-57954819D01*
X216681309Y-57907200D02*
X216776547Y-57954819D01*
X216776547Y-57954819D02*
X216967023Y-57954819D01*
X216967023Y-57954819D02*
X217062261Y-57907200D01*
X217062261Y-57907200D02*
X217109880Y-57811961D01*
X217109880Y-57811961D02*
X217109880Y-57431009D01*
X217109880Y-57431009D02*
X217062261Y-57335771D01*
X217062261Y-57335771D02*
X216967023Y-57288152D01*
X216967023Y-57288152D02*
X216776547Y-57288152D01*
X216776547Y-57288152D02*
X216681309Y-57335771D01*
X216681309Y-57335771D02*
X216633690Y-57431009D01*
X216633690Y-57431009D02*
X216633690Y-57526247D01*
X216633690Y-57526247D02*
X217109880Y-57621485D01*
X216205118Y-57954819D02*
X216205118Y-57288152D01*
X216205118Y-57478628D02*
X216157499Y-57383390D01*
X216157499Y-57383390D02*
X216109880Y-57335771D01*
X216109880Y-57335771D02*
X216014642Y-57288152D01*
X216014642Y-57288152D02*
X215919404Y-57288152D01*
X215681308Y-57288152D02*
X215443213Y-57954819D01*
X215205118Y-57288152D02*
X215443213Y-57954819D01*
X215443213Y-57954819D02*
X215538451Y-58192914D01*
X215538451Y-58192914D02*
X215586070Y-58240533D01*
X215586070Y-58240533D02*
X215681308Y-58288152D01*
X193642857Y-79204819D02*
X194119047Y-79204819D01*
X194119047Y-79204819D02*
X194119047Y-78204819D01*
X193309523Y-78681009D02*
X192976190Y-78681009D01*
X192833333Y-79204819D02*
X193309523Y-79204819D01*
X193309523Y-79204819D02*
X193309523Y-78204819D01*
X193309523Y-78204819D02*
X192833333Y-78204819D01*
X192404761Y-79204819D02*
X192404761Y-78204819D01*
X192404761Y-78204819D02*
X192166666Y-78204819D01*
X192166666Y-78204819D02*
X192023809Y-78252438D01*
X192023809Y-78252438D02*
X191928571Y-78347676D01*
X191928571Y-78347676D02*
X191880952Y-78442914D01*
X191880952Y-78442914D02*
X191833333Y-78633390D01*
X191833333Y-78633390D02*
X191833333Y-78776247D01*
X191833333Y-78776247D02*
X191880952Y-78966723D01*
X191880952Y-78966723D02*
X191928571Y-79061961D01*
X191928571Y-79061961D02*
X192023809Y-79157200D01*
X192023809Y-79157200D02*
X192166666Y-79204819D01*
X192166666Y-79204819D02*
X192404761Y-79204819D01*
X165976190Y-83788152D02*
X165595238Y-83788152D01*
X165833333Y-83454819D02*
X165833333Y-84311961D01*
X165833333Y-84311961D02*
X165785714Y-84407200D01*
X165785714Y-84407200D02*
X165690476Y-84454819D01*
X165690476Y-84454819D02*
X165595238Y-84454819D01*
X165261904Y-84454819D02*
X165261904Y-83788152D01*
X165261904Y-83978628D02*
X165214285Y-83883390D01*
X165214285Y-83883390D02*
X165166666Y-83835771D01*
X165166666Y-83835771D02*
X165071428Y-83788152D01*
X165071428Y-83788152D02*
X164976190Y-83788152D01*
X164214285Y-84454819D02*
X164214285Y-83931009D01*
X164214285Y-83931009D02*
X164261904Y-83835771D01*
X164261904Y-83835771D02*
X164357142Y-83788152D01*
X164357142Y-83788152D02*
X164547618Y-83788152D01*
X164547618Y-83788152D02*
X164642856Y-83835771D01*
X164214285Y-84407200D02*
X164309523Y-84454819D01*
X164309523Y-84454819D02*
X164547618Y-84454819D01*
X164547618Y-84454819D02*
X164642856Y-84407200D01*
X164642856Y-84407200D02*
X164690475Y-84311961D01*
X164690475Y-84311961D02*
X164690475Y-84216723D01*
X164690475Y-84216723D02*
X164642856Y-84121485D01*
X164642856Y-84121485D02*
X164547618Y-84073866D01*
X164547618Y-84073866D02*
X164309523Y-84073866D01*
X164309523Y-84073866D02*
X164214285Y-84026247D01*
X163738094Y-83788152D02*
X163738094Y-84454819D01*
X163738094Y-83883390D02*
X163690475Y-83835771D01*
X163690475Y-83835771D02*
X163595237Y-83788152D01*
X163595237Y-83788152D02*
X163452380Y-83788152D01*
X163452380Y-83788152D02*
X163357142Y-83835771D01*
X163357142Y-83835771D02*
X163309523Y-83931009D01*
X163309523Y-83931009D02*
X163309523Y-84454819D01*
X162880951Y-84407200D02*
X162785713Y-84454819D01*
X162785713Y-84454819D02*
X162595237Y-84454819D01*
X162595237Y-84454819D02*
X162499999Y-84407200D01*
X162499999Y-84407200D02*
X162452380Y-84311961D01*
X162452380Y-84311961D02*
X162452380Y-84264342D01*
X162452380Y-84264342D02*
X162499999Y-84169104D01*
X162499999Y-84169104D02*
X162595237Y-84121485D01*
X162595237Y-84121485D02*
X162738094Y-84121485D01*
X162738094Y-84121485D02*
X162833332Y-84073866D01*
X162833332Y-84073866D02*
X162880951Y-83978628D01*
X162880951Y-83978628D02*
X162880951Y-83931009D01*
X162880951Y-83931009D02*
X162833332Y-83835771D01*
X162833332Y-83835771D02*
X162738094Y-83788152D01*
X162738094Y-83788152D02*
X162595237Y-83788152D01*
X162595237Y-83788152D02*
X162499999Y-83835771D01*
X162023808Y-84454819D02*
X162023808Y-83788152D01*
X162023808Y-83454819D02*
X162071427Y-83502438D01*
X162071427Y-83502438D02*
X162023808Y-83550057D01*
X162023808Y-83550057D02*
X161976189Y-83502438D01*
X161976189Y-83502438D02*
X162023808Y-83454819D01*
X162023808Y-83454819D02*
X162023808Y-83550057D01*
X161595237Y-84407200D02*
X161499999Y-84454819D01*
X161499999Y-84454819D02*
X161309523Y-84454819D01*
X161309523Y-84454819D02*
X161214285Y-84407200D01*
X161214285Y-84407200D02*
X161166666Y-84311961D01*
X161166666Y-84311961D02*
X161166666Y-84264342D01*
X161166666Y-84264342D02*
X161214285Y-84169104D01*
X161214285Y-84169104D02*
X161309523Y-84121485D01*
X161309523Y-84121485D02*
X161452380Y-84121485D01*
X161452380Y-84121485D02*
X161547618Y-84073866D01*
X161547618Y-84073866D02*
X161595237Y-83978628D01*
X161595237Y-83978628D02*
X161595237Y-83931009D01*
X161595237Y-83931009D02*
X161547618Y-83835771D01*
X161547618Y-83835771D02*
X161452380Y-83788152D01*
X161452380Y-83788152D02*
X161309523Y-83788152D01*
X161309523Y-83788152D02*
X161214285Y-83835771D01*
X160880951Y-83788152D02*
X160499999Y-83788152D01*
X160738094Y-83454819D02*
X160738094Y-84311961D01*
X160738094Y-84311961D02*
X160690475Y-84407200D01*
X160690475Y-84407200D02*
X160595237Y-84454819D01*
X160595237Y-84454819D02*
X160499999Y-84454819D01*
X160023808Y-84454819D02*
X160119046Y-84407200D01*
X160119046Y-84407200D02*
X160166665Y-84359580D01*
X160166665Y-84359580D02*
X160214284Y-84264342D01*
X160214284Y-84264342D02*
X160214284Y-83978628D01*
X160214284Y-83978628D02*
X160166665Y-83883390D01*
X160166665Y-83883390D02*
X160119046Y-83835771D01*
X160119046Y-83835771D02*
X160023808Y-83788152D01*
X160023808Y-83788152D02*
X159880951Y-83788152D01*
X159880951Y-83788152D02*
X159785713Y-83835771D01*
X159785713Y-83835771D02*
X159738094Y-83883390D01*
X159738094Y-83883390D02*
X159690475Y-83978628D01*
X159690475Y-83978628D02*
X159690475Y-84264342D01*
X159690475Y-84264342D02*
X159738094Y-84359580D01*
X159738094Y-84359580D02*
X159785713Y-84407200D01*
X159785713Y-84407200D02*
X159880951Y-84454819D01*
X159880951Y-84454819D02*
X160023808Y-84454819D01*
X159261903Y-84454819D02*
X159261903Y-83788152D01*
X159261903Y-83978628D02*
X159214284Y-83883390D01*
X159214284Y-83883390D02*
X159166665Y-83835771D01*
X159166665Y-83835771D02*
X159071427Y-83788152D01*
X159071427Y-83788152D02*
X158976189Y-83788152D01*
X158119046Y-84454819D02*
X158690474Y-84454819D01*
X158404760Y-84454819D02*
X158404760Y-83454819D01*
X158404760Y-83454819D02*
X158499998Y-83597676D01*
X158499998Y-83597676D02*
X158595236Y-83692914D01*
X158595236Y-83692914D02*
X158690474Y-83740533D01*
X176454819Y-71380951D02*
X176407200Y-71285713D01*
X176407200Y-71285713D02*
X176311961Y-71238094D01*
X176311961Y-71238094D02*
X175454819Y-71238094D01*
X176454819Y-71761904D02*
X175788152Y-71761904D01*
X175454819Y-71761904D02*
X175502438Y-71714285D01*
X175502438Y-71714285D02*
X175550057Y-71761904D01*
X175550057Y-71761904D02*
X175502438Y-71809523D01*
X175502438Y-71809523D02*
X175454819Y-71761904D01*
X175454819Y-71761904D02*
X175550057Y-71761904D01*
X175788152Y-72666665D02*
X176597676Y-72666665D01*
X176597676Y-72666665D02*
X176692914Y-72619046D01*
X176692914Y-72619046D02*
X176740533Y-72571427D01*
X176740533Y-72571427D02*
X176788152Y-72476189D01*
X176788152Y-72476189D02*
X176788152Y-72333332D01*
X176788152Y-72333332D02*
X176740533Y-72238094D01*
X176407200Y-72666665D02*
X176454819Y-72571427D01*
X176454819Y-72571427D02*
X176454819Y-72380951D01*
X176454819Y-72380951D02*
X176407200Y-72285713D01*
X176407200Y-72285713D02*
X176359580Y-72238094D01*
X176359580Y-72238094D02*
X176264342Y-72190475D01*
X176264342Y-72190475D02*
X175978628Y-72190475D01*
X175978628Y-72190475D02*
X175883390Y-72238094D01*
X175883390Y-72238094D02*
X175835771Y-72285713D01*
X175835771Y-72285713D02*
X175788152Y-72380951D01*
X175788152Y-72380951D02*
X175788152Y-72571427D01*
X175788152Y-72571427D02*
X175835771Y-72666665D01*
X176454819Y-73142856D02*
X175454819Y-73142856D01*
X176454819Y-73571427D02*
X175931009Y-73571427D01*
X175931009Y-73571427D02*
X175835771Y-73523808D01*
X175835771Y-73523808D02*
X175788152Y-73428570D01*
X175788152Y-73428570D02*
X175788152Y-73285713D01*
X175788152Y-73285713D02*
X175835771Y-73190475D01*
X175835771Y-73190475D02*
X175883390Y-73142856D01*
X175788152Y-73904761D02*
X175788152Y-74285713D01*
X175454819Y-74047618D02*
X176311961Y-74047618D01*
X176311961Y-74047618D02*
X176407200Y-74095237D01*
X176407200Y-74095237D02*
X176454819Y-74190475D01*
X176454819Y-74190475D02*
X176454819Y-74285713D01*
X176550057Y-74380952D02*
X176550057Y-75142856D01*
X176407200Y-75333333D02*
X176454819Y-75428571D01*
X176454819Y-75428571D02*
X176454819Y-75619047D01*
X176454819Y-75619047D02*
X176407200Y-75714285D01*
X176407200Y-75714285D02*
X176311961Y-75761904D01*
X176311961Y-75761904D02*
X176264342Y-75761904D01*
X176264342Y-75761904D02*
X176169104Y-75714285D01*
X176169104Y-75714285D02*
X176121485Y-75619047D01*
X176121485Y-75619047D02*
X176121485Y-75476190D01*
X176121485Y-75476190D02*
X176073866Y-75380952D01*
X176073866Y-75380952D02*
X175978628Y-75333333D01*
X175978628Y-75333333D02*
X175931009Y-75333333D01*
X175931009Y-75333333D02*
X175835771Y-75380952D01*
X175835771Y-75380952D02*
X175788152Y-75476190D01*
X175788152Y-75476190D02*
X175788152Y-75619047D01*
X175788152Y-75619047D02*
X175835771Y-75714285D01*
X176407200Y-76571428D02*
X176454819Y-76476190D01*
X176454819Y-76476190D02*
X176454819Y-76285714D01*
X176454819Y-76285714D02*
X176407200Y-76190476D01*
X176407200Y-76190476D02*
X176311961Y-76142857D01*
X176311961Y-76142857D02*
X175931009Y-76142857D01*
X175931009Y-76142857D02*
X175835771Y-76190476D01*
X175835771Y-76190476D02*
X175788152Y-76285714D01*
X175788152Y-76285714D02*
X175788152Y-76476190D01*
X175788152Y-76476190D02*
X175835771Y-76571428D01*
X175835771Y-76571428D02*
X175931009Y-76619047D01*
X175931009Y-76619047D02*
X176026247Y-76619047D01*
X176026247Y-76619047D02*
X176121485Y-76142857D01*
X175788152Y-77047619D02*
X176454819Y-77047619D01*
X175883390Y-77047619D02*
X175835771Y-77095238D01*
X175835771Y-77095238D02*
X175788152Y-77190476D01*
X175788152Y-77190476D02*
X175788152Y-77333333D01*
X175788152Y-77333333D02*
X175835771Y-77428571D01*
X175835771Y-77428571D02*
X175931009Y-77476190D01*
X175931009Y-77476190D02*
X176454819Y-77476190D01*
X176407200Y-77904762D02*
X176454819Y-78000000D01*
X176454819Y-78000000D02*
X176454819Y-78190476D01*
X176454819Y-78190476D02*
X176407200Y-78285714D01*
X176407200Y-78285714D02*
X176311961Y-78333333D01*
X176311961Y-78333333D02*
X176264342Y-78333333D01*
X176264342Y-78333333D02*
X176169104Y-78285714D01*
X176169104Y-78285714D02*
X176121485Y-78190476D01*
X176121485Y-78190476D02*
X176121485Y-78047619D01*
X176121485Y-78047619D02*
X176073866Y-77952381D01*
X176073866Y-77952381D02*
X175978628Y-77904762D01*
X175978628Y-77904762D02*
X175931009Y-77904762D01*
X175931009Y-77904762D02*
X175835771Y-77952381D01*
X175835771Y-77952381D02*
X175788152Y-78047619D01*
X175788152Y-78047619D02*
X175788152Y-78190476D01*
X175788152Y-78190476D02*
X175835771Y-78285714D01*
X176454819Y-78904762D02*
X176407200Y-78809524D01*
X176407200Y-78809524D02*
X176359580Y-78761905D01*
X176359580Y-78761905D02*
X176264342Y-78714286D01*
X176264342Y-78714286D02*
X175978628Y-78714286D01*
X175978628Y-78714286D02*
X175883390Y-78761905D01*
X175883390Y-78761905D02*
X175835771Y-78809524D01*
X175835771Y-78809524D02*
X175788152Y-78904762D01*
X175788152Y-78904762D02*
X175788152Y-79047619D01*
X175788152Y-79047619D02*
X175835771Y-79142857D01*
X175835771Y-79142857D02*
X175883390Y-79190476D01*
X175883390Y-79190476D02*
X175978628Y-79238095D01*
X175978628Y-79238095D02*
X176264342Y-79238095D01*
X176264342Y-79238095D02*
X176359580Y-79190476D01*
X176359580Y-79190476D02*
X176407200Y-79142857D01*
X176407200Y-79142857D02*
X176454819Y-79047619D01*
X176454819Y-79047619D02*
X176454819Y-78904762D01*
X176454819Y-79666667D02*
X175788152Y-79666667D01*
X175978628Y-79666667D02*
X175883390Y-79714286D01*
X175883390Y-79714286D02*
X175835771Y-79761905D01*
X175835771Y-79761905D02*
X175788152Y-79857143D01*
X175788152Y-79857143D02*
X175788152Y-79952381D01*
X176454819Y-80809524D02*
X176454819Y-80238096D01*
X176454819Y-80523810D02*
X175454819Y-80523810D01*
X175454819Y-80523810D02*
X175597676Y-80428572D01*
X175597676Y-80428572D02*
X175692914Y-80333334D01*
X175692914Y-80333334D02*
X175740533Y-80238096D01*
X205122819Y-70880951D02*
X205075200Y-70785713D01*
X205075200Y-70785713D02*
X204979961Y-70738094D01*
X204979961Y-70738094D02*
X204122819Y-70738094D01*
X205122819Y-71261904D02*
X204456152Y-71261904D01*
X204122819Y-71261904D02*
X204170438Y-71214285D01*
X204170438Y-71214285D02*
X204218057Y-71261904D01*
X204218057Y-71261904D02*
X204170438Y-71309523D01*
X204170438Y-71309523D02*
X204122819Y-71261904D01*
X204122819Y-71261904D02*
X204218057Y-71261904D01*
X204456152Y-72166665D02*
X205265676Y-72166665D01*
X205265676Y-72166665D02*
X205360914Y-72119046D01*
X205360914Y-72119046D02*
X205408533Y-72071427D01*
X205408533Y-72071427D02*
X205456152Y-71976189D01*
X205456152Y-71976189D02*
X205456152Y-71833332D01*
X205456152Y-71833332D02*
X205408533Y-71738094D01*
X205075200Y-72166665D02*
X205122819Y-72071427D01*
X205122819Y-72071427D02*
X205122819Y-71880951D01*
X205122819Y-71880951D02*
X205075200Y-71785713D01*
X205075200Y-71785713D02*
X205027580Y-71738094D01*
X205027580Y-71738094D02*
X204932342Y-71690475D01*
X204932342Y-71690475D02*
X204646628Y-71690475D01*
X204646628Y-71690475D02*
X204551390Y-71738094D01*
X204551390Y-71738094D02*
X204503771Y-71785713D01*
X204503771Y-71785713D02*
X204456152Y-71880951D01*
X204456152Y-71880951D02*
X204456152Y-72071427D01*
X204456152Y-72071427D02*
X204503771Y-72166665D01*
X205122819Y-72642856D02*
X204122819Y-72642856D01*
X205122819Y-73071427D02*
X204599009Y-73071427D01*
X204599009Y-73071427D02*
X204503771Y-73023808D01*
X204503771Y-73023808D02*
X204456152Y-72928570D01*
X204456152Y-72928570D02*
X204456152Y-72785713D01*
X204456152Y-72785713D02*
X204503771Y-72690475D01*
X204503771Y-72690475D02*
X204551390Y-72642856D01*
X204456152Y-73404761D02*
X204456152Y-73785713D01*
X204122819Y-73547618D02*
X204979961Y-73547618D01*
X204979961Y-73547618D02*
X205075200Y-73595237D01*
X205075200Y-73595237D02*
X205122819Y-73690475D01*
X205122819Y-73690475D02*
X205122819Y-73785713D01*
X205218057Y-73880952D02*
X205218057Y-74642856D01*
X205075200Y-74833333D02*
X205122819Y-74928571D01*
X205122819Y-74928571D02*
X205122819Y-75119047D01*
X205122819Y-75119047D02*
X205075200Y-75214285D01*
X205075200Y-75214285D02*
X204979961Y-75261904D01*
X204979961Y-75261904D02*
X204932342Y-75261904D01*
X204932342Y-75261904D02*
X204837104Y-75214285D01*
X204837104Y-75214285D02*
X204789485Y-75119047D01*
X204789485Y-75119047D02*
X204789485Y-74976190D01*
X204789485Y-74976190D02*
X204741866Y-74880952D01*
X204741866Y-74880952D02*
X204646628Y-74833333D01*
X204646628Y-74833333D02*
X204599009Y-74833333D01*
X204599009Y-74833333D02*
X204503771Y-74880952D01*
X204503771Y-74880952D02*
X204456152Y-74976190D01*
X204456152Y-74976190D02*
X204456152Y-75119047D01*
X204456152Y-75119047D02*
X204503771Y-75214285D01*
X205075200Y-76071428D02*
X205122819Y-75976190D01*
X205122819Y-75976190D02*
X205122819Y-75785714D01*
X205122819Y-75785714D02*
X205075200Y-75690476D01*
X205075200Y-75690476D02*
X204979961Y-75642857D01*
X204979961Y-75642857D02*
X204599009Y-75642857D01*
X204599009Y-75642857D02*
X204503771Y-75690476D01*
X204503771Y-75690476D02*
X204456152Y-75785714D01*
X204456152Y-75785714D02*
X204456152Y-75976190D01*
X204456152Y-75976190D02*
X204503771Y-76071428D01*
X204503771Y-76071428D02*
X204599009Y-76119047D01*
X204599009Y-76119047D02*
X204694247Y-76119047D01*
X204694247Y-76119047D02*
X204789485Y-75642857D01*
X204456152Y-76547619D02*
X205122819Y-76547619D01*
X204551390Y-76547619D02*
X204503771Y-76595238D01*
X204503771Y-76595238D02*
X204456152Y-76690476D01*
X204456152Y-76690476D02*
X204456152Y-76833333D01*
X204456152Y-76833333D02*
X204503771Y-76928571D01*
X204503771Y-76928571D02*
X204599009Y-76976190D01*
X204599009Y-76976190D02*
X205122819Y-76976190D01*
X205075200Y-77404762D02*
X205122819Y-77500000D01*
X205122819Y-77500000D02*
X205122819Y-77690476D01*
X205122819Y-77690476D02*
X205075200Y-77785714D01*
X205075200Y-77785714D02*
X204979961Y-77833333D01*
X204979961Y-77833333D02*
X204932342Y-77833333D01*
X204932342Y-77833333D02*
X204837104Y-77785714D01*
X204837104Y-77785714D02*
X204789485Y-77690476D01*
X204789485Y-77690476D02*
X204789485Y-77547619D01*
X204789485Y-77547619D02*
X204741866Y-77452381D01*
X204741866Y-77452381D02*
X204646628Y-77404762D01*
X204646628Y-77404762D02*
X204599009Y-77404762D01*
X204599009Y-77404762D02*
X204503771Y-77452381D01*
X204503771Y-77452381D02*
X204456152Y-77547619D01*
X204456152Y-77547619D02*
X204456152Y-77690476D01*
X204456152Y-77690476D02*
X204503771Y-77785714D01*
X205122819Y-78404762D02*
X205075200Y-78309524D01*
X205075200Y-78309524D02*
X205027580Y-78261905D01*
X205027580Y-78261905D02*
X204932342Y-78214286D01*
X204932342Y-78214286D02*
X204646628Y-78214286D01*
X204646628Y-78214286D02*
X204551390Y-78261905D01*
X204551390Y-78261905D02*
X204503771Y-78309524D01*
X204503771Y-78309524D02*
X204456152Y-78404762D01*
X204456152Y-78404762D02*
X204456152Y-78547619D01*
X204456152Y-78547619D02*
X204503771Y-78642857D01*
X204503771Y-78642857D02*
X204551390Y-78690476D01*
X204551390Y-78690476D02*
X204646628Y-78738095D01*
X204646628Y-78738095D02*
X204932342Y-78738095D01*
X204932342Y-78738095D02*
X205027580Y-78690476D01*
X205027580Y-78690476D02*
X205075200Y-78642857D01*
X205075200Y-78642857D02*
X205122819Y-78547619D01*
X205122819Y-78547619D02*
X205122819Y-78404762D01*
X205122819Y-79166667D02*
X204456152Y-79166667D01*
X204646628Y-79166667D02*
X204551390Y-79214286D01*
X204551390Y-79214286D02*
X204503771Y-79261905D01*
X204503771Y-79261905D02*
X204456152Y-79357143D01*
X204456152Y-79357143D02*
X204456152Y-79452381D01*
X204218057Y-79738096D02*
X204170438Y-79785715D01*
X204170438Y-79785715D02*
X204122819Y-79880953D01*
X204122819Y-79880953D02*
X204122819Y-80119048D01*
X204122819Y-80119048D02*
X204170438Y-80214286D01*
X204170438Y-80214286D02*
X204218057Y-80261905D01*
X204218057Y-80261905D02*
X204313295Y-80309524D01*
X204313295Y-80309524D02*
X204408533Y-80309524D01*
X204408533Y-80309524D02*
X204551390Y-80261905D01*
X204551390Y-80261905D02*
X205122819Y-79690477D01*
X205122819Y-79690477D02*
X205122819Y-80309524D01*
D10*
%TO.C,light_sensor1*%
X170400000Y-74350000D02*
X170400000Y-77150000D01*
X174600000Y-74350000D02*
X174600000Y-77150000D01*
X170390758Y-74363963D02*
G75*
G02*
X174600000Y-74350000I2109242J-1386037D01*
G01*
X174609242Y-77136037D02*
G75*
G02*
X170400000Y-77150000I-2109242J1386037D01*
G01*
%TO.C,light_sensor2*%
X205900000Y-74350000D02*
X205900000Y-77150000D01*
X210100000Y-74350000D02*
X210100000Y-77150000D01*
X205890758Y-74363963D02*
G75*
G02*
X210100000Y-74350000I2109242J-1386037D01*
G01*
X210109242Y-77136037D02*
G75*
G02*
X205900000Y-77150000I-2109242J1386037D01*
G01*
%TD*%
M02*
