%TF.GenerationSoftware,KiCad,Pcbnew,8.0.6*%
%TF.CreationDate,2024-11-17T18:19:46+01:00*%
%TF.ProjectId,MakerBot,4d616b65-7242-46f7-942e-6b696361645f,rev?*%
%TF.SameCoordinates,Original*%
%TF.FileFunction,Legend,Top*%
%TF.FilePolarity,Positive*%
%FSLAX46Y46*%
G04 Gerber Fmt 4.6, Leading zero omitted, Abs format (unit mm)*
G04 Created by KiCad (PCBNEW 8.0.6) date 2024-11-17 18:19:46*
%MOMM*%
%LPD*%
G01*
G04 APERTURE LIST*
%ADD10C,0.150000*%
%ADD11C,0.120000*%
%ADD12C,0.100000*%
G04 APERTURE END LIST*
D10*
X189163220Y-75988866D02*
X188401316Y-75988866D01*
X188782268Y-76369819D02*
X188782268Y-75607914D01*
X215074874Y-57485533D02*
X216598684Y-57485533D01*
X215836779Y-58247438D02*
X215836779Y-56723628D01*
X220425125Y-57485533D02*
X218901316Y-57485533D01*
X188084819Y-92940476D02*
X187418152Y-92940476D01*
X187608628Y-92940476D02*
X187513390Y-92892857D01*
X187513390Y-92892857D02*
X187465771Y-92845238D01*
X187465771Y-92845238D02*
X187418152Y-92750000D01*
X187418152Y-92750000D02*
X187418152Y-92654762D01*
X188037200Y-91940476D02*
X188084819Y-92035714D01*
X188084819Y-92035714D02*
X188084819Y-92226190D01*
X188084819Y-92226190D02*
X188037200Y-92321428D01*
X188037200Y-92321428D02*
X187941961Y-92369047D01*
X187941961Y-92369047D02*
X187561009Y-92369047D01*
X187561009Y-92369047D02*
X187465771Y-92321428D01*
X187465771Y-92321428D02*
X187418152Y-92226190D01*
X187418152Y-92226190D02*
X187418152Y-92035714D01*
X187418152Y-92035714D02*
X187465771Y-91940476D01*
X187465771Y-91940476D02*
X187561009Y-91892857D01*
X187561009Y-91892857D02*
X187656247Y-91892857D01*
X187656247Y-91892857D02*
X187751485Y-92369047D01*
X188084819Y-91464285D02*
X187418152Y-91464285D01*
X187084819Y-91464285D02*
X187132438Y-91511904D01*
X187132438Y-91511904D02*
X187180057Y-91464285D01*
X187180057Y-91464285D02*
X187132438Y-91416666D01*
X187132438Y-91416666D02*
X187084819Y-91464285D01*
X187084819Y-91464285D02*
X187180057Y-91464285D01*
X188037200Y-91035714D02*
X188084819Y-90940476D01*
X188084819Y-90940476D02*
X188084819Y-90750000D01*
X188084819Y-90750000D02*
X188037200Y-90654762D01*
X188037200Y-90654762D02*
X187941961Y-90607143D01*
X187941961Y-90607143D02*
X187894342Y-90607143D01*
X187894342Y-90607143D02*
X187799104Y-90654762D01*
X187799104Y-90654762D02*
X187751485Y-90750000D01*
X187751485Y-90750000D02*
X187751485Y-90892857D01*
X187751485Y-90892857D02*
X187703866Y-90988095D01*
X187703866Y-90988095D02*
X187608628Y-91035714D01*
X187608628Y-91035714D02*
X187561009Y-91035714D01*
X187561009Y-91035714D02*
X187465771Y-90988095D01*
X187465771Y-90988095D02*
X187418152Y-90892857D01*
X187418152Y-90892857D02*
X187418152Y-90750000D01*
X187418152Y-90750000D02*
X187465771Y-90654762D01*
X187418152Y-90321428D02*
X187418152Y-89940476D01*
X187084819Y-90178571D02*
X187941961Y-90178571D01*
X187941961Y-90178571D02*
X188037200Y-90130952D01*
X188037200Y-90130952D02*
X188084819Y-90035714D01*
X188084819Y-90035714D02*
X188084819Y-89940476D01*
X188084819Y-89464285D02*
X188037200Y-89559523D01*
X188037200Y-89559523D02*
X187989580Y-89607142D01*
X187989580Y-89607142D02*
X187894342Y-89654761D01*
X187894342Y-89654761D02*
X187608628Y-89654761D01*
X187608628Y-89654761D02*
X187513390Y-89607142D01*
X187513390Y-89607142D02*
X187465771Y-89559523D01*
X187465771Y-89559523D02*
X187418152Y-89464285D01*
X187418152Y-89464285D02*
X187418152Y-89321428D01*
X187418152Y-89321428D02*
X187465771Y-89226190D01*
X187465771Y-89226190D02*
X187513390Y-89178571D01*
X187513390Y-89178571D02*
X187608628Y-89130952D01*
X187608628Y-89130952D02*
X187894342Y-89130952D01*
X187894342Y-89130952D02*
X187989580Y-89178571D01*
X187989580Y-89178571D02*
X188037200Y-89226190D01*
X188037200Y-89226190D02*
X188084819Y-89321428D01*
X188084819Y-89321428D02*
X188084819Y-89464285D01*
X188084819Y-88702380D02*
X187418152Y-88702380D01*
X187608628Y-88702380D02*
X187513390Y-88654761D01*
X187513390Y-88654761D02*
X187465771Y-88607142D01*
X187465771Y-88607142D02*
X187418152Y-88511904D01*
X187418152Y-88511904D02*
X187418152Y-88416666D01*
X188180057Y-88321428D02*
X188180057Y-87559523D01*
X188084819Y-87178570D02*
X188037200Y-87273808D01*
X188037200Y-87273808D02*
X187941961Y-87321427D01*
X187941961Y-87321427D02*
X187084819Y-87321427D01*
X188037200Y-86416665D02*
X188084819Y-86511903D01*
X188084819Y-86511903D02*
X188084819Y-86702379D01*
X188084819Y-86702379D02*
X188037200Y-86797617D01*
X188037200Y-86797617D02*
X187941961Y-86845236D01*
X187941961Y-86845236D02*
X187561009Y-86845236D01*
X187561009Y-86845236D02*
X187465771Y-86797617D01*
X187465771Y-86797617D02*
X187418152Y-86702379D01*
X187418152Y-86702379D02*
X187418152Y-86511903D01*
X187418152Y-86511903D02*
X187465771Y-86416665D01*
X187465771Y-86416665D02*
X187561009Y-86369046D01*
X187561009Y-86369046D02*
X187656247Y-86369046D01*
X187656247Y-86369046D02*
X187751485Y-86845236D01*
X188084819Y-85511903D02*
X187084819Y-85511903D01*
X188037200Y-85511903D02*
X188084819Y-85607141D01*
X188084819Y-85607141D02*
X188084819Y-85797617D01*
X188084819Y-85797617D02*
X188037200Y-85892855D01*
X188037200Y-85892855D02*
X187989580Y-85940474D01*
X187989580Y-85940474D02*
X187894342Y-85988093D01*
X187894342Y-85988093D02*
X187608628Y-85988093D01*
X187608628Y-85988093D02*
X187513390Y-85940474D01*
X187513390Y-85940474D02*
X187465771Y-85892855D01*
X187465771Y-85892855D02*
X187418152Y-85797617D01*
X187418152Y-85797617D02*
X187418152Y-85607141D01*
X187418152Y-85607141D02*
X187465771Y-85511903D01*
X188084819Y-84511903D02*
X188084819Y-85083331D01*
X188084819Y-84797617D02*
X187084819Y-84797617D01*
X187084819Y-84797617D02*
X187227676Y-84892855D01*
X187227676Y-84892855D02*
X187322914Y-84988093D01*
X187322914Y-84988093D02*
X187370533Y-85083331D01*
X185464285Y-59788152D02*
X185464285Y-60788152D01*
X185464285Y-59835771D02*
X185559523Y-59788152D01*
X185559523Y-59788152D02*
X185749999Y-59788152D01*
X185749999Y-59788152D02*
X185845237Y-59835771D01*
X185845237Y-59835771D02*
X185892856Y-59883390D01*
X185892856Y-59883390D02*
X185940475Y-59978628D01*
X185940475Y-59978628D02*
X185940475Y-60264342D01*
X185940475Y-60264342D02*
X185892856Y-60359580D01*
X185892856Y-60359580D02*
X185845237Y-60407200D01*
X185845237Y-60407200D02*
X185749999Y-60454819D01*
X185749999Y-60454819D02*
X185559523Y-60454819D01*
X185559523Y-60454819D02*
X185464285Y-60407200D01*
X186797618Y-59788152D02*
X186797618Y-60454819D01*
X186369047Y-59788152D02*
X186369047Y-60311961D01*
X186369047Y-60311961D02*
X186416666Y-60407200D01*
X186416666Y-60407200D02*
X186511904Y-60454819D01*
X186511904Y-60454819D02*
X186654761Y-60454819D01*
X186654761Y-60454819D02*
X186749999Y-60407200D01*
X186749999Y-60407200D02*
X186797618Y-60359580D01*
X187226190Y-60407200D02*
X187321428Y-60454819D01*
X187321428Y-60454819D02*
X187511904Y-60454819D01*
X187511904Y-60454819D02*
X187607142Y-60407200D01*
X187607142Y-60407200D02*
X187654761Y-60311961D01*
X187654761Y-60311961D02*
X187654761Y-60264342D01*
X187654761Y-60264342D02*
X187607142Y-60169104D01*
X187607142Y-60169104D02*
X187511904Y-60121485D01*
X187511904Y-60121485D02*
X187369047Y-60121485D01*
X187369047Y-60121485D02*
X187273809Y-60073866D01*
X187273809Y-60073866D02*
X187226190Y-59978628D01*
X187226190Y-59978628D02*
X187226190Y-59931009D01*
X187226190Y-59931009D02*
X187273809Y-59835771D01*
X187273809Y-59835771D02*
X187369047Y-59788152D01*
X187369047Y-59788152D02*
X187511904Y-59788152D01*
X187511904Y-59788152D02*
X187607142Y-59835771D01*
X188083333Y-60454819D02*
X188083333Y-59454819D01*
X188511904Y-60454819D02*
X188511904Y-59931009D01*
X188511904Y-59931009D02*
X188464285Y-59835771D01*
X188464285Y-59835771D02*
X188369047Y-59788152D01*
X188369047Y-59788152D02*
X188226190Y-59788152D01*
X188226190Y-59788152D02*
X188130952Y-59835771D01*
X188130952Y-59835771D02*
X188083333Y-59883390D01*
X188750000Y-60550057D02*
X189511904Y-60550057D01*
X189750000Y-60454819D02*
X189750000Y-59454819D01*
X189750000Y-59835771D02*
X189845238Y-59788152D01*
X189845238Y-59788152D02*
X190035714Y-59788152D01*
X190035714Y-59788152D02*
X190130952Y-59835771D01*
X190130952Y-59835771D02*
X190178571Y-59883390D01*
X190178571Y-59883390D02*
X190226190Y-59978628D01*
X190226190Y-59978628D02*
X190226190Y-60264342D01*
X190226190Y-60264342D02*
X190178571Y-60359580D01*
X190178571Y-60359580D02*
X190130952Y-60407200D01*
X190130952Y-60407200D02*
X190035714Y-60454819D01*
X190035714Y-60454819D02*
X189845238Y-60454819D01*
X189845238Y-60454819D02*
X189750000Y-60407200D01*
X191083333Y-59788152D02*
X191083333Y-60454819D01*
X190654762Y-59788152D02*
X190654762Y-60311961D01*
X190654762Y-60311961D02*
X190702381Y-60407200D01*
X190702381Y-60407200D02*
X190797619Y-60454819D01*
X190797619Y-60454819D02*
X190940476Y-60454819D01*
X190940476Y-60454819D02*
X191035714Y-60407200D01*
X191035714Y-60407200D02*
X191083333Y-60359580D01*
X191416667Y-59788152D02*
X191797619Y-59788152D01*
X191559524Y-59454819D02*
X191559524Y-60311961D01*
X191559524Y-60311961D02*
X191607143Y-60407200D01*
X191607143Y-60407200D02*
X191702381Y-60454819D01*
X191702381Y-60454819D02*
X191797619Y-60454819D01*
X191988096Y-59788152D02*
X192369048Y-59788152D01*
X192130953Y-59454819D02*
X192130953Y-60311961D01*
X192130953Y-60311961D02*
X192178572Y-60407200D01*
X192178572Y-60407200D02*
X192273810Y-60454819D01*
X192273810Y-60454819D02*
X192369048Y-60454819D01*
X192845239Y-60454819D02*
X192750001Y-60407200D01*
X192750001Y-60407200D02*
X192702382Y-60359580D01*
X192702382Y-60359580D02*
X192654763Y-60264342D01*
X192654763Y-60264342D02*
X192654763Y-59978628D01*
X192654763Y-59978628D02*
X192702382Y-59883390D01*
X192702382Y-59883390D02*
X192750001Y-59835771D01*
X192750001Y-59835771D02*
X192845239Y-59788152D01*
X192845239Y-59788152D02*
X192988096Y-59788152D01*
X192988096Y-59788152D02*
X193083334Y-59835771D01*
X193083334Y-59835771D02*
X193130953Y-59883390D01*
X193130953Y-59883390D02*
X193178572Y-59978628D01*
X193178572Y-59978628D02*
X193178572Y-60264342D01*
X193178572Y-60264342D02*
X193130953Y-60359580D01*
X193130953Y-60359580D02*
X193083334Y-60407200D01*
X193083334Y-60407200D02*
X192988096Y-60454819D01*
X192988096Y-60454819D02*
X192845239Y-60454819D01*
X193607144Y-59788152D02*
X193607144Y-60454819D01*
X193607144Y-59883390D02*
X193654763Y-59835771D01*
X193654763Y-59835771D02*
X193750001Y-59788152D01*
X193750001Y-59788152D02*
X193892858Y-59788152D01*
X193892858Y-59788152D02*
X193988096Y-59835771D01*
X193988096Y-59835771D02*
X194035715Y-59931009D01*
X194035715Y-59931009D02*
X194035715Y-60454819D01*
X217454819Y-71904761D02*
X216788152Y-71904761D01*
X216883390Y-71904761D02*
X216835771Y-71857142D01*
X216835771Y-71857142D02*
X216788152Y-71761904D01*
X216788152Y-71761904D02*
X216788152Y-71619047D01*
X216788152Y-71619047D02*
X216835771Y-71523809D01*
X216835771Y-71523809D02*
X216931009Y-71476190D01*
X216931009Y-71476190D02*
X217454819Y-71476190D01*
X216931009Y-71476190D02*
X216835771Y-71428571D01*
X216835771Y-71428571D02*
X216788152Y-71333333D01*
X216788152Y-71333333D02*
X216788152Y-71190476D01*
X216788152Y-71190476D02*
X216835771Y-71095237D01*
X216835771Y-71095237D02*
X216931009Y-71047618D01*
X216931009Y-71047618D02*
X217454819Y-71047618D01*
X217454819Y-70428571D02*
X217407200Y-70523809D01*
X217407200Y-70523809D02*
X217359580Y-70571428D01*
X217359580Y-70571428D02*
X217264342Y-70619047D01*
X217264342Y-70619047D02*
X216978628Y-70619047D01*
X216978628Y-70619047D02*
X216883390Y-70571428D01*
X216883390Y-70571428D02*
X216835771Y-70523809D01*
X216835771Y-70523809D02*
X216788152Y-70428571D01*
X216788152Y-70428571D02*
X216788152Y-70285714D01*
X216788152Y-70285714D02*
X216835771Y-70190476D01*
X216835771Y-70190476D02*
X216883390Y-70142857D01*
X216883390Y-70142857D02*
X216978628Y-70095238D01*
X216978628Y-70095238D02*
X217264342Y-70095238D01*
X217264342Y-70095238D02*
X217359580Y-70142857D01*
X217359580Y-70142857D02*
X217407200Y-70190476D01*
X217407200Y-70190476D02*
X217454819Y-70285714D01*
X217454819Y-70285714D02*
X217454819Y-70428571D01*
X216788152Y-69809523D02*
X216788152Y-69428571D01*
X216454819Y-69666666D02*
X217311961Y-69666666D01*
X217311961Y-69666666D02*
X217407200Y-69619047D01*
X217407200Y-69619047D02*
X217454819Y-69523809D01*
X217454819Y-69523809D02*
X217454819Y-69428571D01*
X217454819Y-68952380D02*
X217407200Y-69047618D01*
X217407200Y-69047618D02*
X217359580Y-69095237D01*
X217359580Y-69095237D02*
X217264342Y-69142856D01*
X217264342Y-69142856D02*
X216978628Y-69142856D01*
X216978628Y-69142856D02*
X216883390Y-69095237D01*
X216883390Y-69095237D02*
X216835771Y-69047618D01*
X216835771Y-69047618D02*
X216788152Y-68952380D01*
X216788152Y-68952380D02*
X216788152Y-68809523D01*
X216788152Y-68809523D02*
X216835771Y-68714285D01*
X216835771Y-68714285D02*
X216883390Y-68666666D01*
X216883390Y-68666666D02*
X216978628Y-68619047D01*
X216978628Y-68619047D02*
X217264342Y-68619047D01*
X217264342Y-68619047D02*
X217359580Y-68666666D01*
X217359580Y-68666666D02*
X217407200Y-68714285D01*
X217407200Y-68714285D02*
X217454819Y-68809523D01*
X217454819Y-68809523D02*
X217454819Y-68952380D01*
X217454819Y-68190475D02*
X216788152Y-68190475D01*
X216978628Y-68190475D02*
X216883390Y-68142856D01*
X216883390Y-68142856D02*
X216835771Y-68095237D01*
X216835771Y-68095237D02*
X216788152Y-67999999D01*
X216788152Y-67999999D02*
X216788152Y-67904761D01*
X216550057Y-67619046D02*
X216502438Y-67571427D01*
X216502438Y-67571427D02*
X216454819Y-67476189D01*
X216454819Y-67476189D02*
X216454819Y-67238094D01*
X216454819Y-67238094D02*
X216502438Y-67142856D01*
X216502438Y-67142856D02*
X216550057Y-67095237D01*
X216550057Y-67095237D02*
X216645295Y-67047618D01*
X216645295Y-67047618D02*
X216740533Y-67047618D01*
X216740533Y-67047618D02*
X216883390Y-67095237D01*
X216883390Y-67095237D02*
X217454819Y-67666665D01*
X217454819Y-67666665D02*
X217454819Y-67047618D01*
X206084819Y-91821428D02*
X205418152Y-91821428D01*
X205608628Y-91821428D02*
X205513390Y-91773809D01*
X205513390Y-91773809D02*
X205465771Y-91726190D01*
X205465771Y-91726190D02*
X205418152Y-91630952D01*
X205418152Y-91630952D02*
X205418152Y-91535714D01*
X206037200Y-90821428D02*
X206084819Y-90916666D01*
X206084819Y-90916666D02*
X206084819Y-91107142D01*
X206084819Y-91107142D02*
X206037200Y-91202380D01*
X206037200Y-91202380D02*
X205941961Y-91249999D01*
X205941961Y-91249999D02*
X205561009Y-91249999D01*
X205561009Y-91249999D02*
X205465771Y-91202380D01*
X205465771Y-91202380D02*
X205418152Y-91107142D01*
X205418152Y-91107142D02*
X205418152Y-90916666D01*
X205418152Y-90916666D02*
X205465771Y-90821428D01*
X205465771Y-90821428D02*
X205561009Y-90773809D01*
X205561009Y-90773809D02*
X205656247Y-90773809D01*
X205656247Y-90773809D02*
X205751485Y-91249999D01*
X206037200Y-90392856D02*
X206084819Y-90297618D01*
X206084819Y-90297618D02*
X206084819Y-90107142D01*
X206084819Y-90107142D02*
X206037200Y-90011904D01*
X206037200Y-90011904D02*
X205941961Y-89964285D01*
X205941961Y-89964285D02*
X205894342Y-89964285D01*
X205894342Y-89964285D02*
X205799104Y-90011904D01*
X205799104Y-90011904D02*
X205751485Y-90107142D01*
X205751485Y-90107142D02*
X205751485Y-90249999D01*
X205751485Y-90249999D02*
X205703866Y-90345237D01*
X205703866Y-90345237D02*
X205608628Y-90392856D01*
X205608628Y-90392856D02*
X205561009Y-90392856D01*
X205561009Y-90392856D02*
X205465771Y-90345237D01*
X205465771Y-90345237D02*
X205418152Y-90249999D01*
X205418152Y-90249999D02*
X205418152Y-90107142D01*
X205418152Y-90107142D02*
X205465771Y-90011904D01*
X206084819Y-89535713D02*
X205418152Y-89535713D01*
X205084819Y-89535713D02*
X205132438Y-89583332D01*
X205132438Y-89583332D02*
X205180057Y-89535713D01*
X205180057Y-89535713D02*
X205132438Y-89488094D01*
X205132438Y-89488094D02*
X205084819Y-89535713D01*
X205084819Y-89535713D02*
X205180057Y-89535713D01*
X206037200Y-89107142D02*
X206084819Y-89011904D01*
X206084819Y-89011904D02*
X206084819Y-88821428D01*
X206084819Y-88821428D02*
X206037200Y-88726190D01*
X206037200Y-88726190D02*
X205941961Y-88678571D01*
X205941961Y-88678571D02*
X205894342Y-88678571D01*
X205894342Y-88678571D02*
X205799104Y-88726190D01*
X205799104Y-88726190D02*
X205751485Y-88821428D01*
X205751485Y-88821428D02*
X205751485Y-88964285D01*
X205751485Y-88964285D02*
X205703866Y-89059523D01*
X205703866Y-89059523D02*
X205608628Y-89107142D01*
X205608628Y-89107142D02*
X205561009Y-89107142D01*
X205561009Y-89107142D02*
X205465771Y-89059523D01*
X205465771Y-89059523D02*
X205418152Y-88964285D01*
X205418152Y-88964285D02*
X205418152Y-88821428D01*
X205418152Y-88821428D02*
X205465771Y-88726190D01*
X205418152Y-88392856D02*
X205418152Y-88011904D01*
X205084819Y-88249999D02*
X205941961Y-88249999D01*
X205941961Y-88249999D02*
X206037200Y-88202380D01*
X206037200Y-88202380D02*
X206084819Y-88107142D01*
X206084819Y-88107142D02*
X206084819Y-88011904D01*
X206084819Y-87535713D02*
X206037200Y-87630951D01*
X206037200Y-87630951D02*
X205989580Y-87678570D01*
X205989580Y-87678570D02*
X205894342Y-87726189D01*
X205894342Y-87726189D02*
X205608628Y-87726189D01*
X205608628Y-87726189D02*
X205513390Y-87678570D01*
X205513390Y-87678570D02*
X205465771Y-87630951D01*
X205465771Y-87630951D02*
X205418152Y-87535713D01*
X205418152Y-87535713D02*
X205418152Y-87392856D01*
X205418152Y-87392856D02*
X205465771Y-87297618D01*
X205465771Y-87297618D02*
X205513390Y-87249999D01*
X205513390Y-87249999D02*
X205608628Y-87202380D01*
X205608628Y-87202380D02*
X205894342Y-87202380D01*
X205894342Y-87202380D02*
X205989580Y-87249999D01*
X205989580Y-87249999D02*
X206037200Y-87297618D01*
X206037200Y-87297618D02*
X206084819Y-87392856D01*
X206084819Y-87392856D02*
X206084819Y-87535713D01*
X206084819Y-86773808D02*
X205418152Y-86773808D01*
X205608628Y-86773808D02*
X205513390Y-86726189D01*
X205513390Y-86726189D02*
X205465771Y-86678570D01*
X205465771Y-86678570D02*
X205418152Y-86583332D01*
X205418152Y-86583332D02*
X205418152Y-86488094D01*
X205180057Y-86202379D02*
X205132438Y-86154760D01*
X205132438Y-86154760D02*
X205084819Y-86059522D01*
X205084819Y-86059522D02*
X205084819Y-85821427D01*
X205084819Y-85821427D02*
X205132438Y-85726189D01*
X205132438Y-85726189D02*
X205180057Y-85678570D01*
X205180057Y-85678570D02*
X205275295Y-85630951D01*
X205275295Y-85630951D02*
X205370533Y-85630951D01*
X205370533Y-85630951D02*
X205513390Y-85678570D01*
X205513390Y-85678570D02*
X206084819Y-86249998D01*
X206084819Y-86249998D02*
X206084819Y-85630951D01*
X157454819Y-71904761D02*
X156788152Y-71904761D01*
X156883390Y-71904761D02*
X156835771Y-71857142D01*
X156835771Y-71857142D02*
X156788152Y-71761904D01*
X156788152Y-71761904D02*
X156788152Y-71619047D01*
X156788152Y-71619047D02*
X156835771Y-71523809D01*
X156835771Y-71523809D02*
X156931009Y-71476190D01*
X156931009Y-71476190D02*
X157454819Y-71476190D01*
X156931009Y-71476190D02*
X156835771Y-71428571D01*
X156835771Y-71428571D02*
X156788152Y-71333333D01*
X156788152Y-71333333D02*
X156788152Y-71190476D01*
X156788152Y-71190476D02*
X156835771Y-71095237D01*
X156835771Y-71095237D02*
X156931009Y-71047618D01*
X156931009Y-71047618D02*
X157454819Y-71047618D01*
X157454819Y-70428571D02*
X157407200Y-70523809D01*
X157407200Y-70523809D02*
X157359580Y-70571428D01*
X157359580Y-70571428D02*
X157264342Y-70619047D01*
X157264342Y-70619047D02*
X156978628Y-70619047D01*
X156978628Y-70619047D02*
X156883390Y-70571428D01*
X156883390Y-70571428D02*
X156835771Y-70523809D01*
X156835771Y-70523809D02*
X156788152Y-70428571D01*
X156788152Y-70428571D02*
X156788152Y-70285714D01*
X156788152Y-70285714D02*
X156835771Y-70190476D01*
X156835771Y-70190476D02*
X156883390Y-70142857D01*
X156883390Y-70142857D02*
X156978628Y-70095238D01*
X156978628Y-70095238D02*
X157264342Y-70095238D01*
X157264342Y-70095238D02*
X157359580Y-70142857D01*
X157359580Y-70142857D02*
X157407200Y-70190476D01*
X157407200Y-70190476D02*
X157454819Y-70285714D01*
X157454819Y-70285714D02*
X157454819Y-70428571D01*
X156788152Y-69809523D02*
X156788152Y-69428571D01*
X156454819Y-69666666D02*
X157311961Y-69666666D01*
X157311961Y-69666666D02*
X157407200Y-69619047D01*
X157407200Y-69619047D02*
X157454819Y-69523809D01*
X157454819Y-69523809D02*
X157454819Y-69428571D01*
X157454819Y-68952380D02*
X157407200Y-69047618D01*
X157407200Y-69047618D02*
X157359580Y-69095237D01*
X157359580Y-69095237D02*
X157264342Y-69142856D01*
X157264342Y-69142856D02*
X156978628Y-69142856D01*
X156978628Y-69142856D02*
X156883390Y-69095237D01*
X156883390Y-69095237D02*
X156835771Y-69047618D01*
X156835771Y-69047618D02*
X156788152Y-68952380D01*
X156788152Y-68952380D02*
X156788152Y-68809523D01*
X156788152Y-68809523D02*
X156835771Y-68714285D01*
X156835771Y-68714285D02*
X156883390Y-68666666D01*
X156883390Y-68666666D02*
X156978628Y-68619047D01*
X156978628Y-68619047D02*
X157264342Y-68619047D01*
X157264342Y-68619047D02*
X157359580Y-68666666D01*
X157359580Y-68666666D02*
X157407200Y-68714285D01*
X157407200Y-68714285D02*
X157454819Y-68809523D01*
X157454819Y-68809523D02*
X157454819Y-68952380D01*
X157454819Y-68190475D02*
X156788152Y-68190475D01*
X156978628Y-68190475D02*
X156883390Y-68142856D01*
X156883390Y-68142856D02*
X156835771Y-68095237D01*
X156835771Y-68095237D02*
X156788152Y-67999999D01*
X156788152Y-67999999D02*
X156788152Y-67904761D01*
X157454819Y-67047618D02*
X157454819Y-67619046D01*
X157454819Y-67333332D02*
X156454819Y-67333332D01*
X156454819Y-67333332D02*
X156597676Y-67428570D01*
X156597676Y-67428570D02*
X156692914Y-67523808D01*
X156692914Y-67523808D02*
X156740533Y-67619046D01*
X216023809Y-78288152D02*
X216404761Y-78288152D01*
X216166666Y-77954819D02*
X216166666Y-78811961D01*
X216166666Y-78811961D02*
X216214285Y-78907200D01*
X216214285Y-78907200D02*
X216309523Y-78954819D01*
X216309523Y-78954819D02*
X216404761Y-78954819D01*
X216738095Y-78954819D02*
X216738095Y-78288152D01*
X216738095Y-78478628D02*
X216785714Y-78383390D01*
X216785714Y-78383390D02*
X216833333Y-78335771D01*
X216833333Y-78335771D02*
X216928571Y-78288152D01*
X216928571Y-78288152D02*
X217023809Y-78288152D01*
X217785714Y-78954819D02*
X217785714Y-78431009D01*
X217785714Y-78431009D02*
X217738095Y-78335771D01*
X217738095Y-78335771D02*
X217642857Y-78288152D01*
X217642857Y-78288152D02*
X217452381Y-78288152D01*
X217452381Y-78288152D02*
X217357143Y-78335771D01*
X217785714Y-78907200D02*
X217690476Y-78954819D01*
X217690476Y-78954819D02*
X217452381Y-78954819D01*
X217452381Y-78954819D02*
X217357143Y-78907200D01*
X217357143Y-78907200D02*
X217309524Y-78811961D01*
X217309524Y-78811961D02*
X217309524Y-78716723D01*
X217309524Y-78716723D02*
X217357143Y-78621485D01*
X217357143Y-78621485D02*
X217452381Y-78573866D01*
X217452381Y-78573866D02*
X217690476Y-78573866D01*
X217690476Y-78573866D02*
X217785714Y-78526247D01*
X218261905Y-78288152D02*
X218261905Y-78954819D01*
X218261905Y-78383390D02*
X218309524Y-78335771D01*
X218309524Y-78335771D02*
X218404762Y-78288152D01*
X218404762Y-78288152D02*
X218547619Y-78288152D01*
X218547619Y-78288152D02*
X218642857Y-78335771D01*
X218642857Y-78335771D02*
X218690476Y-78431009D01*
X218690476Y-78431009D02*
X218690476Y-78954819D01*
X219119048Y-78907200D02*
X219214286Y-78954819D01*
X219214286Y-78954819D02*
X219404762Y-78954819D01*
X219404762Y-78954819D02*
X219500000Y-78907200D01*
X219500000Y-78907200D02*
X219547619Y-78811961D01*
X219547619Y-78811961D02*
X219547619Y-78764342D01*
X219547619Y-78764342D02*
X219500000Y-78669104D01*
X219500000Y-78669104D02*
X219404762Y-78621485D01*
X219404762Y-78621485D02*
X219261905Y-78621485D01*
X219261905Y-78621485D02*
X219166667Y-78573866D01*
X219166667Y-78573866D02*
X219119048Y-78478628D01*
X219119048Y-78478628D02*
X219119048Y-78431009D01*
X219119048Y-78431009D02*
X219166667Y-78335771D01*
X219166667Y-78335771D02*
X219261905Y-78288152D01*
X219261905Y-78288152D02*
X219404762Y-78288152D01*
X219404762Y-78288152D02*
X219500000Y-78335771D01*
X219976191Y-78954819D02*
X219976191Y-78288152D01*
X219976191Y-77954819D02*
X219928572Y-78002438D01*
X219928572Y-78002438D02*
X219976191Y-78050057D01*
X219976191Y-78050057D02*
X220023810Y-78002438D01*
X220023810Y-78002438D02*
X219976191Y-77954819D01*
X219976191Y-77954819D02*
X219976191Y-78050057D01*
X220404762Y-78907200D02*
X220500000Y-78954819D01*
X220500000Y-78954819D02*
X220690476Y-78954819D01*
X220690476Y-78954819D02*
X220785714Y-78907200D01*
X220785714Y-78907200D02*
X220833333Y-78811961D01*
X220833333Y-78811961D02*
X220833333Y-78764342D01*
X220833333Y-78764342D02*
X220785714Y-78669104D01*
X220785714Y-78669104D02*
X220690476Y-78621485D01*
X220690476Y-78621485D02*
X220547619Y-78621485D01*
X220547619Y-78621485D02*
X220452381Y-78573866D01*
X220452381Y-78573866D02*
X220404762Y-78478628D01*
X220404762Y-78478628D02*
X220404762Y-78431009D01*
X220404762Y-78431009D02*
X220452381Y-78335771D01*
X220452381Y-78335771D02*
X220547619Y-78288152D01*
X220547619Y-78288152D02*
X220690476Y-78288152D01*
X220690476Y-78288152D02*
X220785714Y-78335771D01*
X221119048Y-78288152D02*
X221500000Y-78288152D01*
X221261905Y-77954819D02*
X221261905Y-78811961D01*
X221261905Y-78811961D02*
X221309524Y-78907200D01*
X221309524Y-78907200D02*
X221404762Y-78954819D01*
X221404762Y-78954819D02*
X221500000Y-78954819D01*
X221976191Y-78954819D02*
X221880953Y-78907200D01*
X221880953Y-78907200D02*
X221833334Y-78859580D01*
X221833334Y-78859580D02*
X221785715Y-78764342D01*
X221785715Y-78764342D02*
X221785715Y-78478628D01*
X221785715Y-78478628D02*
X221833334Y-78383390D01*
X221833334Y-78383390D02*
X221880953Y-78335771D01*
X221880953Y-78335771D02*
X221976191Y-78288152D01*
X221976191Y-78288152D02*
X222119048Y-78288152D01*
X222119048Y-78288152D02*
X222214286Y-78335771D01*
X222214286Y-78335771D02*
X222261905Y-78383390D01*
X222261905Y-78383390D02*
X222309524Y-78478628D01*
X222309524Y-78478628D02*
X222309524Y-78764342D01*
X222309524Y-78764342D02*
X222261905Y-78859580D01*
X222261905Y-78859580D02*
X222214286Y-78907200D01*
X222214286Y-78907200D02*
X222119048Y-78954819D01*
X222119048Y-78954819D02*
X221976191Y-78954819D01*
X222738096Y-78954819D02*
X222738096Y-78288152D01*
X222738096Y-78478628D02*
X222785715Y-78383390D01*
X222785715Y-78383390D02*
X222833334Y-78335771D01*
X222833334Y-78335771D02*
X222928572Y-78288152D01*
X222928572Y-78288152D02*
X223023810Y-78288152D01*
X223309525Y-78050057D02*
X223357144Y-78002438D01*
X223357144Y-78002438D02*
X223452382Y-77954819D01*
X223452382Y-77954819D02*
X223690477Y-77954819D01*
X223690477Y-77954819D02*
X223785715Y-78002438D01*
X223785715Y-78002438D02*
X223833334Y-78050057D01*
X223833334Y-78050057D02*
X223880953Y-78145295D01*
X223880953Y-78145295D02*
X223880953Y-78240533D01*
X223880953Y-78240533D02*
X223833334Y-78383390D01*
X223833334Y-78383390D02*
X223261906Y-78954819D01*
X223261906Y-78954819D02*
X223880953Y-78954819D01*
X175394819Y-91741428D02*
X174728152Y-91741428D01*
X174918628Y-91741428D02*
X174823390Y-91693809D01*
X174823390Y-91693809D02*
X174775771Y-91646190D01*
X174775771Y-91646190D02*
X174728152Y-91550952D01*
X174728152Y-91550952D02*
X174728152Y-91455714D01*
X175347200Y-90741428D02*
X175394819Y-90836666D01*
X175394819Y-90836666D02*
X175394819Y-91027142D01*
X175394819Y-91027142D02*
X175347200Y-91122380D01*
X175347200Y-91122380D02*
X175251961Y-91169999D01*
X175251961Y-91169999D02*
X174871009Y-91169999D01*
X174871009Y-91169999D02*
X174775771Y-91122380D01*
X174775771Y-91122380D02*
X174728152Y-91027142D01*
X174728152Y-91027142D02*
X174728152Y-90836666D01*
X174728152Y-90836666D02*
X174775771Y-90741428D01*
X174775771Y-90741428D02*
X174871009Y-90693809D01*
X174871009Y-90693809D02*
X174966247Y-90693809D01*
X174966247Y-90693809D02*
X175061485Y-91169999D01*
X175347200Y-90312856D02*
X175394819Y-90217618D01*
X175394819Y-90217618D02*
X175394819Y-90027142D01*
X175394819Y-90027142D02*
X175347200Y-89931904D01*
X175347200Y-89931904D02*
X175251961Y-89884285D01*
X175251961Y-89884285D02*
X175204342Y-89884285D01*
X175204342Y-89884285D02*
X175109104Y-89931904D01*
X175109104Y-89931904D02*
X175061485Y-90027142D01*
X175061485Y-90027142D02*
X175061485Y-90169999D01*
X175061485Y-90169999D02*
X175013866Y-90265237D01*
X175013866Y-90265237D02*
X174918628Y-90312856D01*
X174918628Y-90312856D02*
X174871009Y-90312856D01*
X174871009Y-90312856D02*
X174775771Y-90265237D01*
X174775771Y-90265237D02*
X174728152Y-90169999D01*
X174728152Y-90169999D02*
X174728152Y-90027142D01*
X174728152Y-90027142D02*
X174775771Y-89931904D01*
X175394819Y-89455713D02*
X174728152Y-89455713D01*
X174394819Y-89455713D02*
X174442438Y-89503332D01*
X174442438Y-89503332D02*
X174490057Y-89455713D01*
X174490057Y-89455713D02*
X174442438Y-89408094D01*
X174442438Y-89408094D02*
X174394819Y-89455713D01*
X174394819Y-89455713D02*
X174490057Y-89455713D01*
X175347200Y-89027142D02*
X175394819Y-88931904D01*
X175394819Y-88931904D02*
X175394819Y-88741428D01*
X175394819Y-88741428D02*
X175347200Y-88646190D01*
X175347200Y-88646190D02*
X175251961Y-88598571D01*
X175251961Y-88598571D02*
X175204342Y-88598571D01*
X175204342Y-88598571D02*
X175109104Y-88646190D01*
X175109104Y-88646190D02*
X175061485Y-88741428D01*
X175061485Y-88741428D02*
X175061485Y-88884285D01*
X175061485Y-88884285D02*
X175013866Y-88979523D01*
X175013866Y-88979523D02*
X174918628Y-89027142D01*
X174918628Y-89027142D02*
X174871009Y-89027142D01*
X174871009Y-89027142D02*
X174775771Y-88979523D01*
X174775771Y-88979523D02*
X174728152Y-88884285D01*
X174728152Y-88884285D02*
X174728152Y-88741428D01*
X174728152Y-88741428D02*
X174775771Y-88646190D01*
X174728152Y-88312856D02*
X174728152Y-87931904D01*
X174394819Y-88169999D02*
X175251961Y-88169999D01*
X175251961Y-88169999D02*
X175347200Y-88122380D01*
X175347200Y-88122380D02*
X175394819Y-88027142D01*
X175394819Y-88027142D02*
X175394819Y-87931904D01*
X175394819Y-87455713D02*
X175347200Y-87550951D01*
X175347200Y-87550951D02*
X175299580Y-87598570D01*
X175299580Y-87598570D02*
X175204342Y-87646189D01*
X175204342Y-87646189D02*
X174918628Y-87646189D01*
X174918628Y-87646189D02*
X174823390Y-87598570D01*
X174823390Y-87598570D02*
X174775771Y-87550951D01*
X174775771Y-87550951D02*
X174728152Y-87455713D01*
X174728152Y-87455713D02*
X174728152Y-87312856D01*
X174728152Y-87312856D02*
X174775771Y-87217618D01*
X174775771Y-87217618D02*
X174823390Y-87169999D01*
X174823390Y-87169999D02*
X174918628Y-87122380D01*
X174918628Y-87122380D02*
X175204342Y-87122380D01*
X175204342Y-87122380D02*
X175299580Y-87169999D01*
X175299580Y-87169999D02*
X175347200Y-87217618D01*
X175347200Y-87217618D02*
X175394819Y-87312856D01*
X175394819Y-87312856D02*
X175394819Y-87455713D01*
X175394819Y-86693808D02*
X174728152Y-86693808D01*
X174918628Y-86693808D02*
X174823390Y-86646189D01*
X174823390Y-86646189D02*
X174775771Y-86598570D01*
X174775771Y-86598570D02*
X174728152Y-86503332D01*
X174728152Y-86503332D02*
X174728152Y-86408094D01*
X175394819Y-85550951D02*
X175394819Y-86122379D01*
X175394819Y-85836665D02*
X174394819Y-85836665D01*
X174394819Y-85836665D02*
X174537676Y-85931903D01*
X174537676Y-85931903D02*
X174632914Y-86027141D01*
X174632914Y-86027141D02*
X174680533Y-86122379D01*
X215300356Y-52704819D02*
X215300356Y-51704819D01*
X215300356Y-52085771D02*
X215395594Y-52038152D01*
X215395594Y-52038152D02*
X215586070Y-52038152D01*
X215586070Y-52038152D02*
X215681308Y-52085771D01*
X215681308Y-52085771D02*
X215728927Y-52133390D01*
X215728927Y-52133390D02*
X215776546Y-52228628D01*
X215776546Y-52228628D02*
X215776546Y-52514342D01*
X215776546Y-52514342D02*
X215728927Y-52609580D01*
X215728927Y-52609580D02*
X215681308Y-52657200D01*
X215681308Y-52657200D02*
X215586070Y-52704819D01*
X215586070Y-52704819D02*
X215395594Y-52704819D01*
X215395594Y-52704819D02*
X215300356Y-52657200D01*
X216633689Y-52704819D02*
X216633689Y-52181009D01*
X216633689Y-52181009D02*
X216586070Y-52085771D01*
X216586070Y-52085771D02*
X216490832Y-52038152D01*
X216490832Y-52038152D02*
X216300356Y-52038152D01*
X216300356Y-52038152D02*
X216205118Y-52085771D01*
X216633689Y-52657200D02*
X216538451Y-52704819D01*
X216538451Y-52704819D02*
X216300356Y-52704819D01*
X216300356Y-52704819D02*
X216205118Y-52657200D01*
X216205118Y-52657200D02*
X216157499Y-52561961D01*
X216157499Y-52561961D02*
X216157499Y-52466723D01*
X216157499Y-52466723D02*
X216205118Y-52371485D01*
X216205118Y-52371485D02*
X216300356Y-52323866D01*
X216300356Y-52323866D02*
X216538451Y-52323866D01*
X216538451Y-52323866D02*
X216633689Y-52276247D01*
X216967023Y-52038152D02*
X217347975Y-52038152D01*
X217109880Y-51704819D02*
X217109880Y-52561961D01*
X217109880Y-52561961D02*
X217157499Y-52657200D01*
X217157499Y-52657200D02*
X217252737Y-52704819D01*
X217252737Y-52704819D02*
X217347975Y-52704819D01*
X217538452Y-52038152D02*
X217919404Y-52038152D01*
X217681309Y-51704819D02*
X217681309Y-52561961D01*
X217681309Y-52561961D02*
X217728928Y-52657200D01*
X217728928Y-52657200D02*
X217824166Y-52704819D01*
X217824166Y-52704819D02*
X217919404Y-52704819D01*
X218633690Y-52657200D02*
X218538452Y-52704819D01*
X218538452Y-52704819D02*
X218347976Y-52704819D01*
X218347976Y-52704819D02*
X218252738Y-52657200D01*
X218252738Y-52657200D02*
X218205119Y-52561961D01*
X218205119Y-52561961D02*
X218205119Y-52181009D01*
X218205119Y-52181009D02*
X218252738Y-52085771D01*
X218252738Y-52085771D02*
X218347976Y-52038152D01*
X218347976Y-52038152D02*
X218538452Y-52038152D01*
X218538452Y-52038152D02*
X218633690Y-52085771D01*
X218633690Y-52085771D02*
X218681309Y-52181009D01*
X218681309Y-52181009D02*
X218681309Y-52276247D01*
X218681309Y-52276247D02*
X218205119Y-52371485D01*
X219109881Y-52704819D02*
X219109881Y-52038152D01*
X219109881Y-52228628D02*
X219157500Y-52133390D01*
X219157500Y-52133390D02*
X219205119Y-52085771D01*
X219205119Y-52085771D02*
X219300357Y-52038152D01*
X219300357Y-52038152D02*
X219395595Y-52038152D01*
X219633691Y-52038152D02*
X219871786Y-52704819D01*
X220109881Y-52038152D02*
X219871786Y-52704819D01*
X219871786Y-52704819D02*
X219776548Y-52942914D01*
X219776548Y-52942914D02*
X219728929Y-52990533D01*
X219728929Y-52990533D02*
X219633691Y-53038152D01*
X187494819Y-79993095D02*
X187447200Y-80088333D01*
X187447200Y-80088333D02*
X187351961Y-80135952D01*
X187351961Y-80135952D02*
X186494819Y-80135952D01*
X187447200Y-79231190D02*
X187494819Y-79326428D01*
X187494819Y-79326428D02*
X187494819Y-79516904D01*
X187494819Y-79516904D02*
X187447200Y-79612142D01*
X187447200Y-79612142D02*
X187351961Y-79659761D01*
X187351961Y-79659761D02*
X186971009Y-79659761D01*
X186971009Y-79659761D02*
X186875771Y-79612142D01*
X186875771Y-79612142D02*
X186828152Y-79516904D01*
X186828152Y-79516904D02*
X186828152Y-79326428D01*
X186828152Y-79326428D02*
X186875771Y-79231190D01*
X186875771Y-79231190D02*
X186971009Y-79183571D01*
X186971009Y-79183571D02*
X187066247Y-79183571D01*
X187066247Y-79183571D02*
X187161485Y-79659761D01*
X187494819Y-78326428D02*
X186494819Y-78326428D01*
X187447200Y-78326428D02*
X187494819Y-78421666D01*
X187494819Y-78421666D02*
X187494819Y-78612142D01*
X187494819Y-78612142D02*
X187447200Y-78707380D01*
X187447200Y-78707380D02*
X187399580Y-78754999D01*
X187399580Y-78754999D02*
X187304342Y-78802618D01*
X187304342Y-78802618D02*
X187018628Y-78802618D01*
X187018628Y-78802618D02*
X186923390Y-78754999D01*
X186923390Y-78754999D02*
X186875771Y-78707380D01*
X186875771Y-78707380D02*
X186828152Y-78612142D01*
X186828152Y-78612142D02*
X186828152Y-78421666D01*
X186828152Y-78421666D02*
X186875771Y-78326428D01*
X187494819Y-77326428D02*
X187494819Y-77897856D01*
X187494819Y-77612142D02*
X186494819Y-77612142D01*
X186494819Y-77612142D02*
X186637676Y-77707380D01*
X186637676Y-77707380D02*
X186732914Y-77802618D01*
X186732914Y-77802618D02*
X186780533Y-77897856D01*
X155773809Y-78288152D02*
X156154761Y-78288152D01*
X155916666Y-77954819D02*
X155916666Y-78811961D01*
X155916666Y-78811961D02*
X155964285Y-78907200D01*
X155964285Y-78907200D02*
X156059523Y-78954819D01*
X156059523Y-78954819D02*
X156154761Y-78954819D01*
X156488095Y-78954819D02*
X156488095Y-78288152D01*
X156488095Y-78478628D02*
X156535714Y-78383390D01*
X156535714Y-78383390D02*
X156583333Y-78335771D01*
X156583333Y-78335771D02*
X156678571Y-78288152D01*
X156678571Y-78288152D02*
X156773809Y-78288152D01*
X157535714Y-78954819D02*
X157535714Y-78431009D01*
X157535714Y-78431009D02*
X157488095Y-78335771D01*
X157488095Y-78335771D02*
X157392857Y-78288152D01*
X157392857Y-78288152D02*
X157202381Y-78288152D01*
X157202381Y-78288152D02*
X157107143Y-78335771D01*
X157535714Y-78907200D02*
X157440476Y-78954819D01*
X157440476Y-78954819D02*
X157202381Y-78954819D01*
X157202381Y-78954819D02*
X157107143Y-78907200D01*
X157107143Y-78907200D02*
X157059524Y-78811961D01*
X157059524Y-78811961D02*
X157059524Y-78716723D01*
X157059524Y-78716723D02*
X157107143Y-78621485D01*
X157107143Y-78621485D02*
X157202381Y-78573866D01*
X157202381Y-78573866D02*
X157440476Y-78573866D01*
X157440476Y-78573866D02*
X157535714Y-78526247D01*
X158011905Y-78288152D02*
X158011905Y-78954819D01*
X158011905Y-78383390D02*
X158059524Y-78335771D01*
X158059524Y-78335771D02*
X158154762Y-78288152D01*
X158154762Y-78288152D02*
X158297619Y-78288152D01*
X158297619Y-78288152D02*
X158392857Y-78335771D01*
X158392857Y-78335771D02*
X158440476Y-78431009D01*
X158440476Y-78431009D02*
X158440476Y-78954819D01*
X158869048Y-78907200D02*
X158964286Y-78954819D01*
X158964286Y-78954819D02*
X159154762Y-78954819D01*
X159154762Y-78954819D02*
X159250000Y-78907200D01*
X159250000Y-78907200D02*
X159297619Y-78811961D01*
X159297619Y-78811961D02*
X159297619Y-78764342D01*
X159297619Y-78764342D02*
X159250000Y-78669104D01*
X159250000Y-78669104D02*
X159154762Y-78621485D01*
X159154762Y-78621485D02*
X159011905Y-78621485D01*
X159011905Y-78621485D02*
X158916667Y-78573866D01*
X158916667Y-78573866D02*
X158869048Y-78478628D01*
X158869048Y-78478628D02*
X158869048Y-78431009D01*
X158869048Y-78431009D02*
X158916667Y-78335771D01*
X158916667Y-78335771D02*
X159011905Y-78288152D01*
X159011905Y-78288152D02*
X159154762Y-78288152D01*
X159154762Y-78288152D02*
X159250000Y-78335771D01*
X159726191Y-78954819D02*
X159726191Y-78288152D01*
X159726191Y-77954819D02*
X159678572Y-78002438D01*
X159678572Y-78002438D02*
X159726191Y-78050057D01*
X159726191Y-78050057D02*
X159773810Y-78002438D01*
X159773810Y-78002438D02*
X159726191Y-77954819D01*
X159726191Y-77954819D02*
X159726191Y-78050057D01*
X160154762Y-78907200D02*
X160250000Y-78954819D01*
X160250000Y-78954819D02*
X160440476Y-78954819D01*
X160440476Y-78954819D02*
X160535714Y-78907200D01*
X160535714Y-78907200D02*
X160583333Y-78811961D01*
X160583333Y-78811961D02*
X160583333Y-78764342D01*
X160583333Y-78764342D02*
X160535714Y-78669104D01*
X160535714Y-78669104D02*
X160440476Y-78621485D01*
X160440476Y-78621485D02*
X160297619Y-78621485D01*
X160297619Y-78621485D02*
X160202381Y-78573866D01*
X160202381Y-78573866D02*
X160154762Y-78478628D01*
X160154762Y-78478628D02*
X160154762Y-78431009D01*
X160154762Y-78431009D02*
X160202381Y-78335771D01*
X160202381Y-78335771D02*
X160297619Y-78288152D01*
X160297619Y-78288152D02*
X160440476Y-78288152D01*
X160440476Y-78288152D02*
X160535714Y-78335771D01*
X160869048Y-78288152D02*
X161250000Y-78288152D01*
X161011905Y-77954819D02*
X161011905Y-78811961D01*
X161011905Y-78811961D02*
X161059524Y-78907200D01*
X161059524Y-78907200D02*
X161154762Y-78954819D01*
X161154762Y-78954819D02*
X161250000Y-78954819D01*
X161726191Y-78954819D02*
X161630953Y-78907200D01*
X161630953Y-78907200D02*
X161583334Y-78859580D01*
X161583334Y-78859580D02*
X161535715Y-78764342D01*
X161535715Y-78764342D02*
X161535715Y-78478628D01*
X161535715Y-78478628D02*
X161583334Y-78383390D01*
X161583334Y-78383390D02*
X161630953Y-78335771D01*
X161630953Y-78335771D02*
X161726191Y-78288152D01*
X161726191Y-78288152D02*
X161869048Y-78288152D01*
X161869048Y-78288152D02*
X161964286Y-78335771D01*
X161964286Y-78335771D02*
X162011905Y-78383390D01*
X162011905Y-78383390D02*
X162059524Y-78478628D01*
X162059524Y-78478628D02*
X162059524Y-78764342D01*
X162059524Y-78764342D02*
X162011905Y-78859580D01*
X162011905Y-78859580D02*
X161964286Y-78907200D01*
X161964286Y-78907200D02*
X161869048Y-78954819D01*
X161869048Y-78954819D02*
X161726191Y-78954819D01*
X162488096Y-78954819D02*
X162488096Y-78288152D01*
X162488096Y-78478628D02*
X162535715Y-78383390D01*
X162535715Y-78383390D02*
X162583334Y-78335771D01*
X162583334Y-78335771D02*
X162678572Y-78288152D01*
X162678572Y-78288152D02*
X162773810Y-78288152D01*
X163630953Y-78954819D02*
X163059525Y-78954819D01*
X163345239Y-78954819D02*
X163345239Y-77954819D01*
X163345239Y-77954819D02*
X163250001Y-78097676D01*
X163250001Y-78097676D02*
X163154763Y-78192914D01*
X163154763Y-78192914D02*
X163059525Y-78240533D01*
D11*
%TO.C,reistor_led1*%
X188630000Y-85480000D02*
X188630000Y-92020000D01*
X188630000Y-92020000D02*
X191370000Y-92020000D01*
X190000000Y-84710000D02*
X190000000Y-85480000D01*
X190000000Y-92790000D02*
X190000000Y-92020000D01*
X191370000Y-85480000D02*
X188630000Y-85480000D01*
X191370000Y-92020000D02*
X191370000Y-85480000D01*
D12*
%TO.C,push_button*%
X185500000Y-51000000D02*
X194500000Y-51000000D01*
X194500000Y-59000000D02*
X185500000Y-59000000D01*
X185500000Y-59000000D02*
G75*
G02*
X185500000Y-51000000I4500000J4000000D01*
G01*
X194500000Y-51000000D02*
G75*
G02*
X194500000Y-59000000I-4500000J-4000000D01*
G01*
D11*
X192000000Y-55000000D02*
G75*
G02*
X188000000Y-55000000I-2000000J0D01*
G01*
X188000000Y-55000000D02*
G75*
G02*
X192000000Y-55000000I2000000J0D01*
G01*
X193500000Y-55000000D02*
G75*
G02*
X186500000Y-55000000I-3500000J0D01*
G01*
X186500000Y-55000000D02*
G75*
G02*
X193500000Y-55000000I3500000J0D01*
G01*
%TO.C,motor2*%
X218670000Y-66210000D02*
X220000000Y-66210000D01*
X218670000Y-67540000D02*
X218670000Y-66210000D01*
X218670000Y-70020000D02*
X218670000Y-72620000D01*
X218670000Y-70020000D02*
X221330000Y-70020000D01*
X218670000Y-72620000D02*
X221330000Y-72620000D01*
X221330000Y-70020000D02*
X221330000Y-72620000D01*
%TO.C,resistor2*%
X206630000Y-85480000D02*
X206630000Y-92020000D01*
X206630000Y-92020000D02*
X209370000Y-92020000D01*
X208000000Y-84710000D02*
X208000000Y-85480000D01*
X208000000Y-92790000D02*
X208000000Y-92020000D01*
X209370000Y-85480000D02*
X206630000Y-85480000D01*
X209370000Y-92020000D02*
X209370000Y-85480000D01*
%TO.C,motor1*%
X158670000Y-66060000D02*
X160000000Y-66060000D01*
X158670000Y-67390000D02*
X158670000Y-66060000D01*
X158670000Y-69870000D02*
X158670000Y-72470000D01*
X158670000Y-69870000D02*
X161330000Y-69870000D01*
X158670000Y-72470000D02*
X161330000Y-72470000D01*
X161330000Y-69870000D02*
X161330000Y-72470000D01*
%TO.C,transistor2*%
X214844000Y-84804000D02*
X214844000Y-80163000D01*
X218113000Y-84804000D02*
X218113000Y-83294000D01*
X221814000Y-84804000D02*
X221814000Y-83294000D01*
X225084000Y-80163000D02*
X214844000Y-80163000D01*
X225084000Y-83294000D02*
X214844000Y-83294000D01*
X225084000Y-84804000D02*
X214844000Y-84804000D01*
X225084000Y-84804000D02*
X225084000Y-80163000D01*
%TO.C,resistor1*%
X171130000Y-85400000D02*
X171130000Y-91940000D01*
X171130000Y-91940000D02*
X173870000Y-91940000D01*
X172500000Y-84630000D02*
X172500000Y-85400000D01*
X172500000Y-92710000D02*
X172500000Y-91940000D01*
X173870000Y-85400000D02*
X171130000Y-85400000D01*
X173870000Y-91940000D02*
X173870000Y-85400000D01*
%TO.C,battery*%
X214480000Y-56330000D02*
X214480000Y-55000000D01*
X215810000Y-56330000D02*
X214480000Y-56330000D01*
X218290000Y-53670000D02*
X220890000Y-53670000D01*
X218290000Y-56330000D02*
X218290000Y-53670000D01*
X218290000Y-56330000D02*
X220890000Y-56330000D01*
X220890000Y-56330000D02*
X220890000Y-53670000D01*
%TO.C,led1*%
X188764000Y-80315000D02*
X188920000Y-80315000D01*
X191080000Y-80315000D02*
X191236000Y-80315000D01*
X188764484Y-80315000D02*
G75*
G02*
X188921392Y-77082665I1235516J1560000D01*
G01*
X188920000Y-79795961D02*
G75*
G02*
X188920163Y-77713870I1080000J1040961D01*
G01*
X191078608Y-77082665D02*
G75*
G02*
X191235516Y-80315000I-1078608J-1672335D01*
G01*
X191079837Y-77713870D02*
G75*
G02*
X191080000Y-79795961I-1079837J-1041130D01*
G01*
%TO.C,transistor1*%
X154880000Y-84770000D02*
X154880000Y-80129000D01*
X158149000Y-84770000D02*
X158149000Y-83260000D01*
X161850000Y-84770000D02*
X161850000Y-83260000D01*
X165120000Y-80129000D02*
X154880000Y-80129000D01*
X165120000Y-83260000D02*
X154880000Y-83260000D01*
X165120000Y-84770000D02*
X154880000Y-84770000D01*
X165120000Y-84770000D02*
X165120000Y-80129000D01*
%TD*%
M02*
